<svg width="210" height="211" viewBox="0 0 210 211" fill="none" xmlns="http://www.w3.org/2000/svg">
<g clip-path="url(#clip0_51_48)">
<path d="M154.651 72.1089C156.343 74.7529 157.846 77.5253 159.116 80.4124C160.382 83.2979 161.436 86.3033 162.155 89.3943C163.604 95.5213 164.073 101.813 163.734 108.035C163.377 114.639 162.05 121.19 159.937 127.457C159.217 129.543 158.405 131.602 157.477 133.616C156.535 135.623 155.488 137.586 154.326 139.489C153.16 141.389 151.854 143.212 150.437 144.954C150.074 145.382 149.729 145.826 149.349 146.241L148.211 147.491L147.016 148.691C146.625 149.098 146.187 149.461 145.774 149.847C145.563 150.036 145.358 150.231 145.142 150.414L144.485 150.955C144.046 151.315 143.607 151.685 143.169 152.004L141.854 152.998C141.411 153.322 140.958 153.635 140.511 153.954L139.837 154.431L139.149 154.887C138.688 155.189 138.233 155.498 137.768 155.794C136.829 156.371 135.897 156.961 134.932 157.496C133.981 158.057 132.995 158.556 132.019 159.075C131.024 159.557 130.037 160.056 129.02 160.493C126.999 161.394 124.93 162.199 122.814 162.87C120.701 163.546 118.554 164.128 116.374 164.565C114.195 165.002 111.99 165.322 109.774 165.517C105.34 165.908 100.862 165.755 96.4579 165.126C92.0555 164.477 87.7344 163.324 83.5898 161.727C79.4506 160.114 75.4937 158.054 71.7898 155.615C62.6836 149.581 55.1456 141.229 50.0618 131.536C47.5202 126.691 45.5879 121.517 44.3461 116.174L44.1146 115.171L43.9125 114.144C43.7694 113.46 43.6637 112.769 43.5605 112.078C43.3492 110.696 43.2231 109.302 43.1309 107.906C42.9745 105.113 43.0751 102.309 43.4032 99.5373C44.0482 93.9869 45.6861 88.6035 47.9865 83.5822C50.3119 78.5661 53.3159 73.9062 56.813 69.6886C63.8259 61.2635 72.7398 54.5248 82.7189 50.0583C88.746 47.3722 95.3216 45.7489 101.823 45.2884C104.94 45.0812 107.524 45.2979 109.588 45.7095C110.622 45.9051 111.526 46.181 112.315 46.4472C113.101 46.7489 113.774 47.0339 114.338 47.3653C115.982 48.3171 115.802 49.0202 114.278 49.3908C114.088 49.4374 113.876 49.4769 113.643 49.5144C113.41 49.5581 113.155 49.5971 112.881 49.631C112.607 49.6651 112.313 49.6939 112 49.7177C111.686 49.7526 111.352 49.783 110.999 49.8084C109.587 49.9148 107.868 50.0014 105.864 50.1635C100.794 50.5433 95.3044 51.5875 90.2673 53.2321C84.4639 55.1016 78.9252 57.8909 73.8852 61.3981C68.8393 64.8977 64.2817 69.1206 60.4546 73.9067C58.5335 76.2939 56.8178 78.8361 55.302 81.4813C53.8089 84.1384 52.5166 86.9019 51.5165 89.7585C49.4972 95.4608 48.5894 101.514 49.0337 107.447C49.1651 109.082 49.3933 110.722 49.7095 112.349C50.0364 113.959 50.4749 115.623 50.9384 117.238C51.906 120.472 53.0826 123.611 54.3935 126.577C55.4325 128.949 56.6439 131.253 58.0114 133.465C59.3828 135.675 60.9146 137.79 62.5814 139.794C65.9151 143.803 69.8003 147.366 74.0977 150.324C82.6726 156.274 92.8821 159.799 103.261 160.273C110.977 160.655 118.794 159.211 126.009 156.215C127.809 155.456 129.586 154.634 131.315 153.709C133.037 152.774 134.741 151.797 136.378 150.705L136.997 150.305L137.604 149.885L138.818 149.044L140.006 148.166L140.6 147.726L141.159 147.278C141.526 146.973 141.913 146.694 142.265 146.369L143.337 145.417C144.023 144.747 144.721 144.09 145.364 143.373C145.962 142.759 146.5 142.086 147.063 141.437L147.861 140.42L148.259 139.91L148.635 139.383C149.667 137.997 150.573 136.514 151.455 135.019C153.162 131.992 154.616 128.799 155.743 125.481C156.332 123.831 156.8 122.139 157.252 120.444C157.662 118.737 158.052 117.023 158.326 115.287C158.92 111.822 159.209 108.305 159.23 104.791C159.247 97.7737 158.183 90.7034 155.585 84.2502C153.001 77.7606 149.056 71.7979 144.301 66.6209C140.49 62.495 136.314 58.9323 131.978 55.9718C127.638 53.0112 123.134 50.6547 118.587 48.9411C118.063 48.7514 117.614 48.5486 117.23 48.3879C116.847 48.2257 116.535 48.0689 116.297 47.9212C115.821 47.6259 115.636 47.3666 115.754 47.1731C115.872 46.9796 116.293 46.8517 117.026 46.8198C117.392 46.8041 117.837 46.8055 118.351 46.8708C118.864 46.9345 119.462 47.0029 120.12 47.1543C121.995 47.5478 123.853 48.1018 125.703 48.7359C127.541 49.3965 129.357 50.1643 131.137 51.0323C134.682 52.7916 138.076 54.9397 141.204 57.4076C146.376 61.4453 150.859 66.5665 154.547 72.1071C154.581 72.1064 154.614 72.1062 154.651 72.1089Z" fill="#5AB2FF"/>
<path d="M79.5194 75.6659C80.5945 75.6928 81.6706 75.732 82.7443 75.7408C83.3133 75.7436 83.8862 75.7566 84.4424 75.6549C85.9148 75.3852 87.4711 75.0498 89.1821 74.9024C90.8806 74.7579 92.7955 74.8108 94.71 75.4661C95.8742 75.8786 96.9951 76.459 97.9559 77.1956C98.919 77.9275 99.7449 78.7689 100.454 79.6454C101.17 80.5229 101.749 81.4392 102.269 82.354C102.788 83.2701 103.238 84.1908 103.64 85.0998C103.888 85.649 103.924 86.2871 103.941 86.9006C103.959 87.4923 103.407 88.0915 102.604 88.6527C101.43 89.4669 99.9311 89.7364 99.3311 89.1956C98.9481 88.8584 98.7566 88.4005 98.6466 87.9427C98.3919 86.8878 98.0023 85.9066 97.4703 85.0503C96.9407 84.1961 96.2635 83.4679 95.4936 82.977C95.0682 82.6935 94.5775 82.5572 94.3744 82.1355C94.032 81.4665 93.44 81.0657 92.8111 80.808C92.1756 80.5528 91.46 80.4496 90.6919 80.2572C89.5337 79.9709 88.2171 80.1257 86.8385 80.1701C84.2691 80.2728 81.7007 80.3755 79.1322 80.4782C78.1033 80.5219 77.0914 80.2031 76.1026 79.1636C75.6474 78.6819 75.5231 77.4019 75.9455 77.06C76.5432 76.5736 77.1893 76.2295 77.844 75.9873C78.3821 75.7869 78.9629 75.8219 79.5246 75.753C79.5228 75.7237 79.5212 75.6965 79.5194 75.6659Z" fill="#5AB2FF"/>
<path d="M139.217 110.401C138.926 109.334 138.601 108.268 138.204 107.227C137.993 106.676 137.775 106.119 137.446 105.633C136.574 104.331 135.595 103.113 134.566 101.958C133.544 100.804 132.526 99.8548 131.603 99.3229C131.319 99.1586 131.045 99.0333 130.777 98.9424C130.656 98.9104 130.572 98.9007 130.467 98.8638C130.323 98.8526 130.192 98.8273 130.041 98.8088C129.406 98.7495 128.569 98.8002 127.715 98.92C125.989 99.1559 124.132 99.6409 122.309 100.23C121.758 100.412 121.133 100.399 120.513 100.397C119.92 100.39 119.323 99.8435 118.756 99.0387C117.928 97.8694 117.69 96.3578 118.385 95.7127C118.82 95.3067 119.39 95.1002 119.956 94.9937C121.261 94.7474 122.532 94.4383 123.815 94.0819C125.102 93.7282 126.389 93.3194 127.812 92.9357C128.216 92.8415 128.609 92.7016 129.055 92.6558C129.272 92.628 129.491 92.6115 129.706 92.6142C129.932 92.628 130.16 92.666 130.377 92.7289C130.713 92.8173 131.09 92.9444 131.452 93.0543L131.723 93.136C131.815 93.1659 131.916 93.2072 132.012 93.2421L132.589 93.4605C133.306 93.758 133.934 94.097 134.538 94.4734C135.732 95.2271 136.721 96.1165 137.446 97.1032C137.957 97.8053 138.468 98.5092 138.981 99.2134C139.474 99.8989 139.954 100.594 140.373 101.326C141.875 103.931 143.045 106.691 143.965 109.499C144.332 110.619 144.302 111.827 143.501 113.096C143.133 113.68 141.898 114.036 141.474 113.671C140.875 113.149 140.386 112.575 139.987 111.979C139.656 111.491 139.532 110.906 139.299 110.371C139.272 110.381 139.246 110.39 139.217 110.401Z" fill="#5AB2FF"/>
<path d="M121.138 134.453C118.721 135.583 116.192 136.47 113.594 137.087C112.901 137.239 112.206 137.382 111.511 137.518L110.462 137.7L109.94 137.801L109.414 137.884C107.553 138.235 105.639 138.371 103.722 138.349C101.804 138.33 99.8727 138.105 98.0017 137.675C94.2518 136.824 90.7007 135.236 87.5488 133.1C85.6111 131.779 83.8182 130.258 82.1894 128.578C80.5566 126.894 79.1076 125.058 77.8288 123.127C75.2629 119.259 73.4157 115.004 72.111 110.649C71.7074 109.334 71.5814 107.934 71.4928 106.579C71.4205 105.276 71.9902 104.32 72.8393 103.658C73.457 103.175 74.1677 103.057 74.804 103.246C75.4466 103.435 75.9887 103.935 76.3409 104.708C76.5582 105.2 76.7301 105.722 76.8826 106.253C77.0236 106.788 77.1508 107.328 77.2527 107.862C77.7236 110.317 78.5158 112.694 79.5664 114.931C80.6441 117.151 81.9771 119.24 83.6021 121.04C84.4863 122.051 85.5331 122.944 86.2524 124.007C87.4196 125.708 88.9554 127.133 90.6274 128.331C92.3016 129.539 94.1221 130.494 95.9545 131.391C97.3204 132.054 98.767 132.562 100.248 132.883C101.729 133.215 103.232 133.375 104.749 133.459C107.457 133.562 110.223 133.255 112.917 132.502C114.27 132.154 115.594 131.662 116.905 131.132C117.55 130.841 118.208 130.574 118.839 130.243C119.156 130.082 119.479 129.931 119.793 129.762L120.729 129.241C122.715 128.114 124.676 127.185 126.933 126.76C127.976 126.57 128.8 127.552 128.13 128.5C127.197 129.847 126.004 131.072 124.702 132.154C124.16 132.59 123.584 132.997 122.967 133.343L122.046 133.872C121.733 134.039 121.42 134.205 121.108 134.37C121.118 134.398 121.127 134.423 121.138 134.453Z" fill="#5AB2FF"/>
</g>
<defs>
<clipPath id="clip0_51_48">
<rect width="154.693" height="155.491" fill="white" transform="translate(73.6427) rotate(28.2692)"/>
</clipPath>
</defs>
</svg>
