<svg width="229" height="228" viewBox="0 0 229 228" fill="none" xmlns="http://www.w3.org/2000/svg">
<path d="M38.8699 76.2551C44.0235 78.8329 49.176 81.9519 53.499 86.2668C55.6288 88.4283 57.5003 90.8279 59.0762 93.4177C60.6092 95.9659 61.9115 98.6449 62.9676 101.423C65.1569 107.262 66.3449 113.303 67.2667 119.223C67.5082 120.692 67.7261 122.16 67.9312 123.623L68.5214 128.004L63.1445 128.67C62.2824 121.779 61.607 114.698 62.1987 107.515C62.7621 100.363 64.65 93.0753 68.4797 86.6923C69.4409 85.0873 70.5227 83.5571 71.7157 82.1146C72.9118 80.6454 74.241 79.2887 75.6865 78.0617C76.0385 77.7391 76.4212 77.4592 76.7955 77.1671C77.175 76.8828 77.5402 76.5743 77.9334 76.3116C78.7174 75.7823 79.4952 75.2363 80.3159 74.7762C81.9261 73.8222 83.6044 72.9872 85.3374 72.278C87.0392 71.5774 88.7786 70.9712 90.5478 70.4624C92.3 69.9752 94.0591 69.5249 95.8135 69.1723C99.3259 68.4295 102.816 67.9287 106.257 67.4365L106.597 73.93L103.53 73.8643C100.198 73.802 96.8355 73.6243 93.4472 73.3516C89.9789 73.1035 86.5343 72.5965 83.1422 71.835C79.5661 71.0395 76.1394 69.6842 72.99 67.8195C71.3629 66.819 69.8587 65.6328 68.5077 64.2852C67.1622 62.9301 65.9911 61.4138 65.0213 59.7711C63.1054 56.5618 61.9304 53.2041 60.9261 49.9743C59.912 46.7245 59.0674 43.4246 58.3957 40.0879C57.7072 36.7569 57.2155 33.3886 56.923 30.0003C56.7822 28.3068 56.6724 26.6114 56.6193 24.9142L56.5802 23.6416C56.5701 23.2176 56.5809 22.7926 56.5451 22.3691C56.4961 21.5215 56.4856 20.6725 56.4543 19.8235L62.2359 20.0961C61.7499 26.2901 61.23 32.5901 60.0311 38.9208C59.8676 39.7107 59.718 40.5041 59.5416 41.292L58.9485 43.6524L58.2711 46.0033L57.5007 48.3388C56.4089 51.4758 55.0153 54.5005 53.3391 57.3705C50.098 62.7959 45.6526 67.4107 40.3436 70.8615C38.2911 72.2356 36.0455 73.2995 33.68 74.0187C32.8162 74.2651 31.934 74.4424 31.0419 74.5492C30.6443 74.5923 30.2697 74.6204 29.9179 74.6334L29.6581 74.641L29.4479 74.6147C29.3003 74.5946 29.1579 74.5753 29.0208 74.5567C27.3198 74.3093 26.3754 74.0145 27.6859 72.7318C27.8755 72.5538 28.0759 72.3877 28.2861 72.2344C28.3961 72.1493 28.5514 72.053 28.6504 71.9724C28.7425 71.8957 28.8387 71.8156 28.939 71.7322C29.3397 71.4013 29.8239 71.078 30.3584 70.6953C30.8884 70.3034 31.5045 69.9309 32.1515 69.4703C32.4798 69.2522 32.8227 69.0244 33.1804 68.7867C33.5313 68.5392 33.8986 68.288 34.2822 68.033C36.2675 66.6773 38.1616 65.1936 39.9523 63.5916C41.7811 61.9813 43.4825 60.233 45.0413 58.3622C47.166 55.7822 48.9519 52.9432 50.3559 49.9138C51.7751 46.8199 52.9042 43.6021 53.7289 40.3013C55.4992 33.6489 56.2996 26.6516 57.0507 19.5989L57.0512 19.5949C57.1137 19.0106 57.3981 18.4722 57.8464 18.0899C58.2946 17.7077 58.8727 17.5105 59.4622 17.5388C60.0517 17.5671 60.608 17.8187 61.0172 18.2422C61.4264 18.6656 61.6575 19.2288 61.6632 19.8163C61.6738 20.9605 61.6358 22.1068 61.7163 23.25C61.7892 24.3928 61.8755 25.5342 61.9918 26.6726C62.2139 28.9503 62.5439 31.2143 62.9207 33.4665C63.6663 37.9681 64.759 42.4058 66.1892 46.7402C67.1039 49.7044 68.2921 52.5779 69.7387 55.3241C70.419 56.5653 71.2211 57.7364 72.1331 58.8203C73.0231 59.8387 74.0089 60.77 75.0772 61.6014C76.0798 62.3485 77.1444 63.0095 78.2593 63.5773C79.4256 64.149 80.6295 64.6414 81.8626 65.0511C84.4432 65.8711 87.0952 66.449 89.7839 66.7771C95.2909 67.4906 101.014 67.5948 106.771 67.8064L106.805 67.8077C107.526 67.8341 108.211 68.1295 108.723 68.6352C109.236 69.1409 109.539 69.8199 109.572 70.5377C109.606 71.2554 109.367 71.9594 108.903 72.5099C108.439 73.0605 107.785 73.4174 107.069 73.5099C102.699 74.0747 98.3981 74.6655 94.2653 75.6242C90.1496 76.6037 86.164 77.8873 82.6445 79.9021C81.1432 80.7559 79.7257 81.748 78.4104 82.8652C77.1034 84.0077 75.9059 85.2689 74.8337 86.6324C72.6933 89.4522 71.0107 92.5889 69.8471 95.9281C68.6562 99.3164 67.8881 102.837 67.5598 106.412C67.2184 110.046 67.1426 113.7 67.3328 117.344C67.4855 120.892 67.848 124.461 68.2685 128.043L68.2712 128.067C68.3465 128.709 68.1628 129.355 67.7606 129.863C67.3583 130.371 66.7702 130.699 66.1252 130.776C65.4803 130.853 64.831 130.672 64.3199 130.272C63.8087 129.873 63.4774 129.289 63.3984 128.647C62.6922 122.894 61.9468 117.191 60.6111 111.692C59.9836 108.956 59.1818 106.262 58.2106 103.627C57.2409 101.039 56.0288 98.5469 54.5902 96.1847C54.2127 95.6137 53.862 95.0214 53.4649 94.4651L52.2374 92.823C51.3741 91.7665 50.4561 90.7555 49.487 89.7943C47.4812 87.8805 45.2831 86.177 42.9274 84.7108C41.7412 83.961 40.5183 83.2539 39.2692 82.5801C38.6448 82.2433 38.0143 81.9142 37.3777 81.5928L36.419 81.1154L35.9397 80.8814L35.4844 80.6783C34.8904 80.3939 34.2387 80.1638 33.6054 79.9146C32.9466 79.7009 32.3026 79.458 31.6263 79.2739C30.295 78.8616 28.9203 78.5489 27.5466 78.2525C24.8821 77.6994 22.1787 77.3519 19.4604 77.213C16.8258 77.0839 14.2261 77.2382 12.0654 77.9831L11.4443 75.5233L11.4423 75.3607H11.4448H11.46H11.4803H11.521L11.6024 75.3612C11.6552 75.3622 11.7093 75.3634 11.7854 75.3597L12.2058 75.346L13.061 75.3108C13.6346 75.2852 14.2049 75.2598 14.772 75.2346C15.9105 75.1895 17.0352 75.145 18.1459 75.1009C20.3711 75.0209 22.5435 74.9729 24.666 74.9283C25.3881 74.9012 26.1113 74.9293 26.8291 75.0123C27.1076 75.0346 27.274 75.1181 27.5307 75.1172C27.6979 75.1125 27.8624 75.1588 28.0024 75.2499L28.4238 74.7602C28.3643 74.9837 28.2818 75.0822 28.3211 75.1022C28.348 75.1223 28.4942 75.059 28.628 74.8453C28.6442 74.8196 28.6544 74.7907 28.658 74.7606C28.6617 74.7305 28.6586 74.7 28.6489 74.6712C28.6393 74.6424 28.6234 74.6161 28.6024 74.5942C28.5814 74.5722 28.5558 74.5552 28.5274 74.5443C28.499 74.5334 28.4685 74.5288 28.4381 74.531C28.4077 74.5332 28.3782 74.542 28.3517 74.5569C28.3251 74.5718 28.3022 74.5923 28.2846 74.617C28.2669 74.6417 28.255 74.67 28.2496 74.6999L28.1184 75.438C28.094 75.5745 27.9088 75.7831 27.5651 76.0149C27.3264 76.2086 27.0666 76.3747 26.7904 76.5101C25.9392 76.9246 25.0415 77.2365 24.1162 77.4394C22.1118 77.8984 20.0931 78.3043 18.0443 78.6901C17.0206 78.8823 15.9897 79.0672 14.9517 79.2449L13.3808 79.5041L12.5735 79.6273L12.1533 79.6865C11.9954 79.7072 11.7594 79.7282 11.5654 79.7449C10.8704 79.8045 10.1763 79.6201 9.60349 79.2237C9.03065 78.8274 8.61512 78.244 8.4289 77.5747C8.24267 76.9054 8.29748 76.1923 8.58383 75.5589C8.87019 74.9256 9.37003 74.412 9.99678 74.107L10.1972 74.0109C11.8115 73.2629 13.5263 72.752 15.288 72.4942C16.1041 72.3957 16.9364 72.2687 17.7366 72.2396C18.1396 72.2175 18.5468 72.1848 18.9471 72.1745L20.142 72.1649C23.3126 72.1961 26.4709 72.5636 29.5634 73.2611C31.126 73.5968 32.6707 74.0102 34.1917 74.4996L35.3454 74.883L36.5042 75.322C36.8875 75.4584 37.282 75.6436 37.6715 75.812L38.2563 76.0701L38.7774 76.3202C38.8074 76.2975 38.8356 76.2767 38.8699 76.2551Z" fill="#5AB2FF"/>
<path d="M175.864 89.566C178.551 92.7735 180.718 96.3796 182.286 100.254C182.478 100.739 182.685 101.217 182.862 101.707L183.334 103.202C183.484 103.702 183.66 104.193 183.785 104.699L184.131 106.229C184.237 106.741 184.38 107.243 184.451 107.762L184.665 109.316L184.769 110.093C184.805 110.349 184.84 110.608 184.858 110.893C184.901 111.452 184.922 112.029 184.907 112.63C184.893 113.71 184.717 114.782 184.384 115.811C184.177 116.41 183.901 116.983 183.561 117.518C183.181 118.088 182.722 118.602 182.196 119.042L182.158 119.073C181.723 119.437 181.187 119.661 180.621 119.716C180.056 119.772 179.486 119.655 178.988 119.382C178.49 119.11 178.087 118.693 177.831 118.188C177.574 117.683 177.478 117.112 177.553 116.551C177.906 113.953 178.406 111.376 179.052 108.834C180.103 104.583 181.732 100.496 183.893 96.6841C186.108 92.787 189.002 89.3138 192.44 86.4272C195.96 83.5316 200.026 81.3653 204.398 80.0554C208.89 78.7258 213.638 78.5036 218.235 79.4079C218.911 79.5466 219.526 79.8908 219.996 80.3927C220.466 80.8947 220.768 81.5298 220.86 82.21C220.952 82.8903 220.83 83.5823 220.51 84.1902C220.19 84.7982 219.688 85.2921 219.074 85.6038L219.013 85.6342C217.517 86.3703 215.913 86.8672 214.262 87.1068C212.744 87.3188 211.208 87.3797 209.678 87.2886C208.211 87.2163 206.814 87.0431 205.471 86.8514C204.131 86.6553 202.853 86.4645 201.465 86.2122C199.47 85.878 197.517 85.328 195.641 84.5719C194.614 84.1429 193.632 83.6142 192.71 82.9934C191.768 82.3533 190.898 81.6135 190.116 80.7869C188.664 79.2029 187.478 77.3965 186.603 75.4371C185.792 73.627 185.156 71.7444 184.702 69.8146C182.872 62.3364 183.027 54.513 185.151 47.1123L185.154 47.1014C185.34 46.4564 185.711 45.8796 186.222 45.4421C186.733 45.0045 187.362 44.7254 188.03 44.639C188.699 44.5526 189.378 44.6627 189.984 44.9558C190.59 45.2489 191.097 45.7121 191.443 46.2885C192.525 48.1605 193.111 50.2761 193.145 52.4358C193.18 54.3291 192.944 56.2177 192.446 58.0451C192.225 58.9269 191.939 59.742 191.667 60.566C191.363 61.3786 191.066 62.1955 190.705 62.9836C190.016 64.5721 189.208 66.1068 188.288 67.5747C184.631 73.5029 179.33 78.2515 173.024 81.2481C169.012 83.1204 164.656 84.149 160.227 84.2697C158.489 84.3298 156.754 84.0925 155.096 83.5683C154.76 83.4562 154.446 83.3406 154.153 83.2188C153.861 83.085 153.589 82.9484 153.339 82.8089C152.88 82.5648 152.453 82.2654 152.068 81.9173C151.056 81.0087 151.248 80.2773 152.254 79.7991C153.264 79.3312 155.089 79.084 157.568 78.8363L158.755 78.7086L159.957 78.5487C160.761 78.4265 161.576 78.3248 162.388 78.1733C164.008 77.8881 165.61 77.5069 167.184 77.0317C170.223 76.0907 173.075 74.6347 175.617 72.7278C180.752 68.8845 184.482 63.4725 186.236 57.3192C186.655 55.9172 186.868 54.4622 186.868 52.9995C186.886 51.7923 186.561 50.6046 185.929 49.5742L191.33 48.867C190.78 51.0439 190.436 53.2675 190.303 55.5084C190.046 59.6459 190.613 63.9004 191.328 67.8096C191.824 70.5954 192.692 73.2326 194.103 75.2601C194.768 76.2351 195.61 77.0775 196.585 77.7438C197.65 78.4175 198.809 78.9293 200.025 79.2623C201.412 79.6438 202.821 79.9419 204.244 80.1549C205.76 80.3989 207.268 80.6438 208.688 80.7881C211.545 81.0942 214.176 80.9781 216.187 79.9967L216.882 85.5633L215.885 85.3748L215.387 85.2769L214.881 85.2176L213.87 85.0956L212.848 85.0444C210.525 84.9565 208.202 85.2275 205.963 85.8476C203.682 86.4847 201.496 87.4174 199.46 88.6216C197.411 89.8279 195.519 91.2819 193.829 92.9504C192.122 94.6443 190.605 96.5186 189.307 98.5401C185.742 104.024 183.639 110.519 182.766 117.156L178.821 115.04C179.057 114.842 179.235 114.586 179.337 114.297C179.501 113.847 179.594 113.375 179.614 112.897C179.645 112.302 179.63 111.706 179.567 111.115L179.283 109.135C179.186 108.474 179.052 107.818 178.881 107.172L178.655 106.193C178.587 105.865 178.458 105.553 178.362 105.231C178.149 104.595 177.967 103.947 177.73 103.317L176.956 101.45C175.833 98.9832 174.438 96.6485 172.796 94.4895C171.114 92.345 169.211 90.3822 167.118 88.6335C164.474 86.4815 161.597 84.631 158.539 83.1167C158.355 83.0209 158.175 82.9177 157.99 82.8269L157.426 82.58L156.305 82.0749C155.569 81.7028 154.803 81.4559 154.052 81.1549L152.926 80.7075C152.558 80.5755 152.192 80.4567 151.825 80.364C151.099 80.139 150.322 80.1357 149.595 80.3545C149.416 80.4222 149.255 80.5056 149.127 80.5631C149.124 80.5643 149.122 80.566 149.12 80.5681C149.118 80.5703 149.116 80.5727 149.115 80.5755L149.1 80.6165C149.052 80.7657 149.062 80.9275 149.129 81.0694C149.189 81.1996 149.276 81.3162 149.383 81.4119C149.577 81.5842 149.819 81.6928 150.077 81.7229C150.199 81.7392 150.323 81.7297 150.44 81.695C150.546 81.6747 150.65 81.6468 150.751 81.6115C150.922 81.5472 151.047 81.5067 151.117 81.5519C151.186 81.5943 151.206 81.7282 151.105 81.9563C151.031 82.0958 150.933 82.221 150.815 82.3262C150.673 82.4949 150.489 82.6228 150.281 82.6966C149.781 82.8978 149.227 82.9156 148.716 82.7471C148.338 82.6224 147.998 82.4025 147.731 82.1087C147.539 81.8955 147.388 81.6494 147.284 81.3824C147.165 81.0657 147.111 80.7285 147.126 80.3907C147.135 80.1344 147.219 79.8864 147.367 79.6763L147.737 79.1476C147.932 78.8695 148.159 78.6162 148.415 78.3931C148.558 78.2688 148.709 78.1551 148.869 78.0528C149.039 77.9578 149.215 77.8745 149.396 77.8035C150.252 77.4795 151.164 77.3225 152.08 77.3411C152.796 77.3443 153.51 77.4067 154.215 77.5279L156.155 77.8353L156.643 77.9187L157.121 78.0391L158.081 78.2853C160.668 78.9549 163.166 79.927 165.524 81.1813C169.418 83.3519 172.887 86.2045 175.763 89.6019C175.796 89.59 175.826 89.5793 175.864 89.566Z" fill="#5AB2FF"/>
<path d="M115.473 158.484L117.516 159.623L119.482 160.892L119.971 161.212L120.441 161.563L121.378 162.264C121.688 162.501 122.005 162.729 122.309 162.972L123.197 163.737C124.384 164.753 125.513 165.834 126.579 166.976L128.111 168.746C128.613 169.342 129.055 169.983 129.527 170.601C131.338 173.116 132.873 175.816 134.107 178.655C135.3 181.492 136.204 184.44 136.806 187.456C136.943 188.258 137.11 189.055 137.214 189.862L137.484 192.288L137.603 194.728C137.645 195.541 137.591 196.357 137.589 197.171C137.483 200.431 137.016 203.671 136.198 206.83L135.558 209.053C135.374 209.691 134.965 210.242 134.405 210.604C133.845 210.966 133.173 211.115 132.512 211.022C131.851 210.93 131.246 210.603 130.808 210.102C130.37 209.6 130.129 208.958 130.129 208.294L130.13 208.165C130.136 200.992 130.121 193.595 131.505 186.164C132.186 182.404 133.299 178.734 134.824 175.227C136.381 171.622 138.515 168.294 141.144 165.371C143.841 162.476 147.009 160.056 150.515 158.211C153.917 156.442 157.497 155.034 161.194 154.009C163.012 153.492 164.834 153.05 166.663 152.66C168.497 152.274 170.375 151.933 172.315 151.722C174.298 151.489 176.297 151.43 178.291 151.546C180.382 151.669 182.448 152.058 184.44 152.704C185.096 152.917 185.67 153.327 186.084 153.877C186.498 154.427 186.731 155.091 186.752 155.778C186.772 156.464 186.58 157.141 186.2 157.715C185.82 158.289 185.272 158.732 184.63 158.984L184.558 159.012C181.422 160.174 178.106 160.781 174.76 160.806C171.21 160.828 167.664 160.547 164.162 159.967C160.69 159.487 157.252 158.786 153.87 157.868C152.122 157.386 150.405 156.798 148.729 156.108C147.003 155.41 145.337 154.573 143.749 153.603C142.12 152.613 140.591 151.469 139.184 150.185C137.784 148.895 136.517 147.468 135.401 145.927C133.279 142.949 131.556 139.708 130.276 136.286C127.76 129.712 126.206 122.812 125.661 115.798C125.597 114.923 125.542 114.047 125.512 113.17C125.492 112.732 125.478 112.294 125.473 111.855C125.466 111.413 125.45 111.004 125.459 110.466C125.459 109.284 125.634 108.109 125.98 106.979C126.216 106.232 126.57 105.527 127.027 104.889C127.574 104.136 128.28 103.511 129.096 103.06L129.131 103.041C129.53 102.824 129.968 102.688 130.42 102.64C130.873 102.592 131.33 102.633 131.766 102.76C132.203 102.888 132.61 103.1 132.964 103.385C133.318 103.669 133.612 104.02 133.83 104.418C134.063 104.848 134.204 105.323 134.243 105.811C135.265 119.786 131.642 133.708 123.932 145.431C122.137 148.154 120.01 150.646 117.598 152.847C116.363 153.959 115.04 154.969 113.642 155.869C112.239 156.773 110.754 157.545 109.206 158.175C106.752 159.212 104.095 159.685 101.432 159.556C99.7251 159.493 98.0583 159.023 96.5724 158.184C94.9739 157.17 95.2905 156.471 96.6826 156.145C97.3904 155.941 98.3794 155.815 99.6216 155.579C101.123 155.301 102.604 154.925 104.056 154.455C106.286 153.705 108.393 152.635 110.313 151.28C112.31 149.856 114.134 148.206 115.749 146.363C118.081 143.669 120.082 140.708 121.712 137.543C123.401 134.366 124.773 131.032 125.808 127.588C127.892 120.699 128.639 113.477 128.006 106.31L132.125 108.512C132.126 108.514 132.132 108.522 132.126 108.513L132.11 108.491C132.113 108.495 132.116 108.499 132.119 108.504C132.128 108.514 132.136 108.522 132.131 108.516V108.525C132.108 108.558 132.088 108.594 132.073 108.632C131.965 108.884 131.896 109.151 131.867 109.423C131.812 109.85 131.791 110.28 131.802 110.711L131.863 112.341C131.976 114.557 132.212 116.764 132.535 118.956C133.197 123.333 134.306 127.632 135.843 131.786C136.904 134.736 138.289 137.561 139.972 140.208C140.776 141.453 141.677 142.633 142.667 143.737C143.143 144.268 143.646 144.775 144.174 145.257C144.44 145.491 144.688 145.743 144.961 145.969L145.781 146.645C148.236 148.518 150.988 149.971 153.924 150.944C157.029 151.99 160.217 152.774 163.453 153.289C166.697 153.889 169.978 154.264 173.274 154.41C176.335 154.558 179.396 154.116 182.289 153.109L182.393 158.687C179.529 157.718 176.294 157.559 172.972 157.892C171.31 158.048 169.622 158.322 167.918 158.649C166.211 158.981 164.515 159.354 162.848 159.784C159.277 160.66 155.831 161.981 152.593 163.717C149.446 165.399 146.654 167.669 144.37 170.403C142.108 173.211 140.32 176.368 139.078 179.749C137.798 183.211 136.904 186.802 136.413 190.459C135.587 196.218 135.499 202.166 135.422 208.195L130.534 207.395C133.79 197.838 132.654 186.823 127.781 177.863C127.462 177.311 127.18 176.736 126.833 176.201L125.791 174.597C125.436 174.067 125.03 173.575 124.653 173.061C124.458 172.809 124.278 172.544 124.071 172.303L123.441 171.584C122.607 170.62 121.724 169.699 120.797 168.824C119.823 167.997 118.88 167.13 117.826 166.398C117.32 166.003 116.795 165.634 116.251 165.293C115.708 164.952 115.177 164.589 114.623 164.263L112.933 163.332C112.373 163.014 111.771 162.775 111.193 162.492C108.849 161.406 106.397 160.565 103.878 159.984C97.8755 158.581 91.6423 158.46 85.5894 159.63L85.5261 157.238C89.1508 158.336 92.9553 158.72 96.7274 158.37C98.8685 158.169 99.9554 158.111 99.9464 158.57C99.9321 158.773 99.6492 159.124 99.0396 159.524C98.6697 159.766 98.2826 159.981 97.8814 160.168C97.647 160.281 97.3913 160.396 97.1119 160.503C96.9724 160.557 96.8288 160.618 96.6774 160.667C96.5247 160.711 96.3669 160.755 96.204 160.797C92.4208 161.787 88.4686 161.957 84.6138 161.297C83.9757 161.185 83.3935 160.865 82.9598 160.386C82.5261 159.907 82.2658 159.297 82.2205 158.653C82.1752 158.01 82.3473 157.37 82.7096 156.836C83.0718 156.301 83.6034 155.902 84.2195 155.703L84.4639 155.625C88.2935 154.41 92.2894 153.793 96.3089 153.798C99.6095 153.788 102.897 154.207 106.089 155.043C109.303 155.871 112.417 157.045 115.376 158.545C115.407 158.523 115.437 158.504 115.473 158.484Z" fill="#5AB2FF"/>
</svg>
