<svg width="263" height="263" viewBox="0 0 263 263" fill="none" xmlns="http://www.w3.org/2000/svg">
<path d="M126.464 124.452C126.945 124.598 127.463 124.559 127.916 124.34C128.369 124.121 128.723 123.74 128.907 123.272C129.091 122.804 129.092 122.284 128.91 121.815C128.728 121.346 128.375 120.964 127.923 120.743C127.516 120.583 127.077 120.524 126.642 120.569C126.207 120.615 125.79 120.765 125.425 121.006C125.148 121.261 124.949 121.588 124.85 121.95C124.751 122.312 124.756 122.695 124.864 123.055C124.972 123.414 125.18 123.736 125.463 123.983C125.746 124.23 126.093 124.393 126.464 124.452ZM125.714 122.427C125.714 121.322 127.91 121.19 128.121 122.427C128.528 124.149 125.648 124.044 125.714 122.427ZM124.925 40.2916C122.9 42.6718 123.387 45.7357 126.569 47.2348C127.289 47.0492 128.024 46.926 128.765 46.8666C129.61 46.9221 130.449 47.0408 131.277 47.2217C132.154 46.6944 132.836 45.8963 133.22 44.9475C133.605 43.9988 133.67 42.9509 133.407 41.9617C133.162 41.1014 132.684 40.3256 132.026 39.7199C131.368 39.1142 130.555 38.7022 129.677 38.5294C128.8 38.3566 127.892 38.4297 127.053 38.7407C126.214 39.0517 125.478 39.5884 124.925 40.2916ZM124.189 63.12C124.173 63.0425 124.131 62.9726 124.07 62.9225C124.009 62.8723 123.932 62.8449 123.853 62.8449C123.774 62.8449 123.698 62.8723 123.636 62.9225C123.575 62.9726 123.533 63.0425 123.518 63.12C123.42 63.8527 123.363 64.5902 123.347 65.3292C123.382 65.4345 123.449 65.5261 123.538 65.5911C123.628 65.656 123.736 65.691 123.847 65.691C123.958 65.691 124.066 65.656 124.155 65.5911C124.245 65.5261 124.312 65.4345 124.347 65.3292C124.412 65.1057 124.189 63.3436 124.189 63.12ZM134.564 63.3567C134.549 63.2792 134.507 63.2093 134.446 63.1592C134.384 63.109 134.308 63.0816 134.229 63.0816C134.15 63.0816 134.073 63.109 134.012 63.1592C133.951 63.2093 133.909 63.2792 133.893 63.3567C133.893 63.5408 133.67 65.3161 133.736 65.5659C133.77 65.6712 133.837 65.7628 133.927 65.8278C134.017 65.8927 134.125 65.9277 134.235 65.9277C134.346 65.9277 134.454 65.8927 134.544 65.8278C134.633 65.7628 134.7 65.6712 134.735 65.5659C134.801 65.3161 134.564 63.554 134.564 63.3567ZM124.281 58.7937C122.703 58.6622 121.98 61.1081 121.953 61.2133C121.931 61.2883 121.939 61.3692 121.976 61.4382C122.013 61.5073 122.075 61.5588 122.15 61.5815C122.225 61.6042 122.306 61.5961 122.375 61.5591C122.444 61.5221 122.496 61.4592 122.519 61.3842C122.598 61.187 123.439 59.7536 124.425 59.8062C124.925 59.8457 125.175 58.8594 124.281 58.7937ZM134.959 61.5683C134.934 61.1049 134.769 60.6601 134.484 60.2934C134.2 59.9267 133.81 59.6558 133.367 59.5169C133.235 59.4821 133.094 59.5013 132.976 59.5703C132.857 59.6394 132.771 59.7526 132.736 59.8851C132.701 60.0177 132.721 60.1586 132.79 60.277C132.859 60.3954 132.972 60.4815 133.104 60.5163C133.428 60.6312 133.717 60.8249 133.947 61.0797C134.176 61.3346 134.339 61.6426 134.419 61.976C134.44 62.0475 134.489 62.1077 134.554 62.1435C134.62 62.1793 134.696 62.1876 134.768 62.1667C134.839 62.1457 134.9 62.0973 134.935 62.0319C134.971 61.9666 134.979 61.8897 134.959 61.8182C134.959 61.8182 134.985 61.6735 134.959 61.5683ZM128.87 68.551C128.923 68.5337 128.969 68.5002 129.001 68.4554C129.034 68.4105 129.051 68.3565 129.051 68.3011C129.051 68.2457 129.034 68.1918 129.001 68.1469C128.969 68.102 128.923 68.0686 128.87 68.0513C128.265 67.9329 127.555 67.8935 127.555 67.3017C127.625 66.5635 127.739 65.8301 127.897 65.1057C127.904 65.0403 127.888 64.9745 127.851 64.9201C127.814 64.8656 127.759 64.8261 127.696 64.8087C127.632 64.7912 127.565 64.797 127.505 64.8249C127.446 64.8529 127.398 64.9011 127.371 64.961C127.044 65.8089 126.815 66.6913 126.687 67.591C126.714 68.38 127.555 68.9718 128.87 68.551ZM130.514 70.2736C130.224 70.5869 129.869 70.832 129.473 70.9912C129.078 71.1504 128.652 71.2197 128.226 71.1941C127.934 71.1452 127.656 71.0357 127.409 70.8726C127.162 70.7096 126.952 70.4965 126.792 70.2473C126.756 70.1793 126.694 70.1287 126.62 70.1065C126.546 70.0843 126.466 70.0924 126.398 70.129C126.33 70.1656 126.279 70.2277 126.257 70.3017C126.235 70.3757 126.243 70.4555 126.28 70.5235C126.49 70.9794 126.819 71.3701 127.233 71.6542C127.647 71.9383 128.13 72.1054 128.631 72.1377C129.133 72.17 129.633 72.0664 130.08 71.8379C130.527 71.6093 130.904 71.2642 131.171 70.8391C131.342 70.4051 130.869 69.958 130.514 70.2736ZM130.369 148.411C130.402 148.434 130.441 148.446 130.481 148.446C130.521 148.446 130.56 148.434 130.593 148.411C132 147.53 142.586 139.114 143.453 138.364C143.482 138.338 143.503 138.303 143.512 138.264C143.52 138.226 143.518 138.186 143.503 138.149C143.489 138.112 143.464 138.08 143.432 138.058C143.4 138.035 143.361 138.023 143.322 138.022C143.322 138.022 121.624 137.602 117.798 137.47C117.574 137.47 117.535 137.707 117.653 137.812C118.35 138.496 126.753 145.636 130.369 148.411ZM176.079 249.705C177.065 247.693 175.224 244.314 174.395 242.946C174.379 242.913 174.354 242.885 174.323 242.865C174.291 242.845 174.255 242.835 174.218 242.835C174.181 242.835 174.145 242.845 174.113 242.865C174.082 242.885 174.057 242.913 174.04 242.946C173.37 244.261 171.963 247.707 173.304 249.692C174.211 251.165 175.368 251.27 176.079 249.705ZM95.9951 235.569C95.8636 235.648 86.2378 241.184 85.8696 241.75C85.5014 242.315 85.5146 242.736 86.0143 242.775C89.9593 243.025 91.4715 243.354 91.6293 243.538C91.8792 244.419 92.1553 247.996 92.6813 248.706C92.7374 248.794 92.8175 248.863 92.9121 248.906C93.0068 248.949 93.1118 248.964 93.2147 248.949C93.3175 248.933 93.4137 248.889 93.4917 248.82C93.5698 248.751 93.6263 248.661 93.6544 248.561C94.2067 246.484 95.9425 240.014 96.2844 238.949C96.6263 237.884 97.2049 235.135 95.9951 235.569ZM95.811 236.805C95.6795 237.673 95.0483 240.185 93.181 246.602C93.0266 245.263 92.7448 243.942 92.3394 242.657C90.7657 242.186 89.1408 241.908 87.5002 241.829C90.2091 240.145 93.0495 238.528 95.7716 236.805H95.811ZM102.794 241C102.902 240.99 103.003 240.943 103.081 240.867C103.158 240.791 103.207 240.69 103.22 240.583C103.232 240.475 103.207 240.366 103.148 240.274C103.09 240.183 103.002 240.114 102.899 240.08C102.412 239.938 101.906 239.875 101.4 239.895V237.989C101.4 237.898 101.364 237.811 101.3 237.747C101.235 237.683 101.149 237.647 101.058 237.647C100.967 237.647 100.88 237.683 100.816 237.747C100.752 237.811 100.716 237.898 100.716 237.989C100.716 238.673 100.598 239.304 100.545 239.948C99.927 239.948 99.3089 240.066 98.6646 240.159C98.0202 240.251 98.2964 240.987 98.7698 240.947C99.326 240.915 99.8836 240.915 100.44 240.947C100.44 241.526 100.321 242.144 100.295 242.736C100.316 242.873 100.385 242.998 100.49 243.088C100.595 243.178 100.729 243.228 100.867 243.228C101.006 243.228 101.139 243.178 101.244 243.088C101.349 242.998 101.418 242.873 101.439 242.736V240.987C101.89 241.02 102.342 241.025 102.794 241ZM134.472 233.807C134.359 233.476 134.15 233.186 133.871 232.975C133.592 232.764 133.256 232.642 132.907 232.624C131.697 232.624 130.566 234.109 129.607 235.49H129.514C128.581 234.833 128.292 234.833 127.424 235.753C126.266 237.003 126.753 237.226 128.252 238.383C127.24 239.79 124.688 243.42 124.307 244.077C123.926 244.735 122.808 246.589 124.044 247.615C124.298 247.796 124.605 247.888 124.917 247.876C125.228 247.864 125.528 247.749 125.767 247.549C127.677 245.233 129.434 242.795 131.027 240.251C132.342 241.04 132.447 241.197 133.473 240.356C133.621 240.258 133.746 240.129 133.837 239.976C133.928 239.823 133.984 239.652 133.999 239.475C133.999 238.83 133.223 238.383 132.684 237.949C133.144 237.279 133.552 236.634 133.92 235.964C134.164 235.666 134.34 235.319 134.435 234.947C134.531 234.574 134.543 234.185 134.472 233.807ZM130.317 235.977C130.752 235.388 131.217 234.822 131.711 234.28C132.355 233.584 132.828 233.413 133.262 233.715C133.999 234.202 133.591 234.636 132.079 237.384L130.317 235.977ZM124.728 246.944C123.978 246.773 124.465 245.629 124.82 244.945C125.175 244.261 127.844 240.395 128.87 238.83C129.278 239.12 129.962 239.567 130.29 239.764C129.396 241.289 126.858 245.024 126.345 245.603C125.832 246.181 125.359 247.089 124.728 246.944ZM128.476 235.793L128.686 235.872C128.896 235.951 133.183 239.448 133.183 239.527C132.992 239.811 132.741 240.049 132.447 240.224C131.947 239.83 128.844 237.726 127.687 236.818C127.928 236.46 128.191 236.118 128.476 235.793ZM157.485 242.355C157.485 242.355 163.455 248.759 163.981 248.93C164.862 249.166 169.622 243.67 170.253 242.933C170.871 243.459 171.187 243.551 171.884 242.854C172.315 242.403 172.674 241.889 172.949 241.329C172.995 241.242 173.012 241.143 172.998 241.046C172.984 240.949 172.939 240.859 172.87 240.79C166.177 234.004 164.98 232.742 164.704 232.637C163.836 232.269 163.389 233.334 162.876 233.715C162.166 234.399 161.785 234.609 162.955 235.924C157.616 241.71 157.195 241.671 157.485 242.355ZM163.113 234.635C163.463 234.231 163.855 233.865 164.283 233.544C164.283 233.544 168.228 237.489 171.963 241.171C171.724 241.616 171.432 242.031 171.095 242.407C170.95 242.262 163.323 234.859 163.06 234.635H163.113ZM169.688 242.328C163.954 248.404 164.533 248.167 163.928 247.588C163.573 247.286 159.168 242.749 158.497 241.973C158.97 241.447 163.336 236.713 163.626 236.45C163.56 236.503 168.741 241.513 169.635 242.328H169.688Z" fill="#1D1B20"/>
<path d="M162.744 239.554C161.429 240.948 160.404 241.355 160.548 242.105C161.191 243.056 161.931 243.938 162.758 244.735C162.808 244.776 162.871 244.799 162.936 244.8C163.001 244.801 163.064 244.78 163.116 244.74C163.168 244.701 163.205 244.645 163.221 244.582C163.237 244.519 163.231 244.452 163.205 244.393C163.205 244.393 162.166 242.618 161.719 242.026C161.824 241.894 162.942 240.395 163.244 240.053C163.31 239.987 163.348 239.897 163.348 239.804C163.348 239.71 163.31 239.62 163.244 239.554C163.178 239.487 163.088 239.45 162.994 239.45C162.901 239.45 162.811 239.487 162.744 239.554Z" fill="#1D1B20"/>
<path d="M182.154 255.689L149.91 255.478C149.91 253.23 149.187 234.557 149.134 232.965C149.134 232.479 148.358 232.479 148.385 232.965C148.385 234.28 148.858 254.242 148.924 255.465H113.826C113.826 253.335 113.485 236.621 113.458 235.477C113.458 235.383 113.421 235.293 113.354 235.226C113.288 235.159 113.197 235.122 113.103 235.122C113.009 235.122 112.919 235.159 112.852 235.226C112.786 235.293 112.748 235.383 112.748 235.477V255.465C110.013 255.465 81.1882 255.465 77.2432 255.754C77.1591 255.77 77.0832 255.815 77.0287 255.881C76.9741 255.947 76.9443 256.03 76.9443 256.116C76.9443 256.202 76.9741 256.285 77.0287 256.351C77.0832 256.417 77.1591 256.461 77.2432 256.478C80.7543 256.635 178.998 256.819 182.22 256.07C182.262 256.054 182.298 256.023 182.32 255.983C182.343 255.944 182.351 255.897 182.343 255.852C182.336 255.807 182.312 255.766 182.278 255.736C182.243 255.707 182.2 255.69 182.154 255.689ZM87.5791 18.41C87.8815 18.936 90.9586 19.1069 91.2348 19.0017C91.4163 18.938 91.5729 18.8183 91.6819 18.6598C92.725 19.5298 93.8183 20.3378 94.9562 21.0794C95.1186 21.2106 95.3066 21.3064 95.5081 21.3608C95.7096 21.4151 95.9203 21.4268 96.1266 21.395C96.6789 21.2372 107.054 15.0567 107.212 14.9515C107.896 14.5307 107.909 14.1099 107.817 13.8338C107.62 13.2946 97.0208 8.32392 95.3244 6.46977C95.2753 6.43418 95.2196 6.40867 95.1606 6.3947C95.1015 6.38072 95.0403 6.37856 94.9804 6.38834C94.9205 6.39812 94.8631 6.41964 94.8116 6.45167C94.7601 6.4837 94.7154 6.5256 94.6801 6.57497C93.3651 8.08722 92.1947 9.63892 90.9981 11.1775C89.7932 11.1403 88.5891 11.2731 87.4213 11.572C87.2924 13.8519 87.3452 16.1384 87.5791 18.41ZM96.6132 14.465C96.479 14.8322 96.224 15.1429 95.8899 15.346C95.2324 15.5696 94.5749 14.9515 94.3513 14.6754C93.6281 13.8338 95.2718 12.0454 96.3633 13.4524C96.4996 13.5948 96.5949 13.7715 96.6388 13.9637C96.6828 14.1558 96.674 14.3563 96.6132 14.5439V14.465ZM95.6663 12.0322C95.2728 11.9631 94.8678 12.0046 94.4965 12.1522C94.1251 12.2999 93.8021 12.5477 93.5635 12.8682C93.3248 13.1887 93.1799 13.5692 93.1449 13.9672C93.1098 14.3653 93.1861 14.7652 93.3651 15.1225C93.6335 15.5641 94.0261 15.9169 94.4939 16.1367C94.9616 16.3566 95.4838 16.4337 95.9951 16.3586C96.3482 16.2298 96.662 16.012 96.9062 15.7263C97.1504 15.4406 97.3167 15.0968 97.389 14.728C98.8355 14.728 103.806 14.728 105.792 14.6359L95.9951 20.343C95.4428 20.1063 92.2079 17.713 91.8134 17.3974C91.8134 16.6742 91.8134 12.3478 91.7213 11.6509C92.8259 10.3359 93.9568 8.92882 95.0351 7.52177C96.6394 8.83677 104.043 12.7818 106.213 13.9258H97.4284C97.3712 13.4732 97.1684 13.0514 96.8505 12.7241C96.5327 12.3968 96.1171 12.1816 95.6663 12.1111V12.0322ZM88.3023 12.2689L90.7351 12.1769C90.7351 12.5845 90.8929 17.4369 90.8271 18.1207C89.9969 18.1754 89.1631 18.1357 88.3418 18.0023C88.4207 17.095 88.3549 13.3735 88.3023 12.3478V12.2689ZM47.1297 81.3985C47.2676 81.4781 47.4241 81.52 47.5834 81.52C47.7426 81.52 47.8991 81.4781 48.037 81.3985C49.0759 80.8856 51.1405 79.0841 57.1632 75.0996C57.3399 75.0036 57.4923 74.8683 57.6085 74.7042C57.7248 74.54 57.8019 74.3514 57.8338 74.1528C57.8338 74.1528 58.0573 68.5378 57.7417 68.3537C56.7292 67.7225 53.7968 65.7237 52.9551 65.8552C52.8499 65.8552 41.7513 72.7721 41.725 73.1008C41.6151 74.5359 41.5932 75.9763 41.6593 77.414C43.394 78.86 45.2213 80.191 47.1297 81.3985ZM42.4614 74.0082C43.474 74.692 46.3012 76.6382 47.0771 77.0327V80.0309C42.159 76.7434 42.4746 77.2957 42.5141 76.3226C42.5272 75.7834 42.4877 74.521 42.4614 74.0082ZM47.6162 75.9412C47.5325 76.0032 47.4311 76.0366 47.327 76.0366C47.2228 76.0366 47.1214 76.0032 47.0376 75.9412C46.8272 75.8097 43.8816 73.7057 43.0926 73.1403C53.4285 66.5653 53.0603 66.4864 53.6126 66.6836C53.8756 66.7888 55.1117 67.5778 56.7818 68.6824C54.8093 70.3656 47.8135 75.8097 47.6162 75.9412ZM56.8212 74.1923C56.5451 74.4553 49.4309 79.1761 47.8529 80.2018V76.9143C48.7866 76.2042 54.9539 71.365 56.8738 69.7213C56.9264 74.0608 57.0053 74.0608 56.887 74.1923H56.8212ZM192.884 82.2006C195.34 82.1433 197.729 81.391 199.775 80.0309C200.795 79.388 201.564 78.414 201.952 77.2721C202.339 76.1301 202.323 74.8896 201.905 73.7583C202.773 73.1008 205.548 70.747 206.087 70.2341C207.205 70.2999 208.507 68.3142 209.203 67.2359C209.493 66.7888 209.874 66.3286 209.677 65.8157C207.902 63.9368 206.023 62.1588 204.049 60.49C203.917 60.3504 203.745 60.2542 203.557 60.2143C203.37 60.1744 203.174 60.1926 202.997 60.2664C201.687 61.5361 200.507 62.9325 199.472 64.435C199.427 64.6297 199.45 64.834 199.538 65.0136C199.538 65.1056 197.71 70.4051 197.487 71.0494C196.503 71.1488 195.589 71.6048 194.918 72.3316C194.247 73.0583 193.865 74.0055 193.844 74.9944C193.686 78.8342 196.724 80.0703 192.766 81.4905C192.711 81.5377 192.669 81.5982 192.645 81.6662C192.62 81.7343 192.613 81.8075 192.625 81.8789C192.637 81.9503 192.667 82.0174 192.712 82.0738C192.758 82.1301 192.817 82.1738 192.884 82.2006ZM200.485 64.6717C201.34 63.4166 202.347 62.2726 203.483 61.2658C204.193 61.8313 208.296 65.6185 208.743 66.2365C208.414 66.802 206.573 69.1953 206.113 69.2479C206.074 69.2084 200.656 64.8295 200.485 64.6717ZM201.432 72.9036C200.761 71.921 199.732 71.241 198.565 71.01C198.828 70.1289 199.788 66.9072 200.117 65.6053C201.116 66.4601 203.588 68.5378 205.101 69.7344C204.509 70.3262 202.273 72.2329 201.432 72.9036ZM194.988 81.1618C196.014 80.2281 195.764 79.0052 195.291 77.8348C194.449 75.2048 194.699 73.5085 196.106 72.5748C196.469 72.3445 196.875 72.1889 197.299 72.1171C197.723 72.0453 198.157 72.0587 198.576 72.1567C198.994 72.2546 199.389 72.4351 199.738 72.6875C200.086 72.94 200.38 73.2593 200.603 73.6268C202.681 76.9012 198.789 80.4122 194.988 81.1618ZM110.671 14.465C111.21 14.465 114.366 14.0573 117.246 13.7549C117.347 13.7549 117.444 13.7147 117.515 13.6432C117.587 13.5717 117.627 13.4747 117.627 13.3735C117.627 13.2724 117.587 13.1754 117.515 13.1039C117.444 13.0323 117.347 12.9922 117.246 12.9922C116.167 13.0974 111.104 13.3998 110.552 13.5182C110.445 13.5537 110.354 13.6252 110.294 13.7203C110.234 13.8155 110.209 13.9285 110.223 14.0401C110.237 14.1517 110.289 14.255 110.371 14.3324C110.452 14.4099 110.558 14.4567 110.671 14.465ZM120.98 13.6234C121.335 13.6234 128.318 13.0448 129.856 13.1237C130.369 13.1237 130.409 12.3741 129.856 12.3347C126.851 12.1881 123.838 12.2849 120.849 12.624C120.735 12.6612 120.638 12.737 120.574 12.8382C120.511 12.9394 120.484 13.0597 120.5 13.1782C120.515 13.2967 120.572 13.4061 120.66 13.4874C120.747 13.5687 120.861 13.6168 120.98 13.6234ZM133.815 12.8738L139.482 12.716C139.576 12.6989 139.661 12.6494 139.722 12.5761C139.783 12.5028 139.817 12.4104 139.817 12.3149C139.817 12.2195 139.783 12.127 139.722 12.0537C139.661 11.9804 139.576 11.9309 139.482 11.9139L133.841 11.7561C133.707 11.7732 133.583 11.8379 133.493 11.9384C133.402 12.0388 133.35 12.1684 133.347 12.3036C133.344 12.4388 133.39 12.5707 133.475 12.6753C133.561 12.7799 133.681 12.8504 133.815 12.8738ZM143.993 13.0579C146.412 13.0579 155.144 13.4656 157.274 13.8338C157.8 13.939 157.984 13.1237 157.458 13.0316C152.997 12.3532 148.492 12.0104 143.979 12.0059C143.84 12.0077 143.707 12.0647 143.609 12.1646C143.512 12.2645 143.458 12.399 143.46 12.5385C143.462 12.678 143.519 12.8111 143.619 12.9085C143.719 13.0059 143.853 13.0597 143.993 13.0579ZM161.522 15.3329C165.003 16.3625 168.22 18.1346 170.95 20.5271C171.371 20.9085 171.963 20.2904 171.555 19.9091C168.797 17.2668 165.44 15.3312 161.771 14.2677C161.639 14.2555 161.506 14.2916 161.398 14.3695C161.29 14.4474 161.213 14.5618 161.183 14.6915C161.152 14.8213 161.17 14.9577 161.232 15.0756C161.294 15.1935 161.397 15.2848 161.522 15.3329ZM173.186 32.875C173.077 32.9016 172.981 32.9671 172.917 33.0592C172.853 33.1513 172.825 33.2636 172.838 33.3751C172.851 33.4866 172.904 33.5894 172.987 33.6644C173.071 33.7394 173.179 33.7814 173.291 33.7823C175.027 33.7823 177.065 31.7572 177.236 28.9563C177.407 26.1553 175.487 23.9067 173.646 22.0262C173.567 21.946 173.46 21.9002 173.348 21.899C173.236 21.8978 173.128 21.9412 173.048 22.0196C172.967 22.0981 172.922 22.2052 172.92 22.3174C172.919 22.4296 172.962 22.5378 173.041 22.618C175.119 24.7746 176.131 26.7471 176.144 28.667C176.179 29.5954 175.909 30.5098 175.374 31.2698C174.84 32.0299 174.071 32.5937 173.186 32.875ZM158.839 37.1487C160.154 37.1487 168.82 35.1631 170.253 34.8212C170.354 34.7881 170.438 34.7184 170.489 34.626C170.54 34.5336 170.555 34.4253 170.53 34.3226C170.505 34.2199 170.443 34.1303 170.355 34.0716C170.267 34.0129 170.16 33.9894 170.056 34.0059C168.097 34.453 161.18 35.6628 158.747 36.0836C158.619 36.1117 158.506 36.1853 158.428 36.2908C158.351 36.3962 158.314 36.5262 158.326 36.6565C158.337 36.7869 158.395 36.9087 158.49 36.9992C158.584 37.0898 158.708 37.1429 158.839 37.1487ZM155.275 36.2808C152.474 36.5833 149.542 36.8463 146.715 37.2671C146.596 37.3027 146.493 37.3781 146.423 37.4808C146.354 37.5834 146.321 37.707 146.332 37.8306C146.343 37.9541 146.396 38.0702 146.483 38.1592C146.569 38.2482 146.683 38.3047 146.807 38.3191C147.609 38.3191 154.026 37.4775 155.315 37.3197C155.985 37.2276 155.946 36.1888 155.275 36.2808ZM135.445 39.6472C136.208 39.6472 141.468 38.7925 142.691 38.6215C142.793 38.5957 142.883 38.5333 142.943 38.446C143.002 38.3588 143.028 38.2527 143.015 38.1477C143.003 38.0427 142.952 37.9461 142.873 37.8759C142.793 37.8058 142.691 37.767 142.586 37.7668C140.981 37.9509 136.918 38.3059 135.34 38.5821C135.211 38.6108 135.098 38.6856 135.021 38.7923C134.944 38.8989 134.908 39.0302 134.921 39.1612C134.934 39.2922 134.994 39.414 135.091 39.5035C135.188 39.5931 135.313 39.6442 135.445 39.6472ZM113.498 41.5408C116.312 41.5408 119.192 41.0411 121.979 40.7781C122.558 40.7781 122.558 39.8182 121.979 39.8708C119.179 40.0943 116.246 40.2127 113.419 40.6072C112.853 40.6729 112.919 41.5408 113.498 41.5408ZM99.6376 42.7506C99.5222 42.778 99.4207 42.8466 99.3523 42.9435C99.2838 43.0405 99.2532 43.1591 99.2661 43.2771C99.2791 43.395 99.3347 43.5042 99.4225 43.584C99.5103 43.6639 99.6242 43.7089 99.7428 43.7106C100.637 43.7106 107.856 42.6454 108.948 42.5008C109.063 42.4737 109.163 42.4047 109.23 42.3072C109.297 42.2097 109.325 42.0909 109.308 41.9739C109.292 41.857 109.232 41.7504 109.141 41.6752C109.05 41.5999 108.934 41.5614 108.816 41.5671C107.094 41.7775 101.097 42.4482 99.6376 42.7506ZM79.6102 46.5115C84.7135 45.4406 89.8716 44.6504 95.0615 44.1445C95.7453 44.1445 95.7189 43.0268 95.0615 43.0925C89.8068 43.4056 84.5937 44.2157 79.4919 45.5121C79.3788 45.5486 79.2819 45.6233 79.2177 45.7233C79.1536 45.8233 79.1261 45.9425 79.1401 46.0605C79.1541 46.1785 79.2086 46.288 79.2943 46.3702C79.3801 46.4525 79.4917 46.5024 79.6102 46.5115ZM62.0155 53.2969C65.5222 51.1959 69.3523 49.6896 73.3508 48.8391C74.0477 48.6944 73.7716 47.6424 73.0878 47.7871C68.9702 48.6046 65.0244 50.126 61.4237 52.2844C61.3109 52.3726 61.2339 52.4986 61.207 52.6393C61.1801 52.7799 61.2051 52.9255 61.2773 53.0491C61.3496 53.1728 61.4642 53.266 61.5999 53.3116C61.7356 53.3571 61.8833 53.3519 62.0155 53.2969ZM50.9037 63.8695C52.3552 59.9604 55.1526 56.6967 58.7937 54.6645C59.2803 54.4015 58.8726 53.6783 58.3729 53.9281C54.4085 55.8988 51.3632 59.3306 49.878 63.5013C49.6282 64.2377 50.6539 64.527 50.9037 63.8695ZM53.7704 79.5969C53.3759 79.1498 52.7447 79.7679 53.1129 80.2018C54.0334 81.267 58.8858 85.0016 59.872 85.0016C59.9755 85.0007 60.0759 84.966 60.1577 84.9026C60.2396 84.8393 60.2984 84.751 60.3253 84.651C60.3521 84.5511 60.3455 84.4451 60.3064 84.3493C60.2673 84.2535 60.1979 84.1731 60.1087 84.1205C57.8782 82.7849 55.7586 81.2722 53.7704 79.5969ZM72.1016 88.0261C69.1333 87.7327 66.228 86.9831 63.4883 85.8037C62.8834 85.5407 62.3837 86.4349 63.0017 86.7242C65.8488 88.0729 68.9204 88.8843 72.0621 89.1175C72.7853 89.157 72.7854 88.105 72.1016 88.0261ZM74.9551 89.8276C76.4805 90.0512 82.7004 91.0637 84.2784 91.1426C84.4091 91.1465 84.5366 91.1016 84.636 91.0166C84.7354 90.9316 84.7995 90.8126 84.8159 90.6829C84.8324 90.5532 84.7999 90.422 84.7248 90.3149C84.6497 90.2078 84.5375 90.1326 84.41 90.1038C82.8977 89.7882 76.7303 89.0518 75.2049 88.7888C74.5869 88.7756 74.3371 89.7224 74.9551 89.8276ZM95.2193 91.4319C92.6682 91.6584 90.0973 91.4449 87.6185 90.8007C87.5154 90.789 87.4115 90.8147 87.3256 90.873C87.2398 90.9314 87.1777 91.0186 87.1507 91.1188C87.1236 91.2191 87.1334 91.3257 87.1782 91.4193C87.2231 91.5129 87.3 91.5874 87.395 91.6292C89.9542 92.3749 92.6281 92.6467 95.285 92.4313C95.8767 92.3656 95.8636 91.3925 95.2193 91.4319ZM182.614 84.9753C185.355 84.675 188.056 84.0888 190.675 83.2263C191.227 83.0422 190.991 82.1743 190.425 82.3453C187.871 83.0877 185.251 83.581 182.601 83.8181C181.838 83.897 181.851 85.041 182.614 84.9753ZM170.411 85.9747C170.305 86.0085 170.214 86.0777 170.153 86.1706C170.091 86.2635 170.064 86.3745 170.075 86.4852C170.085 86.596 170.134 86.6996 170.212 86.779C170.29 86.8584 170.393 86.9087 170.503 86.9215C171.463 86.9215 178.025 85.7643 179.143 85.6065C179.787 85.4881 179.537 84.5545 178.919 84.6465C175.526 85.1331 173.001 85.475 170.411 85.9747ZM167.005 86.3823C163.731 86.9609 160.43 87.3028 157.3 87.6053C156.617 87.6842 156.643 88.7362 157.3 88.6836C160.613 88.4168 163.909 87.9778 167.176 87.3686C167.241 87.3573 167.303 87.3335 167.358 87.2983C167.414 87.2632 167.462 87.2174 167.5 87.1637C167.538 87.11 167.564 87.0493 167.579 86.9852C167.593 86.9211 167.595 86.8547 167.584 86.79C167.572 86.7252 167.549 86.6633 167.513 86.6078C167.478 86.5522 167.433 86.5042 167.379 86.4663C167.325 86.4285 167.264 86.4016 167.2 86.3871C167.136 86.3727 167.07 86.3711 167.005 86.3823ZM70.9312 133.249C71.5098 133.249 71.5361 132.434 70.9312 132.355C68.2633 131.957 65.5513 131.957 62.8834 132.355C62.757 132.383 62.6459 132.457 62.5722 132.563C62.4985 132.67 62.4677 132.8 62.486 132.928C62.5043 133.056 62.5703 133.173 62.6708 133.254C62.7714 133.336 62.899 133.376 63.028 133.367C65.6537 133.093 68.2985 133.054 70.9312 133.249ZM187.69 132.552C187.581 132.586 187.487 132.657 187.423 132.752C187.36 132.848 187.332 132.962 187.342 133.076C187.353 133.19 187.403 133.296 187.483 133.378C187.563 133.46 187.668 133.512 187.782 133.525C187.914 133.525 194.844 133.328 196.514 133.525C196.961 133.591 197.105 132.907 196.658 132.841C193.682 132.494 190.682 132.397 187.69 132.552ZM184.1 133.591C184.205 133.591 184.305 133.549 184.379 133.475C184.453 133.401 184.495 133.301 184.495 133.196C184.495 133.092 184.453 132.991 184.379 132.917C184.305 132.843 184.205 132.802 184.1 132.802C182.162 132.676 180.216 132.813 178.314 133.209C177.749 133.328 177.906 134.156 178.446 134.156C180.3 133.738 182.199 133.548 184.1 133.591ZM214.029 149.91C213.924 150.436 214.687 150.765 214.911 150.252C216.041 147.701 216.607 143.795 215.187 141.047C214.911 140.521 214.122 140.968 214.385 141.494C215.976 144.65 214.45 147.872 214.029 149.91ZM55.2301 189.36C53.38 190.897 51.8325 192.766 50.667 194.87C50.6411 194.913 50.624 194.961 50.6166 195.011C50.6092 195.06 50.6117 195.111 50.6239 195.16C50.6485 195.259 50.7114 195.344 50.7985 195.396C50.8857 195.448 50.9901 195.464 51.0888 195.439C51.1874 195.414 51.2722 195.352 51.3245 195.264C52.5277 193.282 54.0674 191.524 55.8745 190.07C56.4005 189.689 55.7561 189.005 55.2301 189.36ZM64.0143 181.641C62.2125 182.989 60.4994 184.452 58.8858 186.02C58.8073 186.1 58.7639 186.208 58.7652 186.32C58.7664 186.433 58.8122 186.54 58.8924 186.618C58.9726 186.697 59.0807 186.74 59.1929 186.739C59.3051 186.738 59.4122 186.692 59.4907 186.612C60.2271 185.836 64.1853 182.746 64.5798 182.417C64.9743 182.088 64.5009 181.47 64.0143 181.641ZM67.9593 179.248C68.2355 179.248 67.4201 179.511 72.3251 176.276C72.4274 176.205 72.4997 176.099 72.5277 175.977C72.5557 175.856 72.5376 175.729 72.4767 175.62C72.4159 175.512 72.3168 175.43 72.1988 175.391C72.0807 175.351 71.9523 175.357 71.8386 175.408C70.3894 176.395 69.0057 177.476 67.6963 178.643C67.6521 178.695 67.6235 178.759 67.6136 178.827C67.6037 178.895 67.6129 178.964 67.6403 179.027C67.6676 179.09 67.712 179.144 67.7683 179.183C67.8247 179.222 67.8908 179.244 67.9593 179.248Z" fill="#1D1B20"/>
<path d="M74.6789 174.041C75.0208 174.185 74.7972 174.041 78.9395 171.41C78.6728 174.713 78.7212 178.033 79.0841 181.326C77.0324 180.211 75.0635 178.949 73.1929 177.552C72.8379 177.275 72.3645 177.775 72.7327 178.078C74.7762 179.829 76.9772 181.387 79.3077 182.733C81.0312 195.823 87.7098 207.754 97.9675 216.068C93.2598 217.172 90.2879 217.791 89.1307 217.909C88.631 217.909 88.631 218.724 89.1307 218.724C90.2748 218.724 97.5599 217.304 99.0984 216.988C117.982 232.019 142.809 230.546 160.903 216.699C164.526 217.657 168.207 218.377 171.923 218.856C172.038 218.847 172.147 218.799 172.231 218.719C172.314 218.639 172.368 218.533 172.382 218.418C172.396 218.303 172.369 218.187 172.307 218.089C172.245 217.992 172.151 217.919 172.041 217.883C170.411 217.606 165.835 216.739 161.89 215.923C171.783 208.088 178.376 196.826 180.365 184.363C180.865 184.048 181.352 183.706 181.825 183.351C182.298 182.996 181.825 182.167 181.312 182.496L180.563 182.956C182.167 168.991 177.249 155.078 168.557 144.624C171.029 141.902 172.752 138.68 171.739 135.103C172.985 134.723 174.255 134.425 175.539 134.209C176.118 134.13 175.908 133.275 175.355 133.354C174.023 133.525 172.705 133.788 171.41 134.143C170.45 131.762 168.8 129.722 166.673 128.283C164.546 126.845 162.038 126.074 159.47 126.069C161.571 123.861 163.112 121.182 163.965 118.256C164.819 115.33 164.959 112.242 164.375 109.25C161.942 98.0729 153.25 87.4477 142.309 81.333C142.577 79.8532 142.496 78.3313 142.073 76.8883C141.783 75.5733 140.915 75.1262 139.903 74.4687C139.377 74.1268 138.877 73.8112 138.325 73.4956C139.776 71.2378 140.535 68.6049 140.508 65.9212C143.467 65.6319 143.572 61.3187 140.324 60.6612C143.624 45.1705 114.97 42.5405 116.654 61.1609C116.07 61.3275 115.547 61.6595 115.148 62.1169C114.749 62.5743 114.491 63.1374 114.405 63.7383C114.327 64.1502 114.352 64.575 114.477 64.975C114.603 65.375 114.825 65.738 115.124 66.0318C115.423 66.3257 115.79 66.5413 116.192 66.6596C116.594 66.7779 117.019 66.7953 117.43 66.7102C117.309 68.4129 117.664 70.1157 118.455 71.6283C117.797 71.7795 117.185 72.0849 116.668 72.5193C116.151 72.9537 115.745 73.5047 115.483 74.1268C114.9 75.7864 114.787 77.5746 115.155 79.2947C104.7 84.0641 96.3417 92.4788 91.6424 102.965C87.9209 111.446 89.7356 117.653 96.3106 124.123C93.366 123.174 90.1837 123.271 87.3029 124.399C85.4961 125.176 83.8803 126.338 82.5677 127.802C81.2551 129.267 80.2773 131 79.7022 132.881C78.4372 132.679 77.1528 132.626 75.8755 132.723C75.7881 132.74 75.7092 132.786 75.6525 132.855C75.5957 132.923 75.5647 133.009 75.5647 133.098C75.5647 133.187 75.5957 133.273 75.6525 133.341C75.7092 133.41 75.7881 133.456 75.8755 133.473C77.0869 133.421 78.2988 133.563 79.4655 133.894C78.5581 139.43 83.2527 144.111 87.8157 147.399C82.9185 154.052 79.9025 161.901 79.0841 170.122C77.541 171.062 76.0527 172.09 74.6263 173.199C74.5512 173.243 74.4899 173.308 74.449 173.385C74.4082 173.462 74.3895 173.549 74.3949 173.636C74.4004 173.723 74.4298 173.807 74.4799 173.878C74.53 173.95 74.5988 174.006 74.6789 174.041ZM132.815 77.0592L133.367 76.8883C133.67 77.2039 134.485 77.914 134.985 78.3348C131.079 80.3862 126.24 80.2152 121.19 77.7562C121.756 77.2433 122.676 76.3097 123.018 75.9152C123.922 76.2615 124.844 76.5599 125.78 76.8094C126.164 77.3785 126.677 77.8487 127.277 78.1817C127.877 78.5147 128.548 78.701 129.234 78.7253C129.92 78.7497 130.602 78.6114 131.224 78.3219C131.847 78.0323 132.392 77.5997 132.815 77.0592ZM122.295 75.547C121.848 76.0467 120.849 77.1118 120.52 77.388C120.152 77.1864 119.783 76.976 119.415 76.7568C119.344 76.7132 119.258 76.6998 119.176 76.7195C119.095 76.7392 119.025 76.7905 118.981 76.862C118.938 76.9335 118.924 77.0194 118.944 77.1008C118.964 77.1821 119.015 77.2523 119.086 77.2959C122.282 79.3473 125.398 80.899 129.172 80.899C130.701 80.9715 132.227 80.7009 133.638 80.1071C135.049 79.5132 136.309 78.6111 137.325 77.4669C137.38 77.4111 137.409 77.3361 137.408 77.2584C137.407 77.1807 137.375 77.1067 137.319 77.0527C137.263 76.9986 137.188 76.9689 137.11 76.9702C137.033 76.9714 136.959 77.0034 136.905 77.0592C136.549 77.353 136.175 77.6253 135.787 77.8745C135.432 77.5721 134.617 76.9146 134.222 76.5595C135.56 76.0545 136.775 75.27 137.786 74.2583C139.101 74.816 140.28 75.6502 141.244 76.7042C141.727 78.1367 141.805 79.6751 141.468 81.1489C140.258 84.8835 130.474 88.5786 120.428 83.3318C116.89 81.5565 115.404 80.0969 116.036 75.6785C116.083 74.8974 116.383 74.1528 116.89 73.5573C117.398 72.9618 118.086 72.5478 118.85 72.3778C119.716 73.7049 120.9 74.7943 122.295 75.547ZM132.999 86.7902C135.143 86.5272 140.232 85.5541 142.033 82.2272C152.487 88.0132 163.389 100.953 163.639 112.748C163.729 115.341 163.211 117.919 162.126 120.275C161.041 122.632 159.42 124.701 157.392 126.319C155.532 126.661 153.75 127.339 152.132 128.318C153.29 110.447 153.329 111.525 153.198 111.394C153.066 111.262 151.067 111.249 147.806 111.17C148.214 110.657 149.305 109.211 149.555 108.922C149.616 108.857 149.649 108.771 149.646 108.682C149.644 108.593 149.606 108.509 149.542 108.448C149.477 108.387 149.391 108.354 149.302 108.357C149.214 108.359 149.129 108.397 149.068 108.461C148.238 109.383 147.36 110.261 146.438 111.091H146.162C146.498 107.103 146.586 103.098 146.425 99.0986C146.425 98.783 145.873 98.783 145.899 99.0986C146.031 100.979 145.15 109.408 145.045 111.026C135.248 110.828 118.915 110.657 109.053 110.565C107.844 106.477 107.333 102.213 107.541 97.9546C107.541 97.5075 106.91 97.5075 106.87 97.9546C106.445 102.191 106.797 106.469 107.909 110.579H107.633C106.315 109.261 105.064 107.879 103.885 106.436C103.837 106.371 103.767 106.325 103.687 106.308C103.607 106.291 103.524 106.305 103.454 106.345C103.384 106.386 103.331 106.452 103.306 106.529C103.281 106.607 103.286 106.691 103.32 106.765C103.464 107.041 105.042 109.395 106.081 110.631H100.979C100.598 110.631 100.716 110.631 100.69 110.934C100.558 112.42 101.031 120.625 101.4 126.464C100.607 125.969 99.7807 125.53 98.9275 125.149C92.1552 118.495 88.5521 113.314 92.2341 104.424C96.6298 93.7181 104.911 85.07 115.418 80.2152C116.89 83.3581 124.373 87.8159 132.999 86.7902ZM101.531 111.565C103.03 111.565 149.16 111.972 152.382 112.262C151.764 117.443 150.62 132.749 150.226 137.891H147.346C145.715 139.298 133.617 149.345 132.749 150.081C132.447 150.318 132.999 150.515 134.301 151.685C135.12 152.287 135.806 153.05 136.318 153.927C136.829 154.805 137.154 155.779 137.273 156.788C137.276 156.834 137.297 156.878 137.331 156.909C137.365 156.941 137.41 156.959 137.457 156.959C142.138 157.156 146.097 161.324 142.848 163.902C139.863 166.269 135.248 163.902 132.96 161.719C135.024 159.023 136.234 156.669 133.92 154.237C133.643 153.947 130.672 151.528 126.898 148.451C112.603 136.787 113.748 137.444 113.563 137.444C112.827 137.444 105.016 136.905 103.609 136.826C102.57 128.41 101.807 116.115 101.531 111.565ZM115.286 163.428C113.353 163.573 110.105 163.823 108.711 161.864C107.804 160.549 109.158 159.01 110.618 158.589C113.813 159.746 118.837 161.364 120.467 161.877C118.845 162.695 117.091 163.22 115.286 163.428ZM108.448 163.165C109.763 164.48 111.999 164.638 113.787 164.612C116.705 164.598 119.567 163.813 122.085 162.337C124.964 163.179 127.818 163.902 130.79 164.533C130.825 164.545 130.864 164.545 130.9 164.534C130.935 164.522 130.966 164.498 130.987 164.467C131.487 163.849 131.973 163.152 132.421 162.561C135.445 165.375 140.495 167.229 143.598 164.835C145.886 163.06 145.531 160.023 143.243 158.142C154.131 154.947 162.797 150.357 167.663 145.531C172.204 150.738 175.564 156.866 177.514 163.494C179.464 170.122 179.957 177.093 178.958 183.929C176.18 185.747 173.305 187.41 170.345 188.913C170.274 188.95 170.217 189.01 170.184 189.083C170.151 189.156 170.144 189.239 170.164 189.317C170.183 189.394 170.229 189.463 170.293 189.512C170.357 189.56 170.436 189.586 170.516 189.584C170.687 189.584 175.947 187.046 178.722 185.402C176.451 197.285 170.074 207.991 160.706 215.647C158.589 215.2 156.761 214.779 155.893 214.516C155.42 214.358 155.209 215.068 155.67 215.239C156.472 215.529 157.971 215.936 159.759 216.397C151.277 222.86 140.917 226.378 130.253 226.416C119.589 226.454 109.204 223.01 100.676 216.607C102.253 216.278 103.804 215.838 105.318 215.292C105.897 215.042 105.542 214.187 104.95 214.319L99.4798 215.634C89.4575 207.59 82.7416 196.142 80.6095 183.469L80.8725 183.587C81.4774 183.85 81.9508 183.022 81.3854 182.693L80.4123 182.128C78.6734 170.126 81.6006 157.913 88.5916 148.003C95.1402 152.193 102.158 155.6 109.5 158.155C107.422 159.207 106.725 161.469 108.448 163.165ZM139.824 65.5793C139.548 68.2093 139.153 70.8393 137.523 72.8644C136.629 73.9821 134.722 75.639 133.157 75.6785C132.118 75.6785 131.75 75.0736 131.079 74.3635C130.198 73.3378 129.764 72.7986 129.291 72.8775C128.239 73.009 128.423 74.9947 126.74 75.9809C126.227 76.2702 124.438 75.7574 123.071 75.0999C121.468 74.3048 120.146 73.0383 119.284 71.4705C118.421 69.9027 118.058 68.1086 118.245 66.3288C118.245 66.0132 117.785 65.816 117.6 65.908C117.315 66.0069 117.008 66.0311 116.711 65.9783C116.413 65.9256 116.133 65.7977 115.899 65.6067C115.665 65.4157 115.483 65.168 115.371 64.887C115.259 64.6061 115.221 64.3012 115.26 64.0013C115.759 61.3713 118.705 62.0288 119.481 63.5542C119.507 63.5927 119.545 63.6208 119.59 63.6336C119.635 63.6465 119.682 63.6432 119.725 63.6243C119.767 63.6055 119.801 63.5723 119.822 63.5306C119.842 63.4889 119.847 63.4414 119.836 63.3964C119.306 62.0139 119.24 60.4966 119.648 59.0734C120.056 57.6502 120.916 56.3982 122.098 55.5064C123.976 56.8107 126.208 57.5096 128.495 57.5096C130.782 57.5096 133.014 56.8107 134.893 55.5064C137.431 57.4789 137.523 61.5817 137.339 63.015C137.337 63.0497 137.343 63.0845 137.356 63.1164C137.37 63.1484 137.391 63.1767 137.418 63.1991C137.641 63.3701 138.009 62.923 138.193 62.7126C138.43 62.3454 138.769 62.0561 139.169 61.8807C139.569 61.7053 140.012 61.6516 140.442 61.7263C140.872 61.7891 141.264 62.0073 141.543 62.3396C141.823 62.6718 141.971 63.0951 141.96 63.5293C141.949 63.9635 141.779 64.3784 141.482 64.6956C141.185 65.0128 140.782 65.2103 140.35 65.2505C140.258 65.1716 139.85 65.3031 139.824 65.5793Z" fill="#1D1B20"/>
<path d="M120.98 209.808C120.98 209.979 121.112 210.124 120.98 209.808C117.265 211.311 113.423 212.477 109.5 213.293C109.027 213.385 109.184 214.082 109.658 214.029C113.72 213.572 117.679 212.448 121.375 210.702C121.914 210.4 121.559 209.598 120.98 209.808ZM139.39 204.219C139.706 204.219 150.357 200.038 151.396 199.367C151.909 199.025 151.554 198.144 150.949 198.368C149.884 198.762 141.415 202.76 139.298 203.509C139.221 203.539 139.156 203.593 139.113 203.664C139.071 203.735 139.053 203.819 139.064 203.901C139.075 203.983 139.113 204.059 139.172 204.117C139.231 204.174 139.308 204.211 139.39 204.219ZM155.67 197.25C156.012 197.25 164.875 193.213 165.703 192.582C166.111 192.266 165.835 191.517 165.296 191.727C164.493 192.029 157.221 195.672 155.551 196.369C155.458 196.408 155.38 196.477 155.33 196.565C155.279 196.652 155.259 196.754 155.273 196.855C155.286 196.955 155.332 197.048 155.404 197.12C155.476 197.191 155.569 197.237 155.67 197.25ZM181.47 170.818C182.206 171.292 184.942 173.448 185.678 173.922C185.791 173.987 185.923 174.009 186.051 173.985C186.178 173.96 186.293 173.89 186.373 173.787C186.453 173.685 186.493 173.557 186.487 173.427C186.48 173.297 186.426 173.174 186.335 173.08C185.639 172.489 182.627 170.608 181.878 170.161C181.79 170.107 181.685 170.09 181.585 170.113C181.486 170.137 181.399 170.199 181.345 170.286C181.291 170.373 181.274 170.478 181.297 170.578C181.321 170.678 181.383 170.764 181.47 170.818ZM197.973 181.733C197.566 181.404 197.013 181.996 197.434 182.338C198.368 183.114 202.076 186.401 203.102 187.098C203.211 187.152 203.335 187.166 203.453 187.139C203.571 187.112 203.676 187.045 203.751 186.949C203.825 186.853 203.864 186.734 203.861 186.613C203.857 186.491 203.812 186.375 203.733 186.283C202.891 185.415 199.065 182.601 197.973 181.733ZM206.455 189.281C206.377 189.204 206.271 189.162 206.161 189.163C206.051 189.164 205.947 189.209 205.87 189.288C205.793 189.366 205.751 189.472 205.752 189.582C205.753 189.691 205.798 189.796 205.876 189.873C207.528 191.543 209.012 193.371 210.308 195.33C210.729 195.922 211.689 195.33 211.281 194.725C209.908 192.715 208.286 190.885 206.455 189.281ZM188.045 219.605C186.283 219.605 178.695 219.105 176.828 218.724C176.743 218.703 176.652 218.717 176.577 218.762C176.502 218.808 176.448 218.882 176.427 218.967C176.406 219.053 176.42 219.143 176.466 219.218C176.511 219.293 176.585 219.347 176.67 219.368C180.426 220.074 184.227 220.514 188.045 220.683C188.188 220.683 188.325 220.626 188.426 220.525C188.527 220.424 188.584 220.287 188.584 220.144C188.584 220.001 188.527 219.864 188.426 219.763C188.325 219.662 188.188 219.605 188.045 219.605ZM141.047 210.15C140.587 209.927 140.205 210.61 140.679 210.847C143.991 212.52 147.538 213.682 151.199 214.292C151.909 214.424 152.185 213.332 151.462 213.214C147.864 212.683 144.359 211.652 141.047 210.15ZM125.635 209.243C127.279 208.888 130.632 207.928 131.158 207.849C131.658 208.046 134.866 209.256 136.576 209.664C136.704 209.692 136.838 209.67 136.951 209.603C137.063 209.535 137.146 209.428 137.181 209.301C137.216 209.175 137.202 209.04 137.141 208.924C137.08 208.808 136.976 208.72 136.852 208.677C135.537 208.204 134.222 207.809 132.762 207.362C133.823 207.01 134.852 206.57 135.84 206.047C135.911 205.971 135.959 205.874 135.977 205.771C135.995 205.667 135.982 205.561 135.94 205.464C135.898 205.368 135.829 205.286 135.741 205.228C135.653 205.17 135.55 205.14 135.445 205.14C133.972 205.64 132.526 206.271 131.092 206.823C129.462 206.245 127.963 205.653 126.529 205.022C126.056 204.811 125.675 205.508 126.161 205.732C127.358 206.297 128.554 206.836 129.738 207.323C128.34 207.808 126.918 208.221 125.477 208.559C125.417 208.603 125.371 208.664 125.344 208.734C125.318 208.804 125.313 208.88 125.33 208.953C125.347 209.026 125.385 209.092 125.439 209.144C125.493 209.195 125.561 209.23 125.635 209.243ZM66.7757 172.581C65.4607 171.555 60.5295 167.321 59.438 166.163C59.083 165.782 58.4912 166.347 58.8463 166.729C60.9925 169.254 63.444 171.502 66.1445 173.422C66.6705 173.777 67.2754 172.975 66.7757 172.581ZM51.1535 234.806C50.3329 227.547 48.854 220.377 46.7351 213.385C47.9347 215.199 49.7844 216.484 51.9031 216.975C51.9937 217.013 52.0959 217.014 52.1872 216.977C52.2784 216.94 52.3512 216.868 52.3896 216.778C52.428 216.687 52.4287 216.585 52.3917 216.494C52.3548 216.402 52.283 216.33 52.1924 216.291C50.5092 215.279 47.9186 214.253 47.1165 211.794C47.5553 210.993 47.6634 210.052 47.4177 209.172C47.172 208.293 46.5919 207.544 45.8015 207.086C46.2746 204.293 47.2742 201.616 48.7471 199.196C48.918 198.867 48.4709 198.526 48.2211 198.815C46.3445 201.155 45.1968 203.994 44.9204 206.981C44.5781 207.006 44.2413 207.081 43.921 207.205C40.437 198.199 35.4871 189.832 29.2719 182.443C29.5112 182.035 29.6041 181.558 29.5354 181.09C29.4667 180.622 29.2405 180.192 28.8941 179.87C28.5476 179.548 28.1018 179.354 27.6301 179.32C27.1585 179.285 26.6893 179.413 26.3 179.682C25.8558 179.984 25.5329 180.433 25.3885 180.951C25.2441 181.468 25.2875 182.02 25.511 182.509C25.6599 182.769 25.8601 182.997 26.0994 183.178C26.3388 183.359 26.6123 183.49 26.9035 183.562C27.1948 183.635 27.4977 183.648 27.794 183.6C28.0903 183.552 28.3738 183.445 28.6276 183.285C34.7213 190.591 39.6049 198.826 43.0926 207.678C40.9491 209.572 42.8164 213.122 45.5122 212.833C47.7348 220.069 49.2843 227.495 50.141 235.017C49.7465 235.226 49.4407 235.57 49.2798 235.987C49.119 236.403 49.1138 236.864 49.2653 237.284C49.4168 237.704 49.7148 238.055 50.1046 238.273C50.4943 238.491 50.9495 238.561 51.3867 238.47C51.8239 238.379 52.2136 238.134 52.4842 237.779C52.7549 237.424 52.8883 236.983 52.8599 236.537C52.8315 236.092 52.6433 235.671 52.3298 235.353C52.0164 235.035 51.5987 234.841 51.1535 234.806ZM28.5618 181.47C28.608 181.643 28.6137 181.825 28.5785 182.001C28.5433 182.177 28.4682 182.342 28.3589 182.484C28.2496 182.627 28.1091 182.742 27.9482 182.821C27.7873 182.9 27.6103 182.942 27.4309 182.942C27.2515 182.942 27.0746 182.9 26.9136 182.821C26.7527 182.742 26.6122 182.627 26.5029 182.484C26.3936 182.342 26.3185 182.177 26.2833 182.001C26.2481 181.825 26.2538 181.643 26.3 181.47C26.2538 181.297 26.2481 181.115 26.2833 180.939C26.3185 180.763 26.3936 180.598 26.5029 180.456C26.6122 180.313 26.7527 180.198 26.9136 180.119C27.0746 180.04 27.2515 179.998 27.4309 179.998C27.6103 179.998 27.7873 180.04 27.9482 180.119C28.1091 180.198 28.2496 180.313 28.3589 180.456C28.4682 180.598 28.5433 180.763 28.5785 180.939C28.6137 181.115 28.608 181.297 28.5618 181.47ZM52.2318 236.582C52.2318 237.897 50.0621 237.897 50.0621 236.582C50.0621 235.267 52.1792 235.385 52.1792 236.7L52.2318 236.582ZM46.4721 210.808C45.762 213.004 43.1189 211.465 43.1583 209.677C43.1583 208.099 45.3544 207.047 46.1828 208.559C46.3951 208.899 46.5267 209.283 46.5678 209.682C46.6088 210.081 46.5581 210.484 46.4195 210.86L46.4721 210.808ZM237.726 157.918C237.719 157.538 237.607 157.168 237.402 156.848C237.197 156.528 236.908 156.271 236.565 156.106C236.223 155.941 235.842 155.875 235.464 155.914C235.086 155.953 234.726 156.096 234.425 156.327C227.025 151.995 220.661 146.097 215.778 139.048C216.135 138.638 216.381 138.144 216.491 137.612C216.602 137.08 216.574 136.528 216.41 136.01C216.284 135.608 216.056 135.246 215.748 134.959C215.441 134.671 215.064 134.468 214.654 134.37C214.245 134.272 213.817 134.282 213.412 134.399C213.008 134.516 212.64 134.736 212.346 135.037C206.018 126.476 201.495 116.719 199.052 106.357C199.298 106.078 199.449 105.727 199.482 105.355C199.516 104.984 199.429 104.611 199.236 104.293C199.09 103.963 198.842 103.69 198.528 103.515C198.213 103.339 197.851 103.271 197.494 103.32C197.138 103.369 196.807 103.533 196.552 103.787C196.296 104.04 196.131 104.37 196.08 104.727C195.996 105.026 195.995 105.342 196.077 105.642C196.158 105.942 196.32 106.214 196.543 106.43C196.767 106.645 197.045 106.797 197.348 106.867C197.65 106.938 197.967 106.925 198.263 106.831C200.685 117.312 205.282 127.168 211.754 135.761C211.616 135.984 211.514 136.228 211.452 136.484C209.782 135.682 201.484 133.052 200.616 133.288C200.248 133.394 200.419 133.841 200.616 133.893C204.247 134.897 207.813 136.122 211.294 137.562C211.368 137.965 211.532 138.345 211.775 138.675C212.017 139.005 212.331 139.275 212.694 139.465C213.056 139.655 213.457 139.76 213.866 139.772C214.276 139.784 214.682 139.703 215.055 139.535C221.051 148.056 227.193 153.802 233.82 157.103C233.678 157.422 233.618 157.772 233.645 158.12C233.672 158.468 233.785 158.804 233.974 159.098C234.163 159.391 234.423 159.633 234.729 159.801C235.035 159.97 235.378 160.059 235.727 160.062C236.006 160.075 236.284 160.028 236.542 159.923C236.801 159.818 237.033 159.657 237.223 159.453C237.413 159.249 237.557 159.006 237.644 158.741C237.731 158.476 237.758 158.195 237.726 157.918ZM234.806 158.576C234.693 158.409 234.626 158.216 234.611 158.015C234.595 157.814 234.633 157.613 234.719 157.431C234.805 157.249 234.938 157.093 235.103 156.977C235.268 156.862 235.461 156.792 235.661 156.774C235.976 156.784 236.275 156.916 236.496 157.141C236.717 157.367 236.841 157.669 236.845 157.984C236.845 158.224 236.767 158.457 236.624 158.648C236.48 158.84 236.278 158.98 236.048 159.046C235.818 159.113 235.573 159.103 235.349 159.018C235.125 158.934 234.934 158.778 234.806 158.576ZM214.661 138.772C214.254 138.903 213.816 138.894 213.415 138.746C213.015 138.598 212.675 138.32 212.451 137.957C212.328 137.664 212.278 137.346 212.304 137.03C212.33 136.714 212.431 136.409 212.6 136.14C212.77 135.872 213.001 135.648 213.275 135.488C213.549 135.328 213.857 135.237 214.174 135.221C215.857 135.221 216.147 138.154 214.661 138.772ZM198.631 105.2C198.646 105.324 198.635 105.449 198.598 105.569C198.561 105.688 198.499 105.798 198.416 105.891C198.333 105.985 198.232 106.059 198.118 106.111C198.004 106.162 197.881 106.188 197.756 106.188C197.632 106.188 197.508 106.162 197.394 106.111C197.281 106.059 197.179 105.985 197.096 105.891C197.014 105.798 196.952 105.688 196.915 105.569C196.878 105.449 196.867 105.324 196.882 105.2C196.867 105.076 196.878 104.95 196.915 104.831C196.952 104.712 197.014 104.602 197.096 104.509C197.179 104.415 197.281 104.34 197.394 104.289C197.508 104.238 197.632 104.211 197.756 104.211C197.881 104.211 198.004 104.238 198.118 104.289C198.232 104.34 198.333 104.415 198.416 104.509C198.499 104.602 198.561 104.712 198.598 104.831C198.635 104.95 198.646 105.076 198.631 105.2ZM219.605 212.202C219.641 212.11 219.644 212.008 219.613 211.914C219.582 211.82 219.518 211.74 219.434 211.689C218.777 211.281 217.698 211.965 217.514 212.741C217.961 212.78 219.329 212.728 219.605 212.202Z" fill="#1D1B20"/>
<path d="M216.475 203.509C215.621 201.7 214.659 199.944 213.596 198.249C213.537 198.163 213.447 198.103 213.345 198.08C213.244 198.058 213.137 198.076 213.048 198.129C212.958 198.183 212.893 198.27 212.865 198.37C212.838 198.471 212.849 198.578 212.899 198.67C213.785 200.228 214.554 201.85 215.2 203.523C213.733 203.682 212.338 204.243 211.168 205.143C209.999 206.043 209.1 207.248 208.57 208.626C208.04 210.003 207.9 211.5 208.165 212.952C208.43 214.404 209.089 215.755 210.071 216.857C205.521 218.627 200.709 219.632 195.83 219.829C195.743 219.845 195.664 219.891 195.607 219.96C195.55 220.028 195.519 220.114 195.519 220.203C195.519 220.292 195.55 220.378 195.607 220.447C195.664 220.515 195.743 220.562 195.83 220.578C201.032 220.689 206.201 219.731 211.018 217.764C212.004 218.546 213.159 219.084 214.392 219.336C215.624 219.588 216.898 219.546 218.111 219.214C219.325 218.882 220.442 218.268 221.374 217.423C222.306 216.578 223.026 215.526 223.475 214.351C223.925 213.176 224.091 211.912 223.961 210.661C223.83 209.41 223.407 208.207 222.726 207.15C222.044 206.093 221.123 205.211 220.037 204.577C218.951 203.942 217.731 203.572 216.475 203.496V203.509ZM214.805 215.66C214.674 214.779 214.621 213.885 214.463 213.03H212.53C212.412 213.806 212.412 214.582 212.294 215.358C212.287 215.413 212.269 215.466 212.242 215.515C212.214 215.563 212.177 215.605 212.133 215.64C212.089 215.674 212.039 215.699 211.985 215.714C211.932 215.729 211.876 215.733 211.82 215.726C211.765 215.719 211.712 215.701 211.663 215.674C211.615 215.646 211.572 215.609 211.538 215.565C211.504 215.521 211.479 215.471 211.464 215.417C211.449 215.364 211.445 215.308 211.452 215.252C211.452 214.384 212.175 208.861 212.32 208.086C212.504 206.994 213.083 206.902 213.411 206.942C214.095 207.02 214.279 207.731 214.424 208.257C214.805 209.664 215.739 213.95 215.976 215.371C216.081 216.081 214.924 216.37 214.805 215.66ZM220.71 214.647C218.593 216.12 215.923 214.358 216.765 212.32C217.304 211.005 219.395 210.111 220.276 211.478C220.382 211.699 220.434 211.942 220.428 212.187C220.422 212.432 220.358 212.673 220.241 212.888C220.124 213.104 219.958 213.288 219.756 213.427C219.554 213.566 219.322 213.655 219.079 213.687C218.643 213.745 218.201 213.745 217.764 213.687C217.931 213.871 218.126 214.027 218.343 214.148C219.658 214.7 220.539 213.714 220.802 214.266C220.822 214.322 220.824 214.382 220.808 214.439C220.791 214.496 220.757 214.546 220.71 214.582V214.647Z" fill="#1D1B20"/>
<path d="M213.214 208.335C213.017 209.335 212.793 211.123 212.688 211.952H214.253C214.108 211.281 213.727 209.4 213.464 208.375C213.425 208.204 213.241 208.164 213.214 208.335ZM99.2826 188.65C98.4936 188.176 96.7578 188.124 96.6526 189.163C96.5737 189.741 96.6526 192.056 96.6526 192.674C97.2526 192.656 97.8425 192.515 98.3855 192.26C98.9285 192.004 99.413 191.639 99.8086 191.188C99.9566 190.992 100.061 190.767 100.115 190.527C100.169 190.288 100.171 190.04 100.121 189.799C100.071 189.559 99.9707 189.332 99.8261 189.134C99.6815 188.936 99.4962 188.771 99.2826 188.65Z" fill="#1D1B20"/>
<path d="M121.756 202.944C118.121 201.613 114.565 200.076 111.104 198.342C111.795 196.93 112.201 195.396 112.299 193.828C112.397 192.259 112.185 190.686 111.675 189.2C111.165 187.713 110.368 186.341 109.328 185.163C108.288 183.985 107.026 183.022 105.614 182.332C104.203 181.641 102.669 181.235 101.1 181.137C99.5314 181.039 97.9589 181.251 96.4722 181.761C94.9855 182.271 93.6138 183.068 92.4354 184.108C91.257 185.148 90.2949 186.41 89.6042 187.822C88.0131 186.975 86.468 186.044 84.9754 185.034C84.5677 184.771 84.1864 185.389 84.5677 185.665C86.343 186.98 87.8289 187.901 89.2097 188.742C84.4888 202.524 102.833 211.347 110.644 199.144C114.072 201.09 117.742 202.576 121.559 203.562C121.636 203.574 121.714 203.557 121.78 203.516C121.847 203.475 121.896 203.411 121.92 203.337C121.943 203.263 121.94 203.183 121.91 203.111C121.88 203.039 121.825 202.98 121.756 202.944ZM100.716 192.424C99.6508 193.445 98.2455 194.035 96.7709 194.081V197.763C96.7709 197.913 96.7113 198.057 96.6053 198.163C96.4993 198.269 96.3554 198.329 96.2055 198.329C96.0555 198.329 95.9117 198.269 95.8056 198.163C95.6996 198.057 95.64 197.913 95.64 197.763C95.64 197.132 95.4165 191.911 95.4033 191.491C95.4033 190.176 94.9036 187.927 96.7183 187.204C100.058 185.797 103.214 189.492 100.65 192.411L100.716 192.424ZM106.765 196.369C106.581 198.473 103.754 199.381 102.07 198.131C101.95 198.037 101.87 197.901 101.844 197.75C101.818 197.6 101.849 197.445 101.931 197.316C102.013 197.187 102.139 197.092 102.287 197.051C102.434 197.01 102.591 197.025 102.728 197.093C103.109 197.348 103.566 197.462 104.022 197.417C104.478 197.371 104.904 197.168 105.226 196.843C105.621 196.435 105.463 195.62 104.819 195.712C104.319 195.855 103.798 195.908 103.28 195.87C103.018 195.809 102.774 195.683 102.572 195.505C102.369 195.327 102.214 195.102 102.121 194.849C102.027 194.596 101.997 194.324 102.034 194.057C102.071 193.79 102.174 193.536 102.333 193.319C102.555 193.005 102.848 192.748 103.188 192.568C103.528 192.389 103.905 192.292 104.289 192.286C104.673 192.279 105.054 192.364 105.399 192.532C105.745 192.7 106.046 192.947 106.278 193.253C106.673 193.766 105.858 194.384 105.463 193.884C105.279 193.67 105.036 193.516 104.764 193.441C104.493 193.367 104.205 193.374 103.938 193.463C102.794 193.884 103.517 195.015 104.28 194.778C104.451 194.726 106.87 194.344 106.699 196.317L106.765 196.369ZM213.24 152.632C212.814 153.605 212.327 154.549 211.781 155.46C210.751 154.028 209.416 152.842 207.874 151.986C206.332 151.13 204.619 150.625 202.859 150.509C201.099 150.392 199.335 150.666 197.693 151.311C196.051 151.956 194.572 152.955 193.362 154.239C192.152 155.522 191.24 157.057 190.692 158.734C190.145 160.411 189.975 162.188 190.194 163.938C190.414 165.688 191.017 167.368 191.962 168.858C192.907 170.348 194.169 171.61 195.659 172.555C194.344 173.725 191.622 175.803 191.07 176.237L190.096 175.79C189.662 175.592 189.307 176.237 189.755 176.447C189.957 176.542 190.155 176.647 190.346 176.763C188.691 177.963 186.975 179.078 185.205 180.103C185.112 180.155 185.044 180.242 185.016 180.344C184.988 180.447 185.001 180.556 185.053 180.649C185.106 180.741 185.193 180.809 185.295 180.837C185.397 180.866 185.507 180.852 185.599 180.8C187.769 179.59 189.636 178.446 191.28 177.328C192.48 178.163 193.599 179.109 194.62 180.155C194.723 180.236 194.852 180.277 194.983 180.27C195.114 180.262 195.237 180.208 195.331 180.116C195.424 180.024 195.481 179.901 195.491 179.771C195.5 179.64 195.462 179.51 195.383 179.406C194.357 178.439 193.253 177.559 192.082 176.776C192.884 176.197 195.449 174.29 196.737 173.16C199.037 174.291 201.639 174.656 204.16 174.199C206.682 173.743 208.991 172.489 210.748 170.624C212.505 168.758 213.618 166.378 213.922 163.833C214.226 161.288 213.706 158.713 212.438 156.485C213.115 155.356 213.679 154.162 214.122 152.922C214.345 152.356 213.464 152.08 213.24 152.632ZM202.181 167.282C201.917 166.393 201.711 165.488 201.563 164.573L198.789 164.849C198.631 165.677 198.473 166.506 198.341 167.334C198.21 168.163 197.132 167.821 197.237 167.111C197.474 165.362 198.881 157.906 199.157 157.196C199.933 155.67 201.103 156.722 201.787 158.445C202.45 161.296 202.968 164.18 203.339 167.084C203.365 167.238 203.329 167.395 203.239 167.522C203.149 167.649 203.012 167.735 202.859 167.762C202.705 167.788 202.548 167.752 202.421 167.662C202.293 167.572 202.207 167.435 202.181 167.282ZM204.43 158.747C204.497 158.592 204.595 158.453 204.72 158.338C204.844 158.224 204.991 158.137 205.151 158.084C205.311 158.03 205.481 158.012 205.649 158.028C205.817 158.045 205.98 158.098 206.126 158.182C206.257 158.269 206.367 158.384 206.449 158.518C206.531 158.652 206.584 158.802 206.602 158.958C206.621 159.114 206.606 159.273 206.558 159.422C206.51 159.572 206.43 159.71 206.324 159.826C206.159 160.028 205.927 160.166 205.67 160.214C205.413 160.262 205.147 160.218 204.92 160.088C204.693 159.959 204.519 159.753 204.429 159.508C204.339 159.262 204.34 158.993 204.43 158.747ZM206.718 167.15C206.716 167.301 206.66 167.446 206.56 167.559C206.46 167.672 206.323 167.746 206.173 167.766C206.024 167.787 205.872 167.753 205.745 167.672C205.618 167.59 205.525 167.466 205.482 167.321C205.377 167.032 205.179 162.982 205.179 162.508C205.179 162.372 205.234 162.242 205.33 162.145C205.426 162.049 205.556 161.995 205.692 161.995C205.828 161.995 205.959 162.049 206.055 162.145C206.151 162.242 206.205 162.372 206.205 162.508C206.245 163.258 206.731 166.927 206.718 167.15Z" fill="#1D1B20"/>
<path d="M199.052 163.546L201.34 163.297C201.111 161.693 200.723 160.116 200.183 158.589C199.88 159.904 199.328 162.245 199.052 163.546ZM72.3251 220.183C71.2205 220.841 72.1279 222.629 73.6401 221.959C73.6401 221.091 73.5612 220.446 73.5349 220.144C73.3448 220.053 73.1357 220.009 72.9252 220.016C72.7147 220.023 72.5089 220.08 72.3251 220.183Z" fill="#1D1B20"/>
<path d="M85.028 218.514C82.8514 218.854 80.6553 219.056 78.453 219.119C77.8613 208.77 63.0544 208.756 62.4495 219.119C60.1649 218.898 57.9166 218.394 55.7561 217.62C55.7155 217.599 55.6713 217.586 55.6258 217.583C55.5804 217.579 55.5347 217.584 55.4914 217.598C55.448 217.613 55.4079 217.635 55.3732 217.664C55.3385 217.694 55.31 217.73 55.2893 217.771C55.2686 217.811 55.256 217.856 55.2524 217.901C55.2488 217.946 55.2542 217.992 55.2682 218.035C55.2823 218.079 55.3047 218.119 55.3343 218.154C55.3638 218.188 55.3999 218.217 55.4405 218.238C57.6317 219.398 60.0325 220.109 62.5021 220.328C62.751 222.259 63.6946 224.033 65.1564 225.318C66.6182 226.604 68.4981 227.313 70.4447 227.313C72.3912 227.313 74.2712 226.604 75.733 225.318C77.1948 224.033 78.1383 222.259 78.3873 220.328C80.6768 220.095 82.9511 219.731 85.199 219.237C85.2763 219.199 85.3384 219.135 85.3751 219.057C85.4118 218.979 85.421 218.891 85.4012 218.807C85.3813 218.723 85.3336 218.649 85.2659 218.595C85.1981 218.542 85.1143 218.513 85.028 218.514ZM69.248 222.709C69.2301 222.797 69.1937 222.882 69.1411 222.955C69.0884 223.029 69.0208 223.091 68.9426 223.137C68.8644 223.183 68.7774 223.212 68.6873 223.222C68.5971 223.232 68.5059 223.223 68.4196 223.195C68.0251 223.077 68.0908 222.853 67.4596 221.959C67.2624 222.288 67.0651 222.63 66.881 222.972C66.8089 223.089 66.6944 223.175 66.5611 223.211C66.4278 223.246 66.2858 223.23 66.1645 223.164C66.0431 223.098 65.9516 222.988 65.9087 222.857C65.8659 222.726 65.875 222.583 65.9342 222.459C66.1841 221.985 66.4339 221.499 66.7101 221.025C66.3857 220.687 66.0239 220.387 65.6318 220.131C65.5032 220.041 65.4138 219.905 65.3819 219.751C65.35 219.597 65.378 219.437 65.4601 219.303C65.5422 219.169 65.6722 219.071 65.8238 219.029C65.9754 218.988 66.1372 219.006 66.2761 219.079C67.9199 220.092 66.9073 220.21 68.1566 218.658C68.6694 218.027 69.6425 218.803 69.2217 219.447C68.9324 219.894 68.5642 220.355 68.2486 220.762C68.893 221.591 69.3138 222.235 69.2349 222.709H69.248ZM74.8499 222.866C74.57 223.119 74.2391 223.308 73.8796 223.422C73.5201 223.535 73.1405 223.57 72.7663 223.524C72.3922 223.478 72.0324 223.352 71.7112 223.154C71.3901 222.957 71.1151 222.693 70.9049 222.38C70.6372 221.985 70.4952 221.518 70.4975 221.04C70.4999 220.563 70.6465 220.098 70.9181 219.705C71.1897 219.313 71.5737 219.011 72.0196 218.841C72.4654 218.671 72.9524 218.639 73.4166 218.75C73.3028 217.329 73.2633 215.902 73.2982 214.477C73.3002 214.325 73.3583 214.178 73.4614 214.066C73.5644 213.954 73.7052 213.884 73.8567 213.87C74.0082 213.855 74.1597 213.897 74.2823 213.987C74.405 214.077 74.49 214.209 74.5212 214.358C74.7973 216.081 75.0077 221.131 75.034 221.709C75.0603 222.012 75.1918 222.511 74.8368 222.866H74.8499ZM50.2726 145.124C50.5093 145.124 50.575 145.124 50.5882 145.045C50.5882 144.821 50.1411 141.862 50.0885 141.507C46.3539 142.02 46.8273 145.465 50.2726 145.124Z" fill="#1D1B20"/>
<path d="M59.5695 132.657C58.0105 132.871 56.465 133.174 54.9407 133.565C53.7149 132.374 52.2204 131.496 50.5836 131.006C48.9468 130.515 47.2158 130.426 45.5373 130.746C43.8587 131.066 42.2819 131.785 40.9402 132.843C39.5986 133.902 38.5316 135.268 37.8296 136.825C37.1276 138.383 36.8112 140.087 36.9072 141.794C37.0032 143.5 37.5087 145.157 38.381 146.627C39.2534 148.096 40.4668 149.334 41.9187 150.235C43.3705 151.136 45.0181 151.674 46.7219 151.804C48.2057 155.981 50.791 159.679 54.2043 162.508C54.2354 162.538 54.2721 162.562 54.3124 162.578C54.3527 162.594 54.3957 162.602 54.4391 162.601C54.4824 162.601 54.5252 162.591 54.565 162.574C54.6049 162.557 54.6409 162.532 54.6711 162.501C54.7013 162.47 54.7251 162.433 54.7412 162.393C54.7572 162.353 54.7651 162.31 54.7645 162.266C54.7639 162.223 54.7548 162.18 54.7376 162.14C54.7205 162.101 54.6956 162.065 54.6645 162.034C51.8178 159.055 49.5126 155.602 47.8528 151.83C49.8348 151.755 51.7568 151.13 53.4034 150.024C55.0499 148.919 56.356 147.376 57.1752 145.57C57.9944 143.764 58.2943 141.765 58.0413 139.798C57.7883 137.831 56.9924 135.973 55.7428 134.433C57.1367 134.064 58.3728 133.736 59.6878 133.486C60.319 133.381 60.0955 132.552 59.5695 132.657ZM43.1583 145.965V136.181C43.1786 136.051 43.2447 135.933 43.3448 135.847C43.4449 135.761 43.5723 135.714 43.704 135.714C43.8358 135.714 43.9632 135.761 44.0633 135.847C44.1633 135.933 44.2295 136.051 44.2497 136.181C44.2497 138.128 44.4733 144.65 44.5127 145.965C44.4673 146.109 44.3772 146.235 44.2554 146.324C44.1336 146.413 43.9865 146.462 43.8355 146.462C43.6845 146.462 43.5374 146.413 43.4156 146.324C43.2939 146.235 43.2037 146.109 43.1583 145.965ZM51.2061 146.097C48.5761 147.504 45.065 144.992 46.7219 142.06C47.0853 141.537 47.5718 141.113 48.1384 140.824C48.7049 140.535 49.3341 140.39 49.97 140.403C49.7503 138.97 49.6186 137.525 49.5755 136.076C49.5824 135.934 49.6395 135.798 49.7366 135.694C49.8338 135.589 49.9647 135.523 50.1063 135.505C50.2479 135.488 50.3911 135.521 50.5105 135.599C50.6299 135.677 50.7179 135.795 50.759 135.932C50.9825 136.878 51.6137 143.177 51.6795 144.006C51.7058 144.65 51.9951 145.61 51.2061 146.031V146.097Z" fill="#1D1B20"/>
</svg>
