<svg width="300" height="300" viewBox="0 0 300 300" fill="none" xmlns="http://www.w3.org/2000/svg">
<path d="M224.07 131.835C225.364 132.473 226.782 132.821 228.225 132.855C228.306 132.846 228.384 132.82 228.455 132.781C228.527 132.741 228.589 132.687 228.639 132.623C228.69 132.559 228.727 132.485 228.748 132.407C228.77 132.328 228.775 132.246 228.765 132.165C228.645 131.22 227.58 132.03 224.625 130.665L224.775 129.555C224.85 129.24 224.475 128.73 224.07 128.88C223.665 129.03 223.56 129.51 223.44 130.38C223.32 131.25 223.26 131.43 224.07 131.835ZM67.5 136.095C69.305 135.604 71.0001 134.774 72.495 133.65C73.08 133.2 72.885 132.15 72.72 131.55C72.673 131.394 72.5702 131.262 72.4313 131.177C72.2925 131.092 72.1273 131.062 71.9674 131.092C71.8076 131.122 71.6643 131.209 71.5652 131.338C71.466 131.467 71.4178 131.628 71.43 131.79C71.4585 132.115 71.5188 132.437 71.61 132.75C68.055 135.345 66.675 134.7 66.885 135.75C66.9316 135.87 67.0185 135.97 67.1306 136.033C67.2428 136.096 67.3734 136.118 67.5 136.095ZM63.42 133.32C66.42 133.32 65.4 131.55 64.59 131.82L63.435 132C62.445 127.305 63.24 126.315 62.385 126.285C62.2561 126.277 62.129 126.319 62.0309 126.403C61.9328 126.487 61.8715 126.606 61.86 126.735C61.754 128.59 61.8902 130.45 62.265 132.27C62.43 133.08 62.73 133.32 63.42 133.32ZM150.525 130.74C151.38 130.74 155.88 129.765 156.645 129.645C157.77 129.45 159.105 129.105 159.195 127.89C159.195 127.14 158.655 126.27 158.04 126.72C157.912 126.81 157.818 126.94 157.771 127.089C157.725 127.238 157.73 127.399 157.785 127.545C158.01 128.13 157.53 128.085 150.285 129.66C150.152 129.701 150.039 129.791 149.969 129.912C149.899 130.032 149.877 130.175 149.907 130.311C149.937 130.447 150.018 130.566 150.132 130.646C150.247 130.726 150.387 130.759 150.525 130.74ZM51.87 94.02C52.2 94.395 53.01 94.02 52.77 93.45C51.27 89.79 48.51 85.71 46.77 81.69C46.5 81.045 45.96 79.95 45.435 79.89C45.3692 79.8808 45.3022 79.8899 45.2413 79.9164C45.1804 79.9429 45.1281 79.9857 45.09 80.04C44.76 80.49 45.24 81.735 45.465 82.26C46.155 83.745 49.5 91.305 51.87 94.02ZM100.5 87.69C100.528 87.8072 100.586 87.9149 100.669 88.0025C100.752 88.0901 100.856 88.1545 100.971 88.1894C101.086 88.2243 101.209 88.2284 101.326 88.2013C101.443 88.1742 101.552 88.1169 101.64 88.035C102.878 86.9074 104.004 85.6615 105 84.315C109.5 98.715 109.5 99.225 110.205 99.225C110.306 99.2222 110.405 99.1977 110.496 99.1531C110.587 99.1086 110.667 99.045 110.731 98.9668C110.795 98.8885 110.841 98.7974 110.867 98.6996C110.893 98.6018 110.897 98.4997 110.88 98.4C109.2 93.09 107.43 87.9 105.9 82.605C105.866 82.4734 105.793 82.3549 105.692 82.2643C105.59 82.1738 105.464 82.1152 105.33 82.096C105.195 82.0767 105.058 82.0977 104.935 82.1562C104.812 82.2148 104.71 82.3083 104.64 82.425C103.779 83.7799 102.773 85.0373 101.64 86.175C100.74 82.065 98.64 72.675 98.64 72.675C98.6022 72.5239 98.5059 72.3939 98.3723 72.3137C98.2387 72.2336 98.0787 72.2098 97.9275 72.2475C97.7763 72.2853 97.6463 72.3816 97.5662 72.5153C97.486 72.6489 97.4622 72.8089 97.5 72.96C98.01 75.285 100.185 86.655 100.5 87.69ZM22.365 165.72C17.535 163.41 13.23 161.04 8.27998 158.43C7.31998 157.92 6.65998 159.675 8.15998 160.08C12.4817 162.778 17.09 164.986 21.9 166.665C22.5 166.83 22.92 166.05 22.365 165.72ZM26.205 131.085C26.3081 131.176 26.4366 131.234 26.5734 131.25C26.7101 131.266 26.8485 131.24 26.97 131.175C27.96 130.695 26.685 129.51 27.165 122.385C39.33 137.07 38.655 136.695 39.165 136.695C39.2706 136.702 39.3759 136.678 39.4684 136.627C39.561 136.575 39.637 136.499 39.6874 136.406C39.7379 136.313 39.7607 136.207 39.7531 136.102C39.7456 135.996 39.7081 135.895 39.645 135.81C37.74 133.41 29.4 123.045 27.18 120.225C27.0965 120.119 26.9844 120.04 26.8571 119.996C26.7297 119.952 26.5924 119.945 26.4614 119.976C26.3304 120.008 26.2112 120.076 26.1179 120.174C26.0246 120.271 25.9611 120.393 25.935 120.525C25.63 123.264 25.5798 126.026 25.785 128.775C21.285 124.74 16.98 120.465 12.435 116.535C12.2974 116.425 12.1253 116.366 11.9489 116.37C11.7725 116.374 11.6032 116.44 11.4706 116.556C11.3381 116.673 11.2508 116.832 11.2242 117.007C11.1975 117.181 11.2332 117.359 11.325 117.51C13.095 120.255 23.085 128.25 26.205 131.085ZM144.525 75.45C144.525 75.5972 144.583 75.7384 144.688 75.8425C144.792 75.9466 144.933 76.005 145.08 76.005C145.227 76.005 145.368 75.9466 145.472 75.8425C145.577 75.7384 145.635 75.5972 145.635 75.45C145.892 69.9405 145.661 64.4189 144.945 58.95C144.93 58.8057 144.873 58.669 144.781 58.5565C144.689 58.4439 144.567 58.3603 144.429 58.3158C144.291 58.2714 144.143 58.268 144.003 58.306C143.863 58.344 143.737 58.4218 143.64 58.53C142.965 59.4 144.585 62.145 144.525 75.45ZM185.115 101.505C196.53 82.245 195.915 83.205 195.825 82.8601C195.57 81.99 194.85 82.41 189.075 84.15C190.575 78.825 192.45 73.14 193.695 67.755C193.721 67.5809 193.681 67.4034 193.582 67.2574C193.484 67.1115 193.334 67.0076 193.163 66.9662C192.992 66.9248 192.812 66.949 192.658 67.0339C192.503 67.1188 192.387 67.2583 192.33 67.425C190.635 73.425 188.955 79.29 187.335 85.05C187.309 85.1691 187.313 85.2929 187.348 85.4097C187.383 85.5266 187.447 85.6327 187.534 85.7182C187.62 85.8036 187.728 85.8656 187.845 85.8983C187.963 85.931 188.086 85.9333 188.205 85.905C188.205 85.905 192.18 84.675 193.785 84.15L184.2 100.995C184.143 101.115 184.134 101.253 184.175 101.379C184.216 101.506 184.303 101.612 184.419 101.677C184.536 101.742 184.672 101.76 184.801 101.728C184.93 101.696 185.042 101.617 185.115 101.505ZM292.365 145.5C291.585 145.125 277.155 154.095 277.005 154.2C276.48 154.575 277.005 155.505 277.545 155.22C278.415 154.83 292.2 147.165 292.665 146.34C292.701 146.265 292.721 146.184 292.725 146.101C292.729 146.019 292.717 145.936 292.689 145.858C292.661 145.78 292.618 145.708 292.563 145.647C292.507 145.585 292.44 145.535 292.365 145.5ZM254.175 128.355C254.175 128.355 268.635 117.33 271.335 115.23C271.92 114.765 271.335 113.73 270.645 113.805C267.923 113.87 265.213 114.176 262.545 114.72C266.417 110.589 269.846 106.065 272.775 101.22C273.27 100.41 272.07 99.57 271.59 100.395C268.285 105.786 264.353 110.766 259.875 115.23C259.395 115.695 259.695 116.835 260.475 116.73C263.123 116.056 265.822 115.604 268.545 115.38C268.545 115.38 257.085 124.605 253.545 127.53C253.485 127.626 253.456 127.737 253.462 127.85C253.467 127.962 253.507 128.071 253.575 128.16C253.643 128.25 253.738 128.316 253.845 128.351C253.952 128.386 254.067 128.387 254.175 128.355ZM233.49 84.93C242.7 69.06 244.305 66.75 242.76 66.36C242.1 66.195 242.13 66.255 232.455 84.3601C232.41 84.4935 232.413 84.6387 232.464 84.7701C232.514 84.9016 232.61 85.0109 232.734 85.0789C232.857 85.1469 233.001 85.1692 233.139 85.142C233.277 85.1148 233.401 85.0398 233.49 84.93Z" fill="#1D1B20"/>
<path d="M276 182.835C269.88 163.53 254.415 148.68 233.535 142.11C233.521 141.728 233.481 141.347 233.415 140.97C239.115 138.48 240.39 129.915 239.13 122.46C240.225 120.675 243.135 111.495 240.99 112.755L237.075 115.065C236.52 113.565 235.875 112.17 235.185 110.79C235.335 108.39 233.145 104.1 229.29 101.295C225.75 98.715 219.66 96.405 210.78 100.095C203.85 102.975 196.035 109.335 194.85 118.575C193.35 130.575 197.325 136.395 189.9 147.54C181.696 143.825 172.95 141.445 163.995 140.49C163.995 139.818 163.95 139.146 163.86 138.48C167.685 136.545 168.495 130.245 168.66 128.19C173.16 124.29 173.685 116.52 170.16 116.34C171.066 110.774 171.413 105.13 171.195 99.495C171 96 169.5 95.22 168.81 95.07C168.323 94.9779 167.82 95.0247 167.359 95.2051C166.897 95.3855 166.495 95.6921 166.2 96.09C165.075 93.795 162.915 94.08 161.7 95.82C161.581 95.2024 161.27 94.638 160.813 94.2064C160.355 93.7749 159.773 93.4981 159.15 93.4152C158.526 93.3323 157.893 93.4474 157.338 93.7444C156.784 94.0413 156.337 94.5051 156.06 95.07C155.769 94.4507 155.301 93.9319 154.715 93.5795C154.128 93.227 153.45 93.0569 152.767 93.0906C152.084 93.1244 151.426 93.3605 150.877 93.7691C150.328 94.1776 149.913 94.7401 149.685 95.385C148.185 92.13 144.36 92.88 143.505 96.18C142.38 93.645 139.305 93.66 138.24 96.6C135.435 94.53 133.23 96.6 132.78 100.005C132.507 105.795 132.748 111.598 133.5 117.345C128.415 116.205 132.375 128.115 135.405 128.4C135.93 132.9 137.79 137.85 141.405 139.05C141.405 139.65 141.315 140.265 141.315 140.865C131.616 142.414 122.283 145.723 113.775 150.63C109.095 147.33 98.685 142.845 88.68 143.67C86.8672 139.84 85.5031 135.813 84.615 131.67C83.955 128.055 85.65 126.63 85.635 123.51C87.5771 119.596 88.061 115.118 87 110.88C82.275 95.88 53.73 101.58 54.54 118.05C54.645 119.925 54.81 121.8 54.975 123.255C51.45 124.32 51.975 124.575 52.95 128.865C53.475 131.205 54.075 133.14 56.535 132.63C57.66 137.505 60.495 145.29 67.185 145.29C67.59 145.29 67.185 145.035 67.56 147.555C50.775 154.86 29.7 168.555 24.24 192.555C22.92 198.345 22.125 206.565 25.905 212.775C30.06 219.69 37.41 220.125 42.69 219.78C41.4541 226.571 41.0561 233.487 41.505 240.375C41.5077 240.471 41.5368 240.565 41.5892 240.646C41.6415 240.726 41.7151 240.791 41.8018 240.833C41.8885 240.875 41.985 240.892 42.0808 240.883C42.1766 240.873 42.268 240.838 42.345 240.78C43.155 240.3 41.565 239.79 44.1 219.675C58.23 218.37 71.7 212.295 84.15 205.905C86.205 207.405 88.245 208.905 90.36 210.255C92.0989 213.771 94.7635 216.746 98.0673 218.861C101.371 220.975 105.189 222.149 109.11 222.255C108.735 228.569 108.735 234.901 109.11 241.215C109.116 241.291 109.137 241.366 109.171 241.434C109.206 241.502 109.255 241.562 109.314 241.611C109.372 241.66 109.44 241.697 109.514 241.719C109.587 241.741 109.664 241.748 109.74 241.74C111.03 241.62 109.365 240.975 110.385 222.24C122.865 222.24 133.11 214.095 143.385 207.87C155.475 213.405 185.115 223.71 200.79 220.74C201.51 227.13 201.405 233.19 202.02 239.37C202.04 239.481 202.098 239.581 202.184 239.654C202.271 239.726 202.38 239.765 202.493 239.765C202.605 239.765 202.714 239.726 202.801 239.654C202.887 239.581 202.945 239.481 202.965 239.37C203.359 233.055 203.102 226.717 202.2 220.455C213.075 217.875 219.75 210.21 221.52 198.3C222.24 197.82 223.02 197.28 223.83 196.665C233.115 200.37 252.33 209.385 261.72 209.715C261.285 216.69 260.67 224.055 260.565 231.285C260.586 231.407 260.649 231.518 260.744 231.598C260.839 231.678 260.959 231.722 261.083 231.722C261.206 231.722 261.326 231.678 261.421 231.598C261.516 231.518 261.579 231.407 261.6 231.285C261.81 229.29 263.175 212.265 263.1 209.67C278.13 209.325 280.5 197.025 276 182.835ZM168.96 118.725C169.365 118.185 169.59 117.555 170.175 117.735C172.275 118.35 170.595 123.57 168.84 125.895C168.99 123.51 169.035 121.095 168.96 118.725ZM133.155 118.725C133.635 118.725 133.575 118.935 134.655 119.145L135.255 126.555C133.035 124.5 131.43 118.755 133.155 118.755V118.725ZM237.375 117.225C237.439 117.014 237.583 116.837 237.778 116.733C237.972 116.629 238.199 116.606 238.41 116.67C238.621 116.734 238.798 116.878 238.902 117.073C239.006 117.267 239.029 117.494 238.965 117.705C238.44 119.565 238.035 120.915 237.69 122.205C237.601 122.365 237.477 122.503 237.326 122.607C237.175 122.711 237.002 122.779 236.82 122.805C235.5 122.85 236.91 118.575 237.375 117.195V117.225ZM212.13 123.225C212.985 122.58 214.02 123.405 214.185 123.42C215.595 124.32 217.185 123.015 216.78 122.64L216.48 122.4C215.37 121.53 213.09 119.73 213.57 118.5C213.93 117.57 215.4 117.705 216.36 117.66C216.394 117.659 216.428 117.65 216.458 117.634C216.488 117.618 216.514 117.596 216.534 117.569C216.555 117.541 216.568 117.509 216.574 117.476C216.581 117.442 216.579 117.408 216.57 117.375C216.42 116.895 216.24 116.415 216.06 115.875C221.729 113.063 227.944 111.528 234.27 111.375C234.915 112.875 235.47 114.3 235.965 115.71C234.09 116.775 231.96 117.945 231.465 120.075C231.019 120.02 230.567 120.065 230.141 120.208C229.715 120.351 229.327 120.587 229.005 120.9C226.65 118.065 216.9 118.305 214.935 118.38C212.4 118.485 219.09 123.6 220.935 125.04C227.13 129.855 231.18 126.54 229.635 122.145C229.852 121.879 230.136 121.678 230.459 121.561C230.781 121.445 231.129 121.419 231.465 121.485C231.521 121.77 231.612 122.047 231.735 122.31C231.66 122.273 231.578 122.254 231.495 122.254C231.412 122.254 231.33 122.273 231.255 122.31C230.64 122.7 231.255 123.225 232.665 125.73C232.491 125.907 232.306 126.072 232.11 126.225C231.54 126.645 232.035 128.475 233.94 126.225C234.225 125.88 233.685 124.875 233.085 123.99C233.809 124.483 234.677 124.722 235.551 124.668C236.426 124.613 237.258 124.269 237.915 123.69C238.571 127.717 238.199 131.845 236.835 135.69C235.335 139.365 231.57 139.575 232.335 140.97C232.533 145.915 232.13 150.867 231.135 155.715C227.28 154.875 219.69 145.47 216.66 141.105C216.974 137.458 216.503 133.785 215.28 130.335C214.275 128.595 212.28 127.8 211.755 125.835C211.55 125.397 211.477 124.909 211.543 124.43C211.61 123.95 211.813 123.501 212.13 123.135V123.225ZM234.87 120.72C234.705 121.215 234.6 121.905 234.06 121.905C233.52 121.905 233.25 121.275 233.31 120.735C233.37 120.195 233.52 118.95 234.09 118.62C234.2 118.566 234.32 118.538 234.443 118.538C234.565 118.538 234.685 118.566 234.795 118.62C235.5 118.815 235.125 119.865 234.87 120.63V120.72ZM226.785 124.17C226.62 124.575 226.455 125.31 225.975 125.535C225.891 125.576 225.799 125.597 225.705 125.597C225.611 125.597 225.519 125.576 225.435 125.535C224.535 125.205 225.525 121.86 226.335 121.215C226.406 121.143 226.493 121.09 226.59 121.061C226.687 121.032 226.789 121.027 226.888 121.048C226.986 121.069 227.078 121.115 227.155 121.181C227.231 121.246 227.29 121.33 227.325 121.425C227.64 122.115 226.875 123.855 226.785 124.08V124.17ZM223.5 122.715C223.305 123.105 223.215 123.465 222.705 123.465C222.585 123.473 222.465 123.452 222.355 123.403C222.245 123.354 222.149 123.279 222.075 123.184C222.001 123.089 221.951 122.978 221.93 122.86C221.909 122.741 221.918 122.619 221.955 122.505C222.12 122.01 222.3 120.885 222.9 120.585C222.995 120.541 223.098 120.517 223.203 120.515C223.307 120.512 223.412 120.531 223.509 120.571C223.606 120.61 223.694 120.669 223.767 120.744C223.84 120.818 223.897 120.907 223.935 121.005C224.145 121.5 223.8 122.175 223.5 122.715ZM216 141.945C220.26 149.295 231.48 159.945 232.35 156.375C233.331 152.137 233.785 147.794 233.7 143.445C254.25 150.705 268.2 164.01 274.275 181.965C269.878 179.866 265.046 178.838 260.175 178.965C259.965 174.03 253.2 164.49 250.605 161.625C250.08 161.04 249.105 161.79 249.675 162.375C253.566 166.781 256.543 171.915 258.435 177.48C251.085 171.945 236.28 164.22 215.985 170.58C210.72 161.593 203.032 154.269 193.8 149.445C200.443 145.1 208.083 142.519 216 141.945ZM137.775 108.105C146.795 105.643 156.273 105.37 165.42 107.31C165.266 109.852 165.346 112.403 165.66 114.93H165.39C164.145 109.2 156.165 107.43 153.48 113.43C152.108 112.965 150.622 112.965 149.25 113.43C146.655 108.03 139.14 109.77 137.76 115.11H137.475C137.79 112.789 137.891 110.444 137.775 108.105ZM158.175 120.45C158.445 119.685 160.875 114.015 162.45 113.85C162.581 113.848 162.711 113.878 162.828 113.936C162.945 113.995 163.047 114.08 163.125 114.186C163.203 114.291 163.254 114.414 163.275 114.543C163.296 114.673 163.286 114.805 163.245 114.93C161.906 116.837 160.713 118.843 159.675 120.93C159.3 121.86 157.83 121.5 158.175 120.45ZM156 118.35C155.82 118.8 155.01 119.07 154.725 118.545C154.44 118.02 155.13 116.025 157.08 113.1C157.575 112.365 158.04 112.005 158.445 112.065C158.577 112.103 158.697 112.172 158.796 112.267C158.895 112.362 158.969 112.48 159.012 112.61C159.055 112.74 159.065 112.879 159.042 113.014C159.019 113.149 158.964 113.276 158.88 113.385C157.738 114.928 156.772 116.593 156 118.35ZM142.95 120.84C143.595 119.43 144.315 118.005 145.005 116.61C145.079 116.475 145.187 116.363 145.319 116.285C145.451 116.207 145.602 116.165 145.755 116.165C145.908 116.165 146.059 116.207 146.191 116.285C146.323 116.363 146.431 116.475 146.505 116.61C146.599 116.752 146.649 116.919 146.649 117.09C146.649 117.261 146.599 117.428 146.505 117.57C145.845 118.875 145.17 120.24 144.45 121.56C143.88 122.31 142.5 121.74 142.95 120.84ZM141.135 118.95L141.045 119.055C140.58 119.73 139.41 119.295 139.725 118.44C140.591 116.135 141.697 113.928 143.025 111.855C143.67 111.075 144.975 111.75 144.525 112.665C143.46 114.795 142.155 116.79 141.135 118.95ZM135.78 119.085C136.74 118.68 137.01 117.585 137.28 116.64L137.595 116.55C137.516 117.591 137.644 118.637 137.971 119.628C138.298 120.619 138.818 121.535 139.5 122.325C140.309 123.119 141.323 123.674 142.428 123.926C143.534 124.177 144.688 124.117 145.761 123.752C146.835 123.386 147.785 122.73 148.507 121.855C149.229 120.981 149.694 119.923 149.85 118.8C149.695 120.245 149.63 121.697 149.655 123.15C149.655 124.05 149.445 125.175 150.555 125.25H152.055C152.835 125.25 153.045 123.9 152.145 123.885H151.035C150.948 121.212 151.093 118.537 151.47 115.89C151.575 115.155 150.51 115.05 150.36 115.74C149.7 118.965 150.36 117.12 149.775 114.735C150.822 114.359 151.968 114.359 153.015 114.735C152.685 115.938 152.62 117.198 152.824 118.428C153.029 119.658 153.498 120.829 154.2 121.86C154.735 122.552 155.412 123.122 156.186 123.53C156.959 123.938 157.812 124.175 158.685 124.225C159.559 124.274 160.432 124.136 161.248 123.818C162.063 123.501 162.8 123.012 163.41 122.385C164.884 120.741 165.668 118.592 165.6 116.385H165.885C166.065 117.69 166.335 119.49 167.715 119.385C167.565 124.515 168.015 133.305 163.95 136.515C163.425 136.935 162.825 137.415 162.75 137.895C162.562 139.484 162.562 141.091 162.75 142.68C163.185 146.835 155.91 155.055 152.145 158.565C144.885 148.695 142.8 147.72 142.815 139.065C142.815 138.195 142.71 138.06 142.11 137.76C136.035 134.82 136.59 126.345 135.78 119.085ZM141.39 142.185C141.555 146.79 145.17 153.015 151.545 159.72C152.835 161.4 164.235 147.405 164.01 144.375V141.84C194.715 145.455 216.72 163.125 220.23 186.945C207.48 184.44 191.37 187.38 188.64 187.905C187.469 180.445 185.263 173.185 182.085 166.335C182.031 166.202 181.927 166.095 181.795 166.039C181.662 165.983 181.513 165.981 181.38 166.035C181.247 166.089 181.14 166.193 181.084 166.325C181.028 166.458 181.026 166.607 181.08 166.74C183.838 173.501 185.85 180.543 187.08 187.74C179.19 179.43 167.19 175.74 150.465 176.49C140.398 176.957 130.398 178.378 120.6 180.735C121.384 176.161 123.251 171.84 126.045 168.135C126.106 168.023 126.125 167.893 126.097 167.769C126.07 167.644 125.998 167.534 125.895 167.459C125.792 167.384 125.665 167.348 125.538 167.36C125.412 167.371 125.293 167.428 125.205 167.52C122.053 171.414 119.984 176.071 119.205 181.02C108.33 183.629 97.7683 187.406 87.705 192.285C89.085 162.9 116.25 147.15 141.39 142.185ZM76.335 114.405C76.3196 115.829 76.4048 117.253 76.59 118.665C71.19 118.8 62.61 120.9 56.22 122.88C56.055 121.56 55.68 119.16 55.665 117.735C62.0946 114.671 69.2683 113.515 76.335 114.405ZM71.565 122.46C68.565 127.56 69.21 128.46 68.205 128.46C68.0922 128.467 67.9795 128.447 67.8762 128.401C67.7729 128.355 67.6822 128.285 67.6116 128.197C67.541 128.108 67.4927 128.005 67.4707 127.894C67.4486 127.783 67.4535 127.668 67.485 127.56C68.85 122.4 70.155 121.44 70.815 121.32C70.9589 121.291 71.1082 121.305 71.2438 121.362C71.3794 121.418 71.495 121.514 71.5757 121.636C71.6564 121.759 71.6985 121.903 71.6966 122.05C71.6947 122.197 71.6489 122.339 71.565 122.46ZM66.93 123.585C66.375 124.5 66.24 125.775 65.43 125.58C64.62 125.385 65.205 123.555 65.685 122.58C66.165 121.605 66.585 121.59 66.87 121.665C67.0306 121.709 67.1735 121.802 67.2784 121.931C67.3834 122.06 67.4451 122.219 67.455 122.385C67.3962 122.826 67.2143 123.242 66.93 123.585ZM55.77 126.585C55.605 126.975 55.59 128.175 54.78 128.175C54.6224 128.181 54.4672 128.134 54.3394 128.042C54.2116 127.949 54.1185 127.817 54.075 127.665C53.9956 126.616 54.3293 125.577 55.005 124.77C55.1443 124.645 55.3195 124.568 55.5054 124.549C55.6914 124.53 55.8785 124.571 56.04 124.665C56.4 124.905 56.325 125.535 55.77 126.54V126.585ZM56.325 130.08C57.69 125.175 58.47 124.455 58.935 124.35C59.0306 124.328 59.1304 124.333 59.2232 124.365C59.316 124.397 59.398 124.454 59.46 124.53C59.6639 124.766 59.7663 125.074 59.745 125.385L57.765 130.5C57.7033 130.691 57.5683 130.85 57.3897 130.941C57.2111 131.032 57.0035 131.049 56.8125 130.987C56.6215 130.926 56.4629 130.791 56.3715 130.612C56.2801 130.434 56.2633 130.226 56.325 130.035V130.08ZM57.825 132.345C60.705 131.505 61.635 131.745 61.32 127.365C61.215 126.12 60.975 123.285 62.235 123.33C63.255 123.33 63.285 128.07 64.8 129.54C66.315 131.01 68.28 129.975 69.93 129.54C74.43 128.31 73.44 126.39 73.11 120.435L76.89 120.135C78.585 128.925 80.865 122.34 82.395 121.35C83.37 120.735 84.21 122.085 84.39 123.12C84.735 125.34 82.89 127.77 83.28 131.025C84.1639 135.736 85.6775 140.307 87.78 144.615C84.495 150.855 75.06 156.615 70.86 158.895C69.09 152.475 68.94 144.045 67.86 144.075C62.88 144.105 59.61 140.34 57.765 132.3L57.825 132.345ZM67.695 148.995C67.965 151.26 69.075 160.995 70.695 160.185C74.775 158.265 87.195 150.105 88.965 144.855C91.59 145.455 99.78 143.865 112.5 151.53C103.113 157.137 95.5815 165.378 90.84 175.23C78.705 173.73 63.69 171.855 51.075 178.515C54.93 169.425 57.24 168.525 56.145 167.805C56.0883 167.766 56.0244 167.739 55.957 167.726C55.8897 167.712 55.8203 167.713 55.7531 167.727C55.6858 167.741 55.6221 167.768 55.5657 167.807C55.5094 167.847 55.4615 167.897 55.425 167.955C55.035 168.54 49.56 177.585 49.425 179.43C47.31 180.72 42.795 184.02 41.445 186.615C35.9305 186.723 30.5569 188.375 25.935 191.385C30.495 173.73 44.91 159.075 67.635 148.95L67.695 148.995ZM28.8 214.5C23.07 208.5 24.3 198.465 25.485 192.96C40.125 183.345 59.475 187.455 83.025 205.2C75.105 208.59 40.5 226.635 28.8 214.5ZM42.96 186.585C54.87 173.4 72.09 174.24 90.225 176.475C85.575 187.2 85.17 198.525 89.055 207.765C75.555 197.655 59.61 186.54 42.96 186.54V186.585ZM110.28 221.085C95.505 221.085 87.57 208.11 87.78 193.71C108.78 184.275 127.125 179.445 147.225 178.05C165.585 176.775 177.945 180.12 186.045 188.55C146.475 197.415 130.14 221.04 110.28 221.04V221.085ZM201 219.435C186.315 222.75 162 214.08 144.72 207.165C172.26 190.905 197.04 184.77 220.425 188.415C222.27 205.17 215.37 216.18 201 219.435ZM221.805 196.725C222.584 188.051 220.75 179.343 216.54 171.72C232.65 167.55 246.255 169.98 258.075 179.13C242.55 180.285 226.905 192.405 221.79 196.725H221.805ZM262.605 208.38C253.425 208.38 234.105 199.38 225.21 195.75C234.72 188.55 245.985 180.915 259.545 180.375C264.842 180.048 270.126 181.206 274.8 183.72C278.82 197.28 276.81 208.29 262.59 208.38H262.605Z" fill="#1D1B20"/>
</svg>
