<svg width="289" height="289" viewBox="0 0 289 289" fill="none" xmlns="http://www.w3.org/2000/svg">
<path fill-rule="evenodd" clip-rule="evenodd" d="M83.0296 67.3086V68.3345C83.0296 68.6219 83.1438 68.8976 83.347 69.1008C83.5503 69.3041 83.8259 69.4183 84.1134 69.4183C84.4008 69.4183 84.6765 69.3041 84.8797 69.1008C85.0829 68.8976 85.1971 68.6219 85.1971 68.3345V67.2508C85.1823 66.9658 85.0586 66.6974 84.8515 66.5011C84.6444 66.3048 84.3698 66.1955 84.0845 66.1959C83.9415 66.1977 83.8004 66.2282 83.6695 66.2855C83.5385 66.3428 83.4204 66.4257 83.322 66.5294C83.2237 66.6332 83.1472 66.7556 83.0969 66.8894C83.0467 67.0232 83.0238 67.1657 83.0296 67.3086ZM82.6106 64.2885C84.2001 63.9128 85.5006 62.8435 83.1886 62.988C82.6159 63.0679 82.0505 63.1935 81.4979 63.3637C79.3304 64.2596 81.2089 64.6209 82.6106 64.2885ZM215.189 74.3457C214.523 75.7428 213.41 76.8771 212.025 77.5681C211.971 77.5872 211.926 77.6244 211.896 77.6734C211.867 77.7223 211.856 77.7799 211.864 77.8363C211.873 77.8927 211.901 77.9443 211.943 77.9824C211.986 78.0204 212.04 78.0425 212.097 78.0449C212.565 78.1273 213.045 78.0931 213.497 77.9454C213.948 77.7978 214.356 77.5412 214.685 77.1983C215.013 76.8554 215.252 76.4369 215.381 75.9797C215.509 75.5225 215.523 75.0407 215.421 74.5769C215.421 74.5156 215.396 74.4568 215.353 74.4134C215.309 74.3701 215.251 74.3457 215.189 74.3457ZM209.438 62.8869C209.161 62.8158 208.866 62.8561 208.618 62.9992C208.369 63.1423 208.187 63.3768 208.109 63.6527C207.978 64.1231 207.953 64.6166 208.037 65.0977C208.037 65.3851 208.151 65.6608 208.354 65.864C208.557 66.0673 208.833 66.1815 209.12 66.1815C209.408 66.1815 209.683 66.0673 209.887 65.864C210.09 65.6608 210.204 65.3851 210.204 65.0977C210.204 64.0573 210.435 63.1614 209.438 62.8869ZM159.745 204.858C158.574 204.266 136.191 205.725 135.628 208.239C135.512 208.789 135.873 210.898 136.509 211.245C137.766 211.91 159.297 210.696 160.482 208.355C160.818 207.786 160.93 207.111 160.793 206.463C160.657 205.816 160.283 205.243 159.745 204.858ZM136.784 210.638C136.338 209.938 136.098 209.127 136.09 208.297C136.379 206.997 148.3 206.289 149.615 206.202C149.584 207.37 149.884 208.522 150.482 209.525C148.835 209.786 137.564 211.057 136.784 210.681V210.638ZM159.427 207.748C158.285 208.557 152.491 209.294 151.104 209.468C151.225 208.324 150.982 207.171 150.41 206.173C152.13 206.057 157.635 205.754 159.268 205.899C159.701 206.216 159.716 207.199 159.427 207.777V207.748ZM121.77 208.283C121.731 208.258 121.686 208.246 121.64 208.246C121.594 208.246 121.549 208.258 121.51 208.283C121.51 208.138 93.9105 223.686 93.0724 225.334C93.035 225.413 93.0157 225.499 93.0157 225.587C93.0157 225.674 93.035 225.76 93.0724 225.839C93.9538 228.368 122.753 254.407 123.952 255C124.299 255.173 124.732 254.87 126.091 254.147C128.981 252.601 153.647 239.423 156.19 237.298C156.898 236.576 157.332 230.073 156.941 229.336C156.551 228.599 121.77 208.427 121.77 208.283ZM124.27 253.8C121.192 251.358 96.8149 229.394 94.1128 225.666C96.6271 223.296 120.946 209.208 121.683 208.774C125.411 211.043 152.245 227.371 155.684 229.683C153.867 230.209 152.138 231.002 150.554 232.039C149.731 232.833 151.783 234.307 154.629 237.067C150.28 239.87 128.706 251.43 124.27 253.8ZM155.453 236.244C155.309 236.099 151.826 232.703 151.667 232.573C153.071 231.697 154.518 230.892 156.002 230.16C156.007 232.202 155.813 234.239 155.424 236.244H155.453Z" fill="#1D1B20"/>
<path fill-rule="evenodd" clip-rule="evenodd" d="M143.445 233.585C142.434 234.018 130.093 238.108 126.611 239.524C125.587 240.034 124.472 240.334 123.331 240.405C123.128 240.405 124.299 238.151 133.157 231.244C134.082 230.521 135.859 229.149 136.047 228.021C136.899 224.293 126.799 229.871 117.768 233.397C116.834 233.899 115.814 234.222 114.762 234.351C114.661 233.758 116.698 231.894 116.828 231.75C122.218 225.796 129.053 223.34 128.591 221.143C127.883 217.704 115.34 224.395 112.696 225.478C110.47 226.418 106.916 227.545 107.132 227.545C106.655 227.732 107.132 228.065 107.219 228.021C107.306 227.978 111.886 226.576 112.999 226.085C114.661 225.449 125.773 220.088 127.622 221.346C128.359 221.866 120.499 226.1 116.062 230.998C115.282 231.836 113.172 233.541 113.823 234.929C113.942 235.143 114.123 235.317 114.342 235.427C114.56 235.538 114.808 235.581 115.051 235.55C117.204 235.55 131.885 228.195 134.905 227.964C134.212 228.878 133.384 229.682 132.449 230.348C130.296 232.053 124.053 237.139 122.608 239.48C121.857 240.694 122.478 241.417 123.461 241.431C124.761 241.431 126.351 240.55 130.267 239.076C143.546 233.96 143.965 234.192 143.749 233.715C143.737 233.686 143.721 233.66 143.699 233.638C143.678 233.616 143.652 233.598 143.624 233.586C143.596 233.574 143.566 233.568 143.535 233.567C143.504 233.567 143.474 233.573 143.445 233.585Z" fill="#1D1B20"/>
<path fill-rule="evenodd" clip-rule="evenodd" d="M281.775 178.487C281.587 163.372 280.229 132.521 277.238 117.566C275.663 109.633 272.252 98.7806 265.909 93.5353C263.221 91.3244 259.262 89.2003 252.08 85.2265C252.167 85.0387 240.737 80.4147 240.202 81.9464C239.758 79.3109 239.136 76.7087 238.338 74.1578C239.408 73.811 238.931 70.6898 239.379 68.9269C239.827 67.164 241.517 65.9069 242.384 64.4619C244.335 61.2395 244.667 55.6185 244.306 51.8759C243.959 48.3935 238.873 40.6194 235.521 39.3478C232.168 38.0762 228.729 38.1195 225.189 37.4115C222.299 36.819 220.16 35.2151 216.923 34.8105C213.687 34.4059 211.75 36.2555 208.976 36.2555C206.202 36.2555 203.08 34.1024 200.176 33.929C198.598 33.9045 197.065 34.4535 195.861 35.474C194.657 36.4945 193.864 37.9171 193.63 39.4778C193.279 41.804 193.555 44.1817 194.429 46.3659C195.303 48.5501 196.743 50.462 198.601 51.9048C200.863 53.3361 203.405 54.2672 206.057 54.6359C205.884 62.0198 206.664 60.0402 205.797 60.6904C204.93 61.3407 205.204 65.8924 205.508 67.1496C205.638 67.6553 205.768 67.8432 206.389 68.0455C206.043 69.4905 203.601 72.6117 205.797 73.3775C206.086 73.4787 207.242 73.681 207.358 73.7243C207.654 75.0947 208.089 76.431 208.658 77.7125C209.219 79.0009 210.037 80.1606 211.064 81.12C212.09 82.0793 213.303 82.818 214.626 83.2902C216.707 84.0994 218.354 84.3162 219.568 84.7352C219.735 85.3328 219.822 85.9498 219.828 86.5704C214.668 87.9267 209.806 90.2349 205.493 93.3763C197.676 99.7199 186.564 126.033 183.66 128.923C182.532 130.036 155.988 135.18 152.072 137.839C151.306 138.359 151.277 138.807 151.378 139.732C150.425 139.905 146.407 140.657 145.959 141.509C145.827 142.129 145.862 142.772 146.061 143.373C142.485 142.706 138.877 142.223 135.252 141.928C134.589 141.944 133.936 142.098 133.336 142.382C132.736 142.666 132.202 143.073 131.77 143.576C130.556 145.021 131.538 144.775 130.252 144.573C127.521 144.183 117.739 147.463 116.51 148.041C116.51 147.52 116.51 147.159 115.961 146.87C114.349 146.403 112.664 146.236 110.99 146.379C109.979 147.058 113.88 146.827 115.499 147.665C115.499 148.778 115.643 160.193 115.499 162.433C115.499 162.837 115.499 162.78 115.195 162.823C113.75 163.025 111.67 162.823 111.034 163.285C111.265 158.257 111.034 145.945 110.34 145.223C109.921 144.789 102.205 143.865 93.8094 142.853C93.8392 136.779 93.5014 130.708 92.7979 124.675C91.2518 111.265 88.015 95.4571 77.9 87.4374C78.4861 87.6767 79.1312 87.7321 79.7496 87.5963C80.5754 87.2686 81.4642 87.1303 82.3506 87.1917C83.7956 87.5819 83.9834 88.6367 87.5959 86.2091C87.8271 86.0502 88.434 86.0935 88.9109 85.6167C90.5437 83.9838 89.7201 81.773 89.7201 80.1257C89.9594 79.0058 90.0372 77.8574 89.9513 76.7155C89.907 76.5452 89.8239 76.3875 89.7086 76.2547C89.5933 76.1218 89.4489 76.0174 89.2866 75.9496C89.2866 75.4728 89.7923 74.6202 89.0698 73.6954C90.1102 73.1463 91.2373 72.5105 90.6593 71.3834C89.5552 69.6175 88.6444 67.7378 87.9427 65.7768C87.4948 64.1006 88.1017 61.962 88.0728 60.1558C88.0728 58.9131 88.2028 57.4247 88.0728 56.0664C89.1873 55.2882 90.039 54.1896 90.5148 52.9163C90.6202 52.4016 90.5976 51.8689 90.449 51.365C90.3003 50.8611 90.0302 50.4014 89.6623 50.0263C89.1854 49.7229 89.0843 50.0263 89.0987 49.1304C89.151 48.816 89.1368 48.4942 89.0572 48.1856C88.9776 47.877 88.8342 47.5885 88.6363 47.3386C88.0294 46.7462 86.6422 46.0959 86.2087 45.489C85.4718 44.4053 85.0383 43.3215 83.6511 42.888C82.6685 42.5701 81.7437 43.1915 81.079 42.9747C80.1686 42.6857 79.2294 41.7031 78.189 42.7435C77.9567 42.8695 77.7018 42.9483 77.439 42.9756C77.1761 43.0029 76.9105 42.978 76.6573 42.9025C75.7903 42.1655 75.5735 40.8939 74.0996 40.6194C73.2615 40.4749 71.6142 40.8795 70.9784 40.6194C69.9368 39.8527 68.7877 39.244 67.5682 38.8131C66.2049 38.6833 64.8293 38.8008 63.5078 39.1599C62.583 39.3478 61.3981 39.2466 60.4299 39.3911C58.4214 39.709 57.8434 41.443 56.514 42.2811C55.1846 43.1192 52.9448 43.1337 51.6732 45.0122C50.6039 46.6017 50.8351 48.3212 50.4161 49.9107C50.2427 50.5899 49.3179 51.3557 48.9711 52.0493C48.1619 53.6533 48.7832 55.2717 48.7688 56.6589C48.7543 58.0461 47.7862 59.3177 48.0607 60.9939C48.2838 61.831 48.6505 62.6231 49.1445 63.3348C49.1505 63.569 49.1212 63.8028 49.0578 64.0284C48.617 65.1655 48.5264 66.4085 48.7977 67.5975C49.0342 68.7374 49.5847 69.7885 50.3872 70.632C51.3987 71.5135 51.9189 71.2823 52.6558 72.5394C52.9658 73.2042 53.4318 73.7842 54.0141 74.2301C55.0834 74.9526 56.3984 74.3312 57.0342 74.6491C57.4297 74.858 57.8611 74.9904 58.3058 75.0393C57.9501 75.219 57.6428 75.4817 57.4099 75.8051C49.5491 76.8022 39.174 82.5388 32.8449 90.3852C30.345 93.6075 26.1401 98.2604 24.565 101.989C16.0973 121.12 20.23 151.119 16.8198 160.381L8.38103 182.388C7.97643 183.443 6.93603 188.689 7.31173 190.495C7.91863 193.182 10.7364 189.816 12.4559 187.908C11.3866 191.709 11.4011 192.706 10.8375 207.661C10.6641 212.343 10.5052 217.444 10.4329 221.736C10.4288 221.766 10.4313 221.798 10.4403 221.828C10.4494 221.857 10.4647 221.885 10.4852 221.908C10.5058 221.931 10.5311 221.95 10.5595 221.963C10.5879 221.975 10.6186 221.982 10.6497 221.981C11.0543 221.981 10.7942 222.444 11.3866 210.508C11.8057 202.113 12.2825 194.281 12.3259 193.645C12.5398 191.175 13.0841 188.745 13.9443 186.42C17.9797 183.405 22.5208 181.135 27.3539 179.715C32.7329 178.276 38.413 178.422 43.7113 180.134C45.1563 180.611 49.0433 181.579 50.4305 180.929C53.3205 179.484 60.7623 174.701 61.9905 171.796C62.5974 170.351 63.0887 169.181 63.5656 168.097C65.7764 168.3 68.493 168.863 70.9062 168.892C73.6083 168.892 75.3423 168.459 78.3335 165.814C89.3299 166.06 101.453 165.727 107.233 165.511C111.092 166.956 122.941 171.19 125.816 174.036C126.943 175.134 127.608 178.198 128.013 181.608C128.545 185.684 128.686 189.802 128.432 193.905C120.513 195.422 110.427 197.821 102.624 199.757C102.187 199.636 101.73 199.601 101.28 199.656C99.2137 199.873 100.182 200.711 99.5027 198.616C99.5353 198.623 99.5692 198.623 99.6014 198.614C99.6337 198.605 99.6633 198.589 99.6877 198.566C99.712 198.543 99.7303 198.515 99.7409 198.483C99.7514 198.451 99.754 198.417 99.7484 198.384C99.7271 195.607 99.4025 192.84 98.7802 190.134C98.6791 189.729 97.971 189.527 97.5375 189.397C92.8557 188.038 74.7788 186.218 70.805 187.244C68.2185 187.923 50.3149 197.171 49.5057 199.136C48.6965 201.101 46.5001 212.921 46.0955 215.103C36.7319 217.834 29.348 220.088 25.7355 221.317C25.7055 221.326 25.6779 221.342 25.6542 221.363C25.6306 221.383 25.6114 221.409 25.5979 221.437C25.5843 221.466 25.5767 221.496 25.5756 221.528C25.5744 221.559 25.5796 221.591 25.591 221.62C25.7644 222.155 30.504 219.698 79.056 206.939C79.5439 208.185 80.1691 209.372 80.92 210.479C79.475 210.826 77.8422 211.462 77.3653 212.791C77.2806 213.072 77.2665 213.369 77.3245 213.657C77.3825 213.944 77.5107 214.213 77.6977 214.438C78.8831 215.766 80.4635 216.678 82.2061 217.039C85.2615 217.805 88.4364 217.972 91.5552 217.531C94.5501 217.269 97.501 216.639 100.341 215.652C103.433 214.352 103.231 212.415 102.046 211.534C100.825 210.816 99.4832 210.326 98.0866 210.089C99.4016 207.705 98.1733 208.76 100.139 208.283C101.251 208.017 102.266 207.447 103.072 206.635C104.343 205.335 105.196 202.127 103.982 200.581C110.08 199.136 134.602 193.067 140.599 193.515C151.479 194.31 230.593 226.837 249.32 233.108C249.35 233.117 249.381 233.121 249.412 233.118C249.442 233.116 249.472 233.107 249.5 233.093C249.527 233.079 249.552 233.06 249.572 233.036C249.592 233.013 249.607 232.985 249.617 232.956C249.626 232.927 249.63 232.896 249.627 232.865C249.625 232.834 249.616 232.804 249.602 232.777C249.588 232.749 249.569 232.725 249.545 232.705C249.521 232.685 249.494 232.669 249.465 232.66C244.566 230.955 233.642 226.605 220.565 221.374C221.201 219.843 222.877 214.901 224.177 213.196C224.712 212.502 224.683 212.444 229.452 212.719C241.951 213.441 252.962 213.109 264.955 209.28C272.281 206.924 275.879 201.491 277.96 194.223C278.379 194.353 279.521 194.729 279.925 194.815C280.041 194.843 280.161 194.843 280.277 194.816C280.392 194.788 280.5 194.734 280.59 194.656C282.021 193.197 281.775 181.333 281.775 178.487ZM84.1279 79.1286C83.7368 79.2711 83.3147 79.306 82.9055 79.2298C82.4963 79.1535 82.115 78.9689 81.8015 78.6951C81.4896 78.4455 81.2454 78.1214 81.0914 77.7528C80.9373 77.3842 80.8784 76.9828 80.92 76.5854C80.9009 76.526 80.9061 76.4614 80.9345 76.4059C80.963 76.3503 81.0124 76.3083 81.0718 76.2892C81.1312 76.27 81.1957 76.2752 81.2513 76.3037C81.3068 76.3321 81.3488 76.3815 81.368 76.4409C82.0814 77.4671 83.089 78.253 84.258 78.6951C84.2952 78.7259 84.3225 78.767 84.3365 78.8132C84.3505 78.8594 84.3506 78.9087 84.3367 78.955C84.3228 79.0012 84.2956 79.0424 84.2585 79.0733C84.2214 79.1041 84.1759 79.1234 84.1279 79.1286ZM70.5594 66.4704C70.6087 66.0459 70.7793 65.6446 71.0507 65.3144C71.3686 64.9965 72.3367 65.1988 73.0159 64.7364C73.5238 64.335 73.9092 63.7994 74.1285 63.1903C74.9377 61.5863 76.2238 62.829 78.0156 60.1847C78.4729 59.441 78.8278 58.639 79.0704 57.8004C80.0819 57.3236 81.3969 58.0172 82.6685 55.9219C83.0875 55.2139 83.3621 54.4769 84.1135 54.2746C84.677 54.8815 85.2406 57.1646 87.5237 56.2832C87.5237 57.0635 87.3503 61.0083 87.3069 61.3262C87.1196 62.2785 87.0181 63.2457 87.0035 64.2162C87.0035 67.1062 88.3329 68.6957 89.8068 71.7158C90.038 72.1926 88.8242 72.655 88.2173 72.9874C87.3611 72.672 86.4751 72.4444 85.5729 72.3082C82.7696 71.6291 80.5299 73.0885 78.1167 73.7532C77.7077 73.7558 77.2999 73.7072 76.9029 73.6087C75.9926 73.522 75.0389 74.4468 73.7528 74.6202C73.4175 74.686 73.0702 74.6496 72.7558 74.5156C72.4415 74.3816 72.1747 74.1563 71.9899 73.8688C71.8341 73.3396 71.7229 72.7982 71.6576 72.2504C71.5275 71.7302 71.3686 71.21 71.253 70.7043C71.0218 69.6639 71.7009 69.2593 70.9062 67.8143C70.3571 66.8317 70.3715 67.2652 70.5594 66.4704ZM71.1085 95.9484C72.0815 94.102 72.875 92.1664 73.4783 90.1684C74.2875 95.197 74.721 97.7402 74.9233 99.0118C73.8684 98.1304 73.7673 97.798 71.1085 95.8906V95.9484ZM75.4435 101.83C76.1515 106.165 75.9926 105.182 76.1226 106.078C75.7774 105.428 75.3554 104.821 74.8655 104.272C75.0272 103.317 75.0998 102.35 75.0822 101.382L75.4435 101.83ZM70.2126 104.431C69.3497 103.533 68.5619 102.567 67.8572 101.541C68.5717 99.8696 69.3773 98.2392 70.2704 96.6565C73.3049 98.9829 73.0737 98.954 73.8251 99.8933C73.9354 101.124 73.9354 102.362 73.8251 103.592L70.2126 104.431ZM70.4004 105.37C72.12 109.199 72.8136 115.485 73.1748 119.675C71.371 114.397 68.9456 109.352 65.9498 104.647C66.5357 103.847 67.0575 103.001 67.5104 102.119C68.1056 103.227 68.8177 104.268 69.6346 105.225C69.739 105.291 69.8565 105.333 69.9789 105.348C70.1013 105.363 70.2255 105.351 70.3426 105.312L70.4004 105.37ZM61.8171 74.4468C61.9347 74.4833 62.0558 74.5076 62.1784 74.5191C62.5148 74.5039 62.8374 74.3804 63.0978 74.1668C63.3583 73.9532 63.5426 73.6611 63.6234 73.3342C63.8546 73.1897 64.028 73.0307 64.0135 72.7562C63.9991 72.4816 60.8923 68.2333 64.8516 66.0514C65.2008 66.0135 65.5518 66.1041 65.839 66.3062C66.1262 66.5083 66.33 66.8081 66.4122 67.1496C66.5992 67.9204 66.994 68.6251 67.5538 69.187C67.5975 70.1106 67.7184 71.029 67.915 71.9325C68.0306 72.4672 67.626 73.1608 67.5393 73.8977C67.337 75.3427 68.7387 76.9322 69.2444 78.2327C69.9236 79.9812 69.4612 81.8597 71.0796 83.4058C72.698 84.952 72.3945 83.6804 72.9581 87.1484C72.2839 89.8738 71.355 92.5299 70.1837 95.0814C68.5508 92.7694 60.2854 79.2731 58.6237 76.1953C59.245 75.8196 61.1813 74.7214 61.7593 74.389L61.8171 74.4468ZM57.4821 76.3687C58.537 78.8252 69.0421 95.4716 69.0421 95.6161C68.5364 97.22 65.6319 103.867 64.2592 104.59C61.2391 102.436 52.9593 79.7933 52.3668 77.7414C53.9971 77.043 55.712 76.5621 57.4677 76.3109L57.4821 76.3687ZM72.3945 140.165C70.805 139.66 65.6753 122.247 61.0946 112.609C58.3491 106.829 52.9593 97.2778 47.0781 94.7346C40.7201 92.0036 28.9 98.5494 27.6429 107.046C26.8753 112.65 27.3288 118.353 28.9723 123.765C35.7927 144.385 45.0262 160.829 64.7505 165.54C65.2129 164.615 63.58 165.381 76.5561 165.727C75.9202 166.222 75.2434 166.662 74.5331 167.042C72.1055 168.357 67.496 167.303 64.0858 166.927L64.5193 165.988C44.2026 161.45 34.6945 144.313 27.8885 124.083C26.1697 118.508 25.6767 112.627 26.4435 106.844C27.744 97.6535 39.9832 91.0643 46.7602 93.3474C48.4882 93.9912 50.0701 94.9738 51.4131 96.2374C50.7687 90.4471 50.6092 84.6131 50.9363 78.7963C51.2018 78.5604 51.487 78.3477 51.7888 78.1605C53.0315 82.4955 60.112 103.217 63.7101 105.514C63.9383 105.649 64.2055 105.703 64.468 105.666C64.7305 105.629 64.9727 105.504 65.1551 105.312C68.4063 110.904 71.4408 116.626 72.6546 122.652C73.3413 125.978 73.5167 129.389 73.1748 132.767C71.1229 124.27 65.4441 111.988 58.9849 106.107C65.5886 117.508 70.4004 135.744 72.5535 139.342C73.4147 139.579 74.2945 139.743 75.1834 139.833C74.8077 131.163 74.5187 113.086 70.8484 105.24C71.2963 105.24 74.4609 104.561 74.4609 104.561C75.0316 105.246 75.5168 105.998 75.9059 106.8C76.4983 107.942 76.296 107.075 77.1919 113.144C81.5269 141.162 81.2813 141.018 81.8448 141.321C79.0126 140.96 74.0274 140.657 72.3945 140.165ZM81.9893 134.385C76.3538 102.393 76.296 101.497 73.9262 88.1454C74.1141 87.5096 74.2586 86.9894 74.3597 86.6137C75.2556 87.7553 80.1397 94.0121 80.6744 95.3849C79.8796 96.0929 77.0185 97.3067 77.8855 98.2749C78.2757 98.7228 81.498 101.512 82.5095 102.523C83.0586 104.85 82.1916 130.339 81.9893 134.385ZM46.6735 214.915C47.0781 213.08 49.7225 201.144 50.4594 199.468C50.9941 198.226 68.4208 188.978 71.1663 188.284C75.1256 187.244 96.685 189.382 98.1878 190.35C98.8662 192.871 99.2636 195.459 99.3727 198.067C96.9451 195.177 78.1601 195.942 77.9578 200.017C77.9538 200.151 77.9819 200.284 78.0397 200.404C78.0975 200.525 78.1834 200.63 78.2901 200.711C78.2806 202.458 78.4795 204.199 78.8826 205.898C67.785 208.89 56.6874 212.011 46.6735 214.915ZM101.771 212.661C102.508 215.045 93.8528 216.071 91.3529 216.36C88.3846 216.783 85.3626 216.631 82.4517 215.912C81.1801 215.566 78.8248 214.641 78.3768 213.485C78.1601 212.936 78.8681 212.415 79.3883 212.141C80.0474 211.797 80.7462 211.535 81.4691 211.361C82.2563 212.445 83.312 213.307 84.5325 213.86C85.9775 214.496 92.1477 214.048 94.2863 213.586C95.2255 213.384 96.2226 213.109 97.6387 210.84C98.5057 210.97 101.526 211.866 101.771 212.661ZM94.8643 212.155C93.7805 212.806 86.122 213.326 84.9516 212.849C81.079 211.303 78.9693 205.263 78.8103 201C81.9584 201.692 85.1895 201.931 88.4051 201.708C90.8183 201.39 96.526 200.407 98.6213 199.353C99.8784 204.092 97.2196 210.783 94.8643 212.155ZM102.942 204.699C102.551 205.473 102.001 206.156 101.329 206.703C100.657 207.251 99.8771 207.651 99.0403 207.878C99.7963 205.851 100.154 203.697 100.095 201.535C100.209 201.296 100.375 201.085 100.58 200.918C100.785 200.75 101.025 200.631 101.282 200.567C101.539 200.504 101.807 200.498 102.066 200.55C102.326 200.602 102.571 200.712 102.783 200.87C103.867 201.578 103.39 203.471 102.942 204.699ZM251.777 85.6456C261.545 91.0354 265.88 93.2896 269.001 98.0148C267.038 96.3264 264.539 95.3894 261.95 95.3704C252.687 95.0525 248.135 108.766 245.766 117.638C241.835 132.435 244.248 151.162 244.032 153.907C241.532 156.234 228.729 162.881 223.007 165.988C223.802 162.635 226.634 149.702 228.483 144.602C230.969 137.752 238.122 121.799 238.598 118.331C238.728 117.306 238.526 117.175 235.492 115.21C236.662 115.21 239.827 114.892 240.809 114.705C241.228 114.705 241.445 114.517 241.604 113.635C242.139 110.572 243.179 85.3277 243.266 82.64C243.165 82.5822 250.534 84.9375 251.82 85.6456H251.777ZM240.636 82.192C241.294 82.1446 241.955 82.218 242.587 82.4088C241.864 92.885 241.142 111.309 240.462 113.664C239.697 113.809 236.98 113.996 235.925 114.069C233.671 114.199 233.613 114.069 233.382 114.387C233.151 114.705 233.469 115.138 233.888 115.427C234.625 115.947 237.081 117.493 237.428 117.898C237.094 119.618 236.581 121.299 235.896 122.912C227.732 144.587 228.223 137.926 222.732 161.696C223.099 150.309 224.151 138.955 225.882 127.695C227.038 121.496 228.44 115.673 233.107 102.408C234.943 97.2778 238.743 87.4518 238.887 87.5096C239.612 85.7827 240.211 84.0055 240.679 82.192H240.636ZM215.536 170.872C215.811 171.941 215.811 171.796 215.724 171.811L215.276 171.724C215.276 171.58 214.496 157.072 214.872 151.075C215.551 140.454 216.418 128.938 217.227 117.84C217.617 112.465 219.091 100.919 219.048 101.353L220.493 100.283C221.092 101.48 221.773 102.634 222.53 103.737C222.819 104.127 223.209 104.618 223.672 104.662C223.354 107.277 218.542 139.544 217.126 160.164C216.345 171.392 217.126 169.008 215.984 170.034C215.849 170.125 215.74 170.251 215.669 170.398C215.598 170.545 215.567 170.709 215.58 170.872H215.536ZM224.12 104.676C225.218 104.676 226.403 102.364 227.848 101.382C228.411 101.974 230.116 104.806 231.243 105.182C226.46 118.303 221.345 136.596 221.36 166.797C220.131 167.461 218.47 168.415 217.241 169.123C217.964 156.826 223.195 116.467 224.163 104.676H224.12ZM239.292 85.2554C238.83 86.7004 231.966 103.275 231.489 104.04C230.744 103.31 230.08 102.501 229.509 101.627C228.296 99.9944 227.877 99.4598 225.81 101.786C228.874 96.0062 234.856 90.1395 237.37 87.2206C239.769 84.4751 239.451 84.7063 239.292 85.2554ZM206.924 54.9104C208.002 55.2424 209.155 55.2424 210.233 54.9104C211.058 54.5439 211.968 54.4138 212.863 54.5347C214.126 55.1168 215.424 55.6187 216.75 56.0375C218.39 56.0231 220.027 55.8927 221.649 55.6474C222.392 55.9946 223.021 56.5455 223.464 57.2361C223.906 57.9267 224.144 58.7287 224.148 59.5489C221.455 59.9399 218.856 60.8163 216.475 62.1354C216.329 61.661 216.04 61.2435 215.646 60.9407C215.253 60.6379 214.775 60.4646 214.279 60.4448C211.91 60.1597 209.516 60.1306 207.141 60.3581C206.93 58.5116 206.858 56.652 206.924 54.7948V54.9104ZM206.36 67.2363C205.999 66.6005 205.291 61.673 206.014 61.1384C206.129 61.2829 205.624 60.8349 208.369 60.8638C210.304 60.9249 212.234 61.0986 214.149 61.384C215.45 61.6152 215.666 62.2077 215.594 63.4648C215.594 65.7913 215.666 65.5601 215.594 66.2826C215.594 66.4849 215.507 67.0195 215.348 67.1351C212.376 67.673 209.331 67.6681 206.36 67.1207V67.2363ZM219.64 83.5214C215.681 82.3943 212.054 82.2498 209.612 77.2212C208.037 73.9844 208.904 73.0452 207.473 72.6261C206.943 72.5629 206.42 72.4467 205.913 72.2793C205.913 71.3112 207.126 69.2882 207.358 68.2622C209.757 68.5491 212.183 68.5491 214.583 68.2622C216.028 68.0455 216.793 67.7998 216.562 64.8665V62.6267C218.831 61.9331 223.643 60.7916 224.221 60.6326C224.224 61.4187 224.331 62.2009 224.539 62.9591C224.764 63.4358 225.154 63.8154 225.637 64.0284C225.714 64.0627 225.798 64.0787 225.882 64.0752C225.967 64.0717 226.049 64.0488 226.123 64.0083C226.197 63.9677 226.261 63.9107 226.31 63.8415C226.358 63.7723 226.39 63.6928 226.403 63.6093C226.735 62.2655 226.995 61.0661 227.096 60.4881C227.096 60.806 227.226 59.4766 228.18 58.9564C229.625 58.205 231.865 59.8812 232.024 62.251C232.11 63.407 230.954 65.5023 230.087 67.9154C229.567 69.3604 232.717 69.9818 233.815 70.5164C234.22 71.4557 233.974 72.5105 234.524 73.0741C235.348 73.5821 236.251 73.9484 237.197 74.1578C238.194 77.3518 238.919 80.6243 239.364 83.9405C235.694 87.7986 234.87 88.7234 233.888 89.7205C230.049 93.368 226.794 97.5836 224.235 102.22C223.209 96.1941 221.258 90.8765 221.042 89.128C220.868 87.7697 221.157 85.371 220.521 84.085C220.425 83.9319 220.296 83.8021 220.144 83.7046C219.991 83.6072 219.819 83.5447 219.64 83.5214ZM220.059 88.42C220.753 90.9921 222.602 99.3442 223.137 102.697C222.255 101.367 221.172 99.1708 221.172 99.1708C221.134 99.0924 221.079 99.0235 221.012 98.9692C220.944 98.9149 220.864 98.8766 220.78 98.8572C220.695 98.8377 220.607 98.8376 220.522 98.8569C220.438 98.8762 220.358 98.9143 220.29 98.9685L219.235 99.7777C219.64 96.0207 220.045 92.1914 220.102 88.42H220.059ZM219.64 87.1339C219.51 97.7691 217.386 107.248 216.519 117.84C213.629 153.445 213.629 151.697 213.918 164.297C212.357 152.91 210.175 130.758 208.976 118.751C209.828 118.1 213.947 114.965 214.409 114.011C214.626 113.549 214.409 113.072 213.369 113.072C211.56 113.208 209.744 113.208 207.936 113.072C209.034 108.592 215.319 92.2492 216.996 87.9142C217.848 87.6686 218.556 87.4229 219.64 87.1339ZM152.462 138.923C154.702 136.567 182.807 131.076 184.339 129.588C186.492 127.421 192.416 113.968 198.456 103.766C203.586 95.0959 206.375 91.888 216.36 88.2032C213.961 94.1422 209.279 105.76 207.17 112.523C207.04 112.942 206.852 113.404 207.17 113.679C207.964 114.459 211.288 113.996 213.195 114.025C211.851 115.369 208.152 118.1 208.152 118.1C208.081 118.153 208.025 118.223 207.989 118.304C207.954 118.386 207.94 118.475 207.95 118.563C208.557 125.267 212.285 165.28 213.903 171.088L211.302 170.424C209.621 169.598 207.795 169.107 205.927 168.979C209.222 152.592 208.037 148.012 208.441 139.082C208.441 138.157 204.54 119.574 204.511 119.43C204.511 119.368 204.487 119.31 204.443 119.266C204.4 119.223 204.341 119.198 204.28 119.198C204.218 119.198 204.16 119.223 204.116 119.266C204.073 119.31 204.048 119.368 204.048 119.43C204.294 125.759 206.086 131.784 207.314 138.692C202.69 143.027 197.849 149.023 189.974 150.974C185.105 152.202 162.302 157.173 159.268 157.39C156.783 154.615 152.072 140.772 152.462 138.923ZM149.716 140.845C149.716 140.845 151.45 140.426 151.422 140.151C152.771 145.228 154.47 150.206 156.508 155.049C155.194 155.455 153.851 155.76 152.491 155.959C151.667 155.959 152.245 156.682 150.237 151.913C148.999 148.949 147.937 145.914 147.058 142.824C146.812 141.827 146.393 141.928 149.716 140.845ZM132.796 143.894C133.937 142.636 134.761 142.449 146.176 143.894C147.191 147.339 148.422 150.717 149.861 154.009C147.512 155.84 144.819 157.181 141.942 157.953C141.856 157.332 141.653 157.52 142.145 157.563C142.56 157.575 142.972 157.493 143.351 157.325C143.73 157.156 144.067 156.904 144.336 156.588C144.605 156.272 144.8 155.899 144.906 155.498C145.011 155.096 145.026 154.676 144.948 154.269C144.832 152.824 140.7 149.818 139.529 148.994C140.224 149.137 140.945 149.082 141.61 148.835C141.669 148.816 141.719 148.774 141.747 148.719C141.776 148.663 141.781 148.599 141.762 148.539C141.743 148.48 141.701 148.43 141.645 148.402C141.59 148.374 141.525 148.368 141.466 148.387C139.038 149.023 136.581 146.133 136.264 146.047C135.151 145.772 135.844 148.359 133.374 149.905C133.012 150.136 131.625 149.616 131.538 148.908C131.356 148.031 131.375 147.125 131.593 146.257C131.81 145.388 132.222 144.581 132.796 143.894ZM116.64 148.445C118.49 147.781 127.911 144.862 130.628 145.555C130.322 146.71 130.253 147.914 130.426 149.096C130.518 149.471 130.689 149.822 130.929 150.125C131.169 150.428 131.471 150.676 131.815 150.851C132.16 151.027 132.538 151.126 132.924 151.142C133.31 151.158 133.695 151.091 134.053 150.945C135.06 150.274 135.817 149.288 136.206 148.142C137.492 148.922 143.879 153.156 143.792 154.659C143.792 155.67 143.257 156.523 142.246 156.436C141.392 156.13 140.585 155.707 139.847 155.179C139.105 154.586 138.323 154.046 137.506 153.561C137.376 153.493 137.226 153.476 137.085 153.513C136.943 153.55 136.82 153.637 136.739 153.759C136.658 153.881 136.626 154.029 136.647 154.174C136.669 154.318 136.743 154.45 136.856 154.543C136.856 154.543 137.94 155.352 139.139 156.133C140.945 157.578 141.567 158.907 139.327 159.586C138.976 159.69 138.608 159.721 138.245 159.676C137.882 159.631 137.532 159.512 137.217 159.326C136.849 158.599 136.36 157.939 135.772 157.375C135.51 156.7 135.039 156.126 134.429 155.737C133.818 155.347 133.099 155.162 132.376 155.208C131.625 155.295 131.567 155.67 131.64 155.323C131.986 153.604 129.79 152.564 128.258 152.853C125.787 153.344 124.415 156.61 123.605 158.994C123.114 160.034 125.05 158.878 116.597 161.884C116.835 157.687 116.835 153.48 116.597 149.283C116.525 148.286 116.496 148.518 116.64 148.445ZM124.01 159.153C124.805 157.448 126.553 154.254 128.417 153.965C129.14 153.835 130.599 154.326 130.44 155.063C130.127 157.02 129.225 158.835 127.854 160.265C128.027 160.554 123.504 160.641 124.01 159.153ZM132.189 156.393C132.535 156.046 134.558 156.754 134.616 157.838C134.717 159.644 132.998 161.797 131.509 162.794C131.033 163.126 129.154 161.595 128.721 160.973C129.753 159.357 130.912 157.825 132.189 156.393ZM134.631 161.205C134.732 161.06 136.177 157.852 136.422 160.511C136.524 161.551 134.977 162.101 133.966 161.956C134.201 161.718 134.423 161.467 134.631 161.205ZM166.767 179.99C160.684 184.715 159.817 190.928 160.814 198.341C151.046 194.873 143.59 192.561 140.685 192.315C136.754 192.396 132.842 192.881 129.01 193.76C129.4 189.873 129.226 176.233 126.466 173.429C123.706 170.626 113.693 166.797 109.921 165.352H110.774C111.106 165.178 110.557 163.661 111.814 163.574C113.331 163.488 115.456 164.066 116.149 163.459C116.356 163.144 116.476 162.78 116.496 162.404C118.085 161.898 121.828 160.757 123.721 160.265C124.357 160.77 125.102 161.121 125.897 161.289C126.692 161.457 127.515 161.438 128.302 161.234C128.735 162.202 130.758 164.326 132.015 163.632C132.364 163.431 132.697 163.204 133.012 162.953C133.926 163.206 134.897 163.166 135.787 162.837C136.258 162.709 136.678 162.439 136.99 162.065C137.303 161.69 137.493 161.228 137.535 160.742C138.292 160.96 139.098 160.925 139.834 160.643C140.569 160.362 141.192 159.849 141.61 159.182C144.778 158.47 147.743 157.047 150.28 155.02C150.555 155.612 150.815 156.118 151.031 156.465C151.103 156.587 151.204 156.689 151.325 156.762C151.446 156.835 151.584 156.877 151.725 156.884C153.17 157.029 156.58 155.439 156.725 155.439C157.22 156.472 157.836 157.442 158.56 158.329C158.82 158.589 159.253 158.517 159.658 158.474C163.849 157.968 184.657 153.488 190.22 152.101C197.445 150.295 202.156 145.223 207.112 140.397C206.837 148.691 207.921 152.737 204.641 169.022C197.82 169.87 191.063 171.164 184.411 172.895C178.588 174.556 171.652 176.204 166.767 180.004V179.99ZM187.85 208.499L187.344 208.297C187.229 200.957 189.049 194.194 194.425 189.18C194.9 189.301 195.383 189.393 195.87 189.454C190.335 194.194 188.153 201.101 187.85 208.499ZM210.667 184.411C206.332 186.955 207.603 188.327 203.629 188.746C200.446 188.965 197.247 188.717 194.136 188.009C191.621 187.2 192.951 186.232 195.581 185.943C196.029 186.015 199.555 186.044 201.216 185.943C201.352 185.921 201.476 185.852 201.565 185.747C201.654 185.643 201.703 185.51 201.703 185.372C201.703 185.235 201.654 185.102 201.565 184.997C201.476 184.893 201.352 184.823 201.216 184.801C199.342 184.64 197.459 184.611 195.581 184.715C194.385 184.697 193.193 184.557 192.026 184.296C191.91 184.106 191.842 183.891 191.83 183.669C191.817 183.447 191.86 183.226 191.954 183.024C193.471 182.114 200.624 182.461 201.809 182.417C201.948 182.395 202.075 182.324 202.167 182.217C202.259 182.11 202.309 181.973 202.309 181.832C202.309 181.691 202.259 181.554 202.167 181.447C202.075 181.34 201.948 181.269 201.809 181.247C199.438 181.297 197.066 181.171 194.714 180.871C193.702 180.698 191.347 180.192 191.52 179.166C191.838 177.316 195.639 178.906 198.312 178.718C200.198 178.69 202.065 178.338 203.832 177.678C203.964 177.637 204.075 177.546 204.14 177.424C204.205 177.302 204.219 177.16 204.179 177.027C204.138 176.895 204.047 176.784 203.925 176.719C203.803 176.654 203.661 176.64 203.528 176.681C201.72 177.115 199.886 177.434 198.037 177.634C197.92 177.61 197.816 177.544 197.744 177.448C197.672 177.352 197.638 177.233 197.647 177.114C197.668 176.844 197.736 176.58 197.849 176.334C198.595 175.362 199.595 174.617 200.739 174.181C204.843 172.476 207.964 174.181 212.661 174.484C213.25 177.156 213.998 179.791 214.9 182.374C213.46 182.95 212.064 183.631 210.724 184.411H210.667ZM216.186 182.648C215.681 180.943 213.802 174.759 213.614 173.314C214.36 172.949 215.146 172.673 215.955 172.49C216.62 174.961 217.848 179.253 218.643 181.651C217.868 182.039 217.066 182.372 216.244 182.648H216.186ZM220.276 182.648C219.51 180.914 217.241 172.837 216.721 170.814C219.207 168.776 241.517 157.809 244.841 154.471C245.881 153.431 242.37 133.851 246.488 117.739C248.685 109.069 252.991 95.4427 261.877 95.7461C267.975 95.9484 271.458 100.601 273.437 106.41C277.064 117.103 275.619 131.943 275.619 131.799C275.619 143.922 271.284 162.144 262.614 170.814C256.068 177.374 224.351 183.385 220.334 182.692L220.276 182.648ZM279.853 193.63C278.163 193.182 270.403 190.321 267.123 190.047C250.086 188.602 251.141 185.365 240.607 180.741C246.387 179.296 259.233 175.944 263.496 171.724C272.498 162.794 276.66 144.385 276.616 131.929C276.951 127.567 276.951 123.185 276.616 118.823C279.81 136.943 281.775 188.139 279.853 193.63Z" fill="#1D1B20"/>
<path fill-rule="evenodd" clip-rule="evenodd" d="M56.4272 95.9483L51.6876 96.4974C53.1325 97.8562 54.4483 99.3462 55.618 100.948L56.933 96.613C56.9731 96.5353 56.9903 96.4478 56.9828 96.3607C56.9752 96.2736 56.943 96.1905 56.8901 96.1209C56.8372 96.0513 56.7656 95.9982 56.6836 95.9676C56.6017 95.9371 56.5128 95.9304 56.4272 95.9483ZM193.5 227.819C192.308 227.064 190.992 226.526 189.613 226.23C192.893 220.897 192.301 214.67 191.434 214.12C190.617 213.289 189.531 212.776 188.37 212.675C184.035 211.765 173.53 211.693 170.756 214.005C170.149 214.511 169.787 215.334 170.38 215.883C170.098 219.308 170.816 222.742 172.446 225.767C171.001 226.042 169.325 226.591 168.776 227.891C168.681 228.171 168.655 228.469 168.701 228.761C168.746 229.053 168.861 229.33 169.036 229.567C170.145 230.943 171.664 231.93 173.371 232.385C176.387 233.303 179.551 233.632 182.691 233.353C185.691 233.231 188.666 232.746 191.549 231.908C194.743 230.723 194.714 228.773 193.5 227.819ZM170.886 216.143C173.992 216.992 177.203 217.391 180.423 217.328C183.933 217.088 187.399 216.408 190.74 215.305C191.029 217.293 190.923 219.319 190.427 221.265C189.931 223.212 189.055 225.042 187.85 226.649C187.559 227.159 187.138 227.584 186.631 227.881C186.124 228.177 185.548 228.335 184.96 228.339C182.937 228.599 177.417 228.744 176.29 228.238C172.634 226.547 170.828 220.406 170.886 216.143ZM182.634 232.038C179.651 232.321 176.641 232.017 173.776 231.143C172.478 230.789 171.284 230.13 170.293 229.221C170.062 228.975 169.686 228.484 169.802 228.18C170.178 227.227 172.013 226.735 173.024 226.562C173.748 227.666 174.743 228.567 175.914 229.177C177.359 229.914 185.365 229.828 186.853 229.062C187.781 228.495 188.567 227.724 189.15 226.808C190.003 227.053 192.98 228.065 193.182 228.874C193.832 231.359 185.235 231.952 182.634 232.111V232.038Z" fill="#1D1B20"/>
</svg>
