<svg width="241" height="240" viewBox="0 0 241 240" fill="none" xmlns="http://www.w3.org/2000/svg">
<g clip-path="url(#clip0_51_36)">
<path d="M99.3986 61.4603C98.5692 59.2491 97.9575 56.7626 98.0194 54.0903L98.1045 53.0852L98.1527 52.5833C98.1781 52.4164 98.2152 52.2497 98.2471 52.083L98.4545 51.0849C98.5404 50.7565 98.6574 50.4357 98.7615 50.1121C98.9633 49.4684 99.236 48.8212 99.5602 48.2183C99.7122 47.9091 99.8979 47.6245 100.069 47.3288C100.258 47.049 100.437 46.7579 100.642 46.4925C101.442 45.409 102.37 44.4572 103.381 43.6476C104.389 42.831 105.476 42.1466 106.615 41.5834C108.895 40.4664 111.355 39.8033 113.839 39.627C116.321 39.4281 118.822 39.7115 121.211 40.405C123.587 41.1229 125.876 42.2885 127.806 43.8661C131.675 46.994 134.301 51.503 135.013 56.4406C135.372 58.9361 135.191 61.2074 135.172 63.2277C135.137 65.2507 135.248 67.0388 135.829 68.4445C136.357 69.824 137.458 71.0451 138.832 71.9007C140.205 72.7546 141.857 73.2556 143.449 73.23C145.026 73.2167 146.673 72.7089 148.117 71.8197C149.567 70.928 150.82 69.6514 151.729 68.1894C151.96 67.8254 152.157 67.4435 152.343 67.0586L152.598 66.4699L152.829 65.8388C153.121 64.971 153.359 64.0204 153.588 63.0159C154.061 61.0116 154.433 58.7643 155.474 56.4088C156.025 55.1717 156.806 53.911 157.858 52.8544C158.902 51.7637 160.178 50.9859 161.426 50.4256C163.905 49.3289 166.577 48.8905 169.21 49.0115C171.839 49.1359 174.388 49.82 176.696 50.9121C179.007 52.0034 181.107 53.4714 182.914 55.2371C184.717 57.0059 186.241 59.0642 187.374 61.3504C187.934 62.4964 188.393 63.698 188.733 64.9398C188.824 65.2484 188.901 65.561 188.965 65.878C189.034 66.1933 189.108 66.5094 189.143 66.8218C189.228 67.4486 189.329 68.0747 189.391 68.703C189.613 71.2249 189.371 73.7582 188.798 76.1806C188.22 78.6056 187.297 80.924 186.11 83.0818C184.511 85.9537 182.446 88.5468 180.022 90.7624C177.604 92.9655 174.706 94.7595 171.803 96.0519C168.892 97.3779 165.957 98.339 163.145 99.3413C160.335 100.336 157.636 101.366 155.21 102.711C150.408 105.398 146.41 109.582 143.915 114.509C142.641 116.96 141.777 119.603 141.3 122.293C141.065 123.583 141.01 124.862 141.137 126.065C141.208 126.659 141.315 127.235 141.485 127.746C141.657 128.254 141.877 128.702 142.132 129.07C142.383 129.447 142.691 129.707 143.032 129.93C143.192 130.056 143.399 130.116 143.58 130.217C143.676 130.254 143.777 130.271 143.873 130.305L144.018 130.354L144.174 130.374C144.975 130.536 146.013 130.341 147.103 129.889C148.194 129.416 149.313 128.728 150.377 127.897C150.915 127.493 151.432 127.039 151.95 126.582L153.582 125.08C155.743 123.061 157.841 120.974 159.869 118.823C160.883 117.748 161.88 116.657 162.86 115.551L165.836 112.141C166.874 110.977 167.982 109.8 169.236 108.692C169.865 108.14 170.53 107.606 171.236 107.108C171.942 106.611 172.701 106.149 173.475 105.743C176.587 104.097 180.111 103.399 183.514 103.448C186.932 103.495 190.254 104.291 193.322 105.59C196.391 106.897 199.224 108.729 201.652 111.038C202.858 112.186 203.997 113.475 204.937 114.835C205.409 115.51 205.89 116.179 206.292 116.895L206.922 117.954C207.116 118.315 207.296 118.682 207.483 119.046C208.963 121.966 209.997 125.069 210.665 128.21C211.975 134.511 211.883 140.913 211.004 147.11C210.794 148.652 210.509 150.273 210.011 151.941C209.505 153.6 208.751 155.354 207.466 156.927C206.826 157.711 206.065 158.416 205.182 159.02C204.298 159.601 203.341 160.037 202.363 160.335C201.384 160.639 200.386 160.779 199.401 160.815C198.415 160.849 197.438 160.774 196.49 160.578C195.541 160.385 194.612 160.105 193.724 159.705C192.841 159.31 191.973 158.791 191.226 158.234C189.718 157.094 188.466 155.693 187.503 154.181C186.524 152.672 185.815 151.055 185.291 149.406C185.034 148.589 184.824 147.71 184.667 146.969L184.2 144.802C183.891 143.437 183.519 142.181 183.042 141.317C182.802 140.897 182.554 140.597 182.326 140.403C182.264 140.364 182.212 140.313 182.155 140.27C182.09 140.244 182.031 140.212 181.974 140.173C181.915 140.136 181.835 140.129 181.77 140.096C181.703 140.058 181.636 140.051 181.571 140.039C181.312 139.985 181.06 139.988 180.729 140.076C180.402 140.163 180.01 140.348 179.608 140.623C178.797 141.175 177.991 142.077 177.369 143.053C177.293 143.181 177.217 143.291 177.139 143.432L176.903 143.86C176.739 144.141 176.605 144.439 176.457 144.73C176.31 145.021 176.19 145.326 176.053 145.623L175.696 146.537C175.254 147.768 174.93 149.045 174.73 150.34C174.53 151.634 174.454 152.948 174.519 154.25C174.579 155.574 174.772 156.766 175.083 158.254C175.23 158.981 175.389 159.757 175.521 160.578C175.657 161.394 175.764 162.274 175.786 163.219C175.807 163.683 175.777 164.187 175.746 164.683L175.644 165.456C175.612 165.712 175.535 165.983 175.478 166.245C175.209 167.297 174.749 168.385 174.069 169.303C173.913 169.543 173.719 169.741 173.541 169.959C173.36 170.171 173.175 170.383 172.964 170.577C172.552 170.969 172.11 171.313 171.653 171.612C171.196 171.913 170.724 172.166 170.244 172.382C169.752 172.608 169.311 172.738 168.848 172.899C167 173.497 165.037 173.643 163.206 173.473C161.366 173.307 159.639 172.852 158.035 172.262C156.433 171.665 154.944 170.931 153.529 170.14C152.103 169.339 150.804 168.501 149.542 167.705C148.279 166.908 147.053 166.142 145.837 165.475C145.089 165.066 144.344 164.7 143.602 164.375C142.861 164.057 142.121 163.8 141.385 163.594C141.017 163.501 140.65 163.409 140.283 163.349L140.01 163.298L139.763 163.273C139.597 163.26 139.438 163.223 139.268 163.224C138.595 163.181 137.9 163.246 137.216 163.355C136.532 163.482 135.871 163.696 135.249 163.956C134.637 164.235 134.087 164.58 133.615 164.961C133.151 165.35 132.81 165.786 132.556 166.226C132.287 166.664 132.194 167.137 132.135 167.636C132.096 168.141 132.159 168.654 132.335 169.194C132.511 169.731 132.8 170.29 133.187 170.833C133.971 171.919 135.114 172.924 136.384 173.695C136.548 173.788 136.699 173.882 136.872 173.976L137.405 174.258C137.771 174.441 138.143 174.621 138.53 174.794C139.303 175.142 140.12 175.473 140.97 175.811C142.668 176.489 144.504 177.179 146.365 178.155C146.829 178.402 147.293 178.66 147.754 178.945C148.214 179.231 148.714 179.562 149.156 179.91C150.061 180.606 150.892 181.391 151.639 182.272C152.387 183.152 153.046 184.141 153.572 185.248C154.095 186.353 154.482 187.591 154.605 188.924C154.62 189.091 154.639 189.256 154.647 189.423L154.646 189.933L154.637 190.443L154.578 190.955L154.51 191.466C154.482 191.636 154.436 191.802 154.398 191.97L154.271 192.471L154.238 192.595L154.206 192.693L154.141 192.884C153.818 193.904 153.392 194.926 152.867 195.925C152.34 196.924 151.696 197.903 150.914 198.803C150.134 199.704 149.213 200.519 148.198 201.186C146.16 202.536 143.823 203.222 141.633 203.472C139.427 203.725 137.32 203.602 135.306 203.337C131.279 202.783 127.576 201.664 123.983 200.523L118.691 198.796C116.958 198.242 115.241 197.714 113.608 197.346C112.795 197.164 112.004 197.028 111.3 196.97C110.959 196.949 110.628 196.938 110.365 196.959C110.014 197 109.605 197.024 109.238 197.092C107.731 197.322 106.311 197.796 104.929 198.517C103.543 199.229 102.195 200.204 100.782 201.304C99.3624 202.405 97.8871 203.644 96.1516 204.799C95.2865 205.374 94.3616 205.924 93.372 206.407C92.3773 206.883 91.3209 207.284 90.2332 207.585C89.1458 207.897 88.0244 208.063 86.9167 208.161L86.0858 208.213C85.8101 208.222 85.537 208.218 85.2623 208.219L84.851 208.219L84.4868 208.21L83.7677 208.186C81.8337 208.109 79.7305 207.972 77.5321 207.36C76.4376 207.055 75.328 206.615 74.278 206.025C73.2306 205.437 72.2617 204.695 71.4136 203.852C69.7091 202.16 68.5329 200.078 67.8146 197.959C67.0881 195.83 66.8048 193.646 66.8101 191.5C66.8153 189.351 67.1406 187.231 67.7358 185.176C68.0328 184.148 68.4055 183.138 68.8599 182.155C69.3057 181.171 69.8639 180.196 70.4137 179.351C72.645 175.863 75.4879 172.967 78.3744 170.429C81.2635 167.877 84.2235 165.601 86.9384 163.251C88.3094 162.067 89.5554 160.907 90.7309 159.646C91.9026 158.391 92.9899 157.071 93.9238 155.684C95.7959 152.924 97.1479 149.898 97.4185 146.91L97.4648 145.797C97.4729 145.427 97.4224 145.063 97.4108 144.695C97.4046 144.604 97.4039 144.511 97.394 144.42L97.3462 144.15L97.2556 143.608C97.2068 143.235 97.1238 142.912 97.0276 142.592C96.8348 141.954 96.5645 141.383 96.2657 140.949C95.96 140.52 95.6494 140.241 95.3431 140.087C94.997 139.924 94.6853 139.852 94.2707 139.877C93.8594 139.902 93.3388 140.05 92.7834 140.325C91.6648 140.871 90.4755 141.88 89.5019 143.042C89.3761 143.185 89.2556 143.332 89.1425 143.485C89.0261 143.636 88.914 143.775 88.7769 143.967L87.9779 145.072C87.435 145.828 86.8604 146.622 86.2244 147.421C85.5868 148.221 84.886 149.033 84.0576 149.815C83.2293 150.593 82.2671 151.352 81.1139 151.945C80.8239 152.09 80.5219 152.222 80.2239 152.355C79.92 152.48 79.598 152.578 79.2834 152.684C78.6417 152.867 77.9898 153.009 77.2891 153.059C75.9091 153.178 74.5122 152.981 73.259 152.545C72.0042 152.105 70.9024 151.439 69.9384 150.666C68.9764 149.888 68.1438 148.998 67.4661 148.011C66.783 147.027 66.2263 145.96 65.8131 144.822C65.6263 144.242 65.4451 143.661 65.3355 143.049C65.2645 142.74 65.2271 142.454 65.1927 142.17C65.1558 141.883 65.1168 141.597 65.1051 141.311C64.9234 139.009 65.2954 136.791 65.8697 134.753C67.0546 130.679 69.1641 127.245 70.9092 124.102C71.7865 122.521 72.5933 120.985 73.2098 119.46C73.8138 117.957 74.2912 116.351 74.3446 115.099C74.378 114.459 74.3148 113.886 74.1689 113.405C74.0269 112.919 73.797 112.524 73.4709 112.165C72.8424 111.443 71.6877 110.869 70.3396 110.63C69.6701 110.505 68.9594 110.455 68.26 110.488C67.5615 110.516 66.8686 110.625 66.2759 110.805C65.6057 111.019 64.8759 111.305 64.1831 111.653C63.4827 112.007 62.7835 112.416 62.0838 112.868C60.6836 113.787 59.2836 114.879 57.814 116.027C57.0792 116.601 56.3193 117.188 55.532 117.77C54.7574 118.348 53.8753 118.947 52.9988 119.483C51.2226 120.558 49.2931 121.49 47.1336 122.086C46.0621 122.393 44.9114 122.578 43.7313 122.646C42.5518 122.718 41.3155 122.622 40.1094 122.336C37.6828 121.808 35.4489 120.404 33.8249 118.618C33.6051 118.404 33.4371 118.163 33.2499 117.931C33.07 117.696 32.8788 117.464 32.7128 117.223L32.2457 116.488L32.0153 116.119L31.8182 115.742L31.4304 114.984C31.3048 114.731 31.2093 114.473 31.0988 114.217C30.8715 113.705 30.7012 113.189 30.5324 112.671C29.867 110.598 29.558 108.513 29.4575 106.445C29.4321 105.928 29.4138 105.411 29.4243 104.896C29.4186 104.379 29.443 103.864 29.4716 103.349C29.4864 102.822 29.5589 102.354 29.6022 101.856L29.754 100.381C30.3423 95.6483 31.6873 91.035 33.5364 86.6757C33.749 86.1216 34.024 85.5971 34.2693 85.0586C34.5247 84.525 34.7668 83.9843 35.0346 83.4576L35.8685 81.8943L36.2866 81.1134L36.7382 80.3528L37.6463 78.8354C37.9513 78.3313 38.2906 77.8501 38.6116 77.357C38.9431 76.8711 39.2496 76.3675 39.6022 75.8975L40.6427 74.4755C43.4394 70.7004 46.68 67.2947 50.1724 64.2226C51.9012 62.6822 53.7635 61.2009 55.8475 59.9021C57.9256 58.6131 60.2771 57.5267 62.8524 57.0145C63.1639 56.9607 63.4618 56.8969 63.78 56.8564C64.1005 56.8208 64.4195 56.7771 64.7363 56.7549C65.0528 56.7409 65.3678 56.7251 65.6804 56.7188C65.992 56.7276 66.3019 56.7364 66.6102 56.7453C67.8389 56.8236 69.0246 57.0539 70.1479 57.42C71.2707 57.7865 72.3325 58.2907 73.2989 58.9299C74.2652 59.5687 75.123 60.367 75.8253 61.2642C76.0016 61.4885 76.1763 61.7106 76.321 61.9565C76.4681 62.199 76.6297 62.4293 76.7539 62.6808C76.8756 62.9329 76.9965 63.1836 77.1167 63.4327C77.2262 63.6917 77.3169 63.9682 77.4111 64.2335C77.7419 65.3051 77.8409 66.3192 77.8572 67.2531C77.874 69.1246 77.5624 70.7038 77.2607 72.159C76.6132 75.0412 75.8729 77.4087 75.4553 79.5083C75.0277 81.597 74.9036 83.3969 75.3162 84.8664C75.3818 85.1381 75.4868 85.3739 75.5642 85.6128C75.6736 85.8299 75.7604 86.0504 75.8655 86.2409C75.9773 86.4326 76.0801 86.6084 76.1736 86.7688C76.2837 86.9193 76.3829 87.0613 76.4708 87.1936C76.837 87.7059 77.0525 88.0183 76.9932 88.1965C76.9412 88.3662 76.6395 88.3703 76.0555 88.1728C75.5067 87.9372 74.6355 87.4596 73.8457 86.4083C73.6547 86.1461 73.4498 85.8616 73.289 85.5378C73.1026 85.2191 72.9642 84.8701 72.8168 84.4976C72.5549 83.7551 72.3477 82.915 72.2539 82.027C72.0503 80.2451 72.1768 78.2584 72.4463 76.1468C72.7012 74.0374 73.1307 71.7508 73.2733 69.4506C73.3465 68.3069 73.2989 67.1743 73.0631 66.242C72.9912 66.0225 72.9309 65.7952 72.8367 65.6076L72.7758 65.4572L72.6863 65.3025L72.5144 64.9879C72.2382 64.5913 71.9397 64.1947 71.5429 63.8489C70.5572 62.9644 69.1766 62.3323 67.6832 62.0663C66.9359 61.9381 66.1651 61.8967 65.4085 61.9472C65.2184 61.9563 65.0294 61.9701 64.8444 62.0023C64.6573 62.0298 64.4752 62.0448 64.2748 62.0926C63.8815 62.1642 63.4897 62.2658 63.0976 62.3767C61.5301 62.8325 59.984 63.6281 58.4829 64.6159C56.9834 65.6103 55.5164 66.7856 54.0887 68.0848C48.3429 73.2005 43.4529 79.3761 40.081 86.053C38.1615 89.9023 36.7188 93.9703 35.8546 98.1458C35.7555 98.6688 35.6763 99.1952 35.5851 99.7197C35.5005 100.245 35.3928 100.768 35.3518 101.298C35.2426 102.353 35.1034 103.426 35.0773 104.425C35.0287 106.458 35.211 108.504 35.7238 110.383C35.9832 111.317 36.2994 112.226 36.7344 113.024C37.1584 113.828 37.6501 114.57 38.2526 115.144C38.8505 115.722 39.4942 116.228 40.257 116.53C40.9981 116.868 41.8011 117.049 42.6502 117.095C44.3503 117.188 46.2315 116.699 48.0366 115.868C48.9406 115.45 49.8303 114.951 50.6949 114.394C51.5491 113.844 52.4154 113.203 53.2936 112.534C55.0485 111.199 56.8369 109.724 58.8715 108.381C59.8883 107.711 60.9681 107.076 62.1266 106.531C62.413 106.391 62.7069 106.26 63.0092 106.141C63.3068 106.015 63.6072 105.894 63.9188 105.791C64.5047 105.57 65.2378 105.362 65.9063 105.235C67.2664 104.975 68.6141 104.914 69.9632 105.032C70.6373 105.086 71.311 105.192 71.9823 105.35C72.6533 105.502 73.3219 105.715 73.9797 105.99C74.6379 106.259 75.2854 106.602 75.901 107.024C76.5182 107.439 77.1045 107.939 77.6169 108.522C78.1336 109.098 78.5839 109.753 78.921 110.455C79.1058 110.801 79.2307 111.165 79.3703 111.526C79.4743 111.89 79.6028 112.258 79.6625 112.625C79.9618 114.098 79.9209 115.543 79.6972 116.866C79.6338 117.193 79.572 117.525 79.5025 117.846L79.2675 118.767C79.0952 119.374 78.9033 119.97 78.6927 120.554C77.8416 122.888 76.7133 124.997 75.6008 126.997C74.4847 129.001 73.3717 130.894 72.498 132.799C71.6191 134.705 70.9477 136.642 70.6993 138.534C70.5747 139.479 70.5571 140.408 70.6617 141.307C70.7153 141.774 70.7902 142.159 70.9093 142.564C71.0241 142.967 71.1797 143.367 71.3685 143.753C72.1119 145.298 73.4207 146.635 74.8286 147.215C75.5307 147.508 76.2346 147.616 76.9175 147.54C77.6191 147.464 78.3302 147.21 79.0131 146.771C80.4 145.879 81.6918 144.281 82.9651 142.511L83.9467 141.143L84.4645 140.432C84.6631 140.177 84.8539 139.916 85.061 139.668C85.8814 138.671 86.7936 137.747 87.8382 136.914C88.8842 136.087 90.0654 135.34 91.4732 134.826C91.8133 134.687 92.2043 134.603 92.5703 134.498C92.9544 134.417 93.3512 134.352 93.7513 134.309C94.5658 134.256 95.4205 134.278 96.2447 134.497C96.4502 134.55 96.6592 134.596 96.859 134.662L97.4444 134.895C97.8332 135.046 98.2133 135.249 98.5655 135.477C99.2753 135.931 99.8858 136.492 100.39 137.09C101.399 138.296 102.012 139.623 102.423 140.938C102.525 141.268 102.614 141.599 102.691 141.932C102.759 142.26 102.808 142.581 102.865 142.906C102.917 143.231 102.982 143.555 103.019 143.881L103.085 144.865C103.177 146.178 103.071 147.488 102.882 148.767C102.485 151.332 101.571 153.725 100.419 155.913C99.2616 158.105 97.8552 160.107 96.3093 161.956L95.7272 162.647L95.1217 163.314L94.5132 163.978L93.8839 164.618C93.4692 165.051 93.0354 165.461 92.6 165.87C92.1662 166.29 91.731 166.67 91.2963 167.061C89.5543 168.61 87.783 170.06 86.0535 171.496C82.6003 174.358 79.2948 177.2 76.784 180.475C76.1502 181.288 75.5854 182.135 75.065 182.999C74.5549 183.836 74.1618 184.677 73.822 185.586C73.1525 187.388 72.7955 189.337 72.772 191.254C72.7605 192.312 72.8502 193.364 73.0473 194.375C73.2533 195.382 73.5701 196.344 73.9935 197.22C74.4242 198.09 74.9689 198.862 75.6055 199.512C76.2545 200.148 76.993 200.664 77.8242 201.045C79.495 201.807 81.6673 202.036 84.0922 202.098L85.0091 202.12L85.7906 202.113L86.5578 202.061C86.8111 202.037 87.0589 201.995 87.31 201.966C88.3043 201.81 89.2547 201.529 90.1855 201.115C92.0515 200.301 93.8392 198.949 95.7956 197.381C97.7483 195.834 99.9175 194.084 102.556 192.806C103.864 192.167 105.269 191.655 106.703 191.317C107.42 191.144 108.144 191.022 108.865 190.929C109.234 190.892 109.568 190.85 109.964 190.821C110.402 190.794 110.816 190.795 111.215 190.809C112.798 190.884 114.148 191.169 115.443 191.481C116.736 191.797 117.951 192.168 119.143 192.546C122.928 193.764 126.514 195.094 130.106 196.115C131.897 196.626 133.683 197.068 135.442 197.356C137.199 197.644 138.935 197.784 140.548 197.658C142.161 197.534 143.626 197.139 144.81 196.4C146 195.672 146.96 194.595 147.693 193.22C148.057 192.535 148.374 191.792 148.627 190.998C148.67 190.887 148.675 190.833 148.692 190.766L148.743 190.569C148.787 190.439 148.778 190.299 148.807 190.166C148.832 189.892 148.829 189.611 148.794 189.318C148.659 188.146 147.953 186.812 146.931 185.694C144.979 183.432 141.559 182.247 137.853 180.744C136.924 180.362 135.971 179.95 135.015 179.472C134.075 179.005 133.059 178.421 132.145 177.75C130.317 176.407 128.651 174.722 127.512 172.483C126.952 171.368 126.548 170.099 126.433 168.758C126.417 168.422 126.401 168.085 126.4 167.749C126.419 167.412 126.443 167.075 126.474 166.739C126.535 166.403 126.601 166.068 126.673 165.734C126.702 165.566 126.75 165.402 126.809 165.241L126.978 164.756C127.454 163.475 128.209 162.32 129.112 161.39C130.022 160.468 131.051 159.741 132.128 159.167C134.293 158.049 136.64 157.508 139.04 157.546C139.341 157.559 139.64 157.553 139.942 157.586L140.848 157.69C141.419 157.789 141.976 157.886 142.52 158.032C143.614 158.305 144.668 158.665 145.662 159.09C149.656 160.784 152.873 163.236 156.03 165.048C156.816 165.504 157.61 165.911 158.407 166.29C159.205 166.657 160.007 166.977 160.809 167.242C161.61 167.489 162.409 167.688 163.194 167.8C163.977 167.897 164.747 167.93 165.488 167.864C166.225 167.778 166.941 167.628 167.624 167.368C168.257 167.14 168.758 166.815 169.133 166.441C169.524 166.029 169.789 165.605 169.952 165.07C170.119 164.537 170.177 163.863 170.134 163.093C170.058 161.539 169.59 159.73 169.229 157.675C168.866 155.549 168.774 153.365 168.963 151.217C169.152 149.068 169.606 146.943 170.328 144.906C170.69 143.888 171.105 142.886 171.602 141.922C171.838 141.43 172.111 140.971 172.384 140.486C172.687 139.986 173.006 139.499 173.364 139.035C174.072 138.105 174.886 137.235 175.866 136.463C176.849 135.701 178.026 135.025 179.442 134.666C180.845 134.288 182.522 134.397 183.901 134.96C184.256 135.081 184.589 135.264 184.919 135.455C185.26 135.631 185.549 135.869 185.846 136.098C186.429 136.568 186.902 137.111 187.304 137.662C188.092 138.772 188.551 139.898 188.906 140.96C189.257 142.027 189.495 143.051 189.708 144.032C189.919 145.004 190.102 145.97 190.303 146.798C190.502 147.612 190.76 148.408 191.077 149.168C191.709 150.688 192.584 152.063 193.672 153.129C194.774 154.213 196.011 154.916 197.45 155.231C197.977 155.346 198.512 155.4 199.04 155.408C199.569 155.411 200.082 155.339 200.571 155.227C201.063 155.119 201.506 154.919 201.919 154.694C202.331 154.469 202.689 154.175 203.035 153.814C203.713 153.101 204.262 152.138 204.664 150.998C205.071 149.861 205.353 148.59 205.572 147.247C206.464 141.796 206.656 136.209 205.782 130.856C205.343 128.183 204.629 125.574 203.594 123.122L203.204 122.203L202.757 121.315C202.605 121.021 202.466 120.719 202.305 120.43L201.799 119.578C201.625 119.297 201.477 118.999 201.283 118.733L200.72 117.92C200.349 117.365 199.962 116.865 199.541 116.375C196.2 112.454 191.319 109.685 186.215 108.832C183.666 108.413 181.063 108.49 178.656 109.159C177.453 109.491 176.3 109.969 175.23 110.589C174.168 111.205 173.158 111.994 172.188 112.881C170.247 114.664 168.467 116.887 166.484 119.094C164.524 121.286 162.498 123.418 160.408 125.486C159.363 126.521 158.303 127.539 157.227 128.541L155.602 130.032C155.062 130.525 154.445 131.055 153.838 131.54C152.596 132.514 151.267 133.43 149.735 134.165C149.341 134.339 148.963 134.525 148.541 134.669C148.333 134.743 148.132 134.824 147.917 134.89L147.262 135.073C146.376 135.292 145.426 135.442 144.424 135.385C143.929 135.386 143.423 135.283 142.924 135.196C142.677 135.139 142.433 135.057 142.188 134.982L141.823 134.865C141.705 134.817 141.591 134.762 141.475 134.71C140.536 134.331 139.687 133.706 138.968 132.998C138.242 132.282 137.699 131.442 137.296 130.595C136.885 129.745 136.611 128.875 136.439 128.021C136.258 127.164 136.163 126.316 136.139 125.482C136.106 124.646 136.139 123.823 136.224 123.01C136.259 122.602 136.322 122.199 136.381 121.795L136.605 120.647C136.737 119.878 136.962 119.132 137.15 118.378C138.664 113.038 141.567 108.151 145.43 104.191C147.373 102.219 149.57 100.491 151.961 99.0685C154.352 97.6286 156.876 96.587 159.353 95.6623C161.836 94.7471 164.288 93.9548 166.64 93.0807C168.979 92.1992 171.249 91.2451 173.25 89.9992C177.27 87.5481 180.607 83.8835 182.668 79.6554C183.698 77.5419 184.403 75.2844 184.696 72.992C184.8 72.4204 184.808 71.8445 184.838 71.2698C184.894 70.694 184.838 70.1223 184.821 69.5492C184.826 68.9729 184.707 68.4116 184.64 67.8438C184.603 67.5597 184.569 67.2745 184.501 67.0055C184.443 66.732 184.387 66.458 184.305 66.189C183.134 61.8464 179.965 57.9807 175.977 55.7049C173.983 54.5654 171.774 53.8229 169.544 53.6267C168.429 53.5285 167.312 53.5646 166.222 53.7491C165.141 53.9322 164.043 54.263 163.095 54.715C162.621 54.9406 162.186 55.2014 161.798 55.493C161.408 55.7794 161.085 56.1223 160.769 56.4937C160.156 57.2451 159.685 58.1832 159.314 59.2508C158.56 61.3934 158.242 63.9572 157.436 66.636C157.039 67.9708 156.449 69.3828 155.67 70.6284C154.894 71.8818 153.952 73.0299 152.859 74.0208C150.685 76.0012 147.899 77.417 144.867 77.7905C141.796 78.1588 138.726 77.368 136.186 75.7548C134.918 74.9406 133.764 73.9139 132.855 72.6668C131.94 71.4348 131.278 69.9511 130.933 68.503C130.576 67.0447 130.489 65.6124 130.465 64.2531C130.452 62.898 130.511 61.6005 130.521 60.3662C130.526 59.1334 130.496 57.9592 130.308 56.8584C130.122 55.7431 129.802 54.6445 129.362 53.5924C128.482 51.4879 127.121 49.5699 125.419 48.0511C123.72 46.5261 121.678 45.4344 119.456 44.8444C117.24 44.2518 114.875 44.1545 112.615 44.5679C110.357 44.9783 108.193 45.9056 106.448 47.3072C105.574 48.0007 104.82 48.8155 104.235 49.7106C103.947 50.1603 103.687 50.6249 103.493 51.1119C103.396 51.3568 103.326 51.6168 103.237 51.8672C103.198 51.9945 103.144 52.1177 103.115 52.2478L103.038 52.6401C102.902 53.1562 102.884 53.6983 102.831 54.2343C102.846 54.7816 102.832 55.3268 102.92 55.8845C103.053 56.9943 103.328 58.1211 103.734 59.2381C104.125 60.3565 104.61 61.4687 105.164 62.5714C105.707 63.6761 106.312 64.7724 106.937 65.8746L108.851 69.2221C109.5 70.3669 110.107 71.5397 110.682 72.7302C112.97 77.4834 114.661 82.6727 114.97 88.1015C114.982 88.3712 115.007 88.6416 115.008 88.9104L115.003 89.716L114.991 91.3247C115.008 91.8592 114.923 92.3985 114.88 92.9348L114.722 94.5433L114.417 96.1415L114.26 96.9386C114.214 97.2048 114.114 97.4632 114.043 97.7255L113.57 99.2903C113.38 99.8024 113.157 100.305 112.949 100.811C112.06 102.809 110.871 104.698 109.365 106.306C107.854 107.907 106.072 109.238 104.107 110.194C103.128 110.682 102.104 111.068 101.013 111.358C100.466 111.493 99.8681 111.611 99.2757 111.64C98.6835 111.69 98.0966 111.657 97.5177 111.6C95.2112 111.314 93.0773 110.309 91.4344 108.726C90.6117 107.939 89.915 106.992 89.4496 105.911C89.2044 105.378 89.0484 104.801 88.9279 104.222C88.8381 103.636 88.7848 103.039 88.8355 102.449C88.913 101.267 89.2817 100.138 89.8171 99.1592C90.3528 98.1756 91.0425 97.3321 91.7865 96.59C92.1757 96.2005 92.5035 95.9009 92.8457 95.5795C93.1905 95.2637 93.5169 94.9335 93.8499 94.609C94.5114 93.9568 95.1443 93.2846 95.7616 92.6036C96.9734 91.2287 98.11 89.7995 99.019 88.2735C99.93 86.7573 100.658 85.1355 100.88 83.4935C101.121 81.8622 100.758 80.2196 99.6764 79.0659C98.612 77.9011 96.9556 77.2768 95.2929 77.2094C93.6237 77.1381 91.9129 77.5803 90.4999 78.496C89.7883 78.9468 89.1625 79.5249 88.6289 80.1783C88.1012 80.8372 87.6846 81.5851 87.3769 82.3768C87.2205 82.7721 87.0995 83.1812 86.9981 83.5955C86.8783 84.019 86.7586 84.4419 86.6392 84.8639C86.305 85.6755 85.9419 86.4902 85.329 87.1172C85.264 87.1924 85.1997 87.2668 85.136 87.3407C85.0609 87.4035 84.9863 87.4659 84.9124 87.5277C84.7632 87.6483 84.623 87.7742 84.4748 87.8823C84.1501 88.06 83.8619 88.2684 83.5326 88.3663C82.9086 88.6363 82.2752 88.6889 81.7176 88.7249C80.5844 88.7314 79.689 88.4576 79.0501 88.1771C78.4149 87.8785 78.012 87.5908 77.8282 87.3637C77.6392 87.1438 77.6242 87.0141 77.765 86.9681C77.9095 86.9158 78.1736 86.9659 78.6283 87.0374C79.0769 87.1038 79.7069 87.2198 80.4809 87.2185C81.2487 87.2198 82.1467 87.0709 82.8876 86.6348C82.9867 86.589 83.0586 86.503 83.1502 86.4438C83.2383 86.38 83.3336 86.3229 83.4039 86.2287C83.4813 86.1446 83.5624 86.0634 83.6484 85.9845C83.7189 85.8835 83.7868 85.7766 83.8627 85.6756C83.8995 85.6236 83.9406 85.5761 83.9774 85.5214L84.0687 85.3304C84.1338 85.2049 84.2002 85.0774 84.2675 84.9479C84.3183 84.7977 84.3697 84.6451 84.4221 84.4902L84.507 84.2592C84.5337 84.1796 84.5448 84.0854 84.5653 83.9986L84.7365 83.2118C84.8073 82.8264 84.8896 82.4414 85.0002 82.0577C85.2173 81.2914 85.5159 80.5326 85.9057 79.8093C86.6805 78.3589 87.8457 77.0806 89.2314 76.1505C90.6185 75.2165 92.2127 74.6196 93.8677 74.3921C95.5215 74.166 97.2573 74.3016 98.9238 74.9255C99.7544 75.2382 100.565 75.6789 101.299 76.2613C102.029 76.8464 102.674 77.5785 103.163 78.4037C103.654 79.2278 103.984 80.1375 104.156 81.0412C104.329 81.9469 104.352 82.8435 104.281 83.6967C104.135 85.4091 103.634 86.9508 103.01 88.3554C102.381 89.7637 101.62 91.0528 100.791 92.2625C99.1238 94.6756 97.2052 96.798 95.1923 98.781C93.4188 100.429 92.7229 102.047 93.0302 103.447C93.1852 104.158 93.6105 104.882 94.2448 105.515C94.8923 106.133 95.723 106.656 96.6174 106.949C97.0625 107.097 97.5179 107.198 97.9664 107.248C98.4147 107.289 98.8521 107.275 99.2652 107.212C99.6603 107.163 100.17 106.994 100.671 106.828L101.43 106.519L102.179 106.151C103.806 105.296 105.264 104.099 106.446 102.674C107.632 101.246 108.531 99.5699 109.18 97.7546L109.59 96.3533C109.623 96.2364 109.662 96.121 109.693 96.0027L109.76 95.6368L109.896 94.9058C110.127 93.9459 110.158 92.9205 110.268 91.9179C110.302 91.6683 110.302 91.4109 110.299 91.153L110.302 90.3811C110.299 89.8671 110.317 89.3496 110.302 88.8382C110.253 87.8217 110.159 86.8027 110.004 85.7853C109.383 81.7122 107.921 77.6911 105.975 73.8578C105.494 72.8935 104.975 71.955 104.434 71.0019L102.737 68.049C101.594 66.0439 100.463 63.9219 99.5471 61.5937C99.4988 61.5529 99.453 61.5139 99.3986 61.4603Z" fill="#5AB2FF"/>
</g>
<defs>
<clipPath id="clip0_51_36">
<rect width="195" height="194" fill="white" transform="translate(0 52.7378) rotate(-15.6911)"/>
</clipPath>
</defs>
</svg>
